<svg width="208" height="47" viewBox="0 0 208 47" fill="none" xmlns="http://www.w3.org/2000/svg">
<path d="M18.688 45.184C16.768 45.184 14.8907 45.0347 13.056 44.736C11.2213 44.4373 9.57867 44.0747 8.12801 43.648C6.72001 43.2213 5.58934 42.7733 4.736 42.304C3.88267 41.8347 3.456 41.408 3.456 41.024C3.456 39.9573 3.584 38.464 3.84 36.544C4.13867 34.624 4.288 31.9787 4.288 28.608V21.504C4.288 18.688 4.39467 16.4053 4.60801 14.656C4.864 12.864 5.12 11.4773 5.376 10.496H3.2L4.64171e-06 6.208L0.512005 5.184H5.632C7.63734 5.184 9.23734 5.14133 10.432 5.056C11.6693 4.97067 12.9067 4.928 14.144 4.928C15.2533 4.928 16.4693 5.26933 17.792 5.952C19.1147 6.63467 20.3733 7.50933 21.568 8.576C22.8053 9.64267 23.808 10.752 24.576 11.904C25.3867 13.0133 25.792 13.9947 25.792 14.848V17.728C25.792 19.6907 25.472 21.44 24.832 22.976C24.2347 24.512 23.3387 25.7067 22.144 26.56C23.808 27.7973 25.024 29.0987 25.792 30.464C26.6027 31.7867 27.008 33.28 27.008 34.944V36.224C27.008 39.2107 26.2613 41.4507 24.768 42.944C23.3173 44.4373 21.2907 45.184 18.688 45.184ZM16.832 10.496C16.064 10.496 15.2533 10.5387 14.4 10.624C13.5893 10.6667 12.7573 10.752 11.904 10.88C11.6053 12.032 11.328 13.4613 11.072 15.168C10.8587 16.832 10.752 18.7947 10.752 21.056V22.272H14.656C15.5947 22.272 16.4267 22.144 17.152 21.888C17.8773 21.5893 18.432 21.0133 18.816 20.16C19.2427 19.3067 19.456 18.0267 19.456 16.32V13.76C19.456 12.48 19.264 11.6267 18.88 11.2C18.496 10.7307 17.8133 10.496 16.832 10.496ZM10.752 31.488C10.752 33.2373 10.7093 34.7733 10.624 36.096C10.5387 37.376 10.432 38.5493 10.304 39.616C11.3707 39.872 12.416 40 13.44 40C16.0427 40 17.8347 39.424 18.816 38.272C19.84 37.12 20.352 35.6053 20.352 33.728V32.704C20.352 30.4 19.8827 28.9493 18.944 28.352C18.0053 27.712 16.7467 27.392 15.168 27.392H10.752V31.488ZM46.9215 46.208C44.1908 45.184 42.0788 44.2667 40.5855 43.456C39.1348 42.6027 38.4095 41.8347 38.4095 41.152C38.4095 40.5547 38.4735 39.6373 38.6015 38.4C38.7722 37.12 38.8575 35.8827 38.8575 34.688V17.472C38.8575 14.912 38.9428 12.5653 39.1135 10.432C39.3268 8.256 39.5828 6.50667 39.8815 5.184H37.1295L33.6095 1.024L34.0575 0H42.3775L46.1535 4.864C45.8548 6.528 45.6202 8.42667 45.4495 10.56C45.2788 12.6507 45.1935 14.784 45.1935 16.96V35.392C45.1935 36.928 45.1295 38.2933 45.0015 39.488C44.8735 40.64 44.8095 41.5147 44.8095 42.112C44.8095 42.5387 44.9588 42.88 45.2575 43.136C45.5988 43.3493 46.4095 43.7973 47.6895 44.48L46.9215 46.208ZM70.7925 45.632C69.7685 45.632 68.5098 45.376 67.0165 44.864C65.5232 44.3093 64.0298 43.6053 62.5365 42.752C61.0858 41.856 59.8698 40.896 58.8885 39.872C57.9072 38.8053 57.4165 37.76 57.4165 36.736C57.4165 35.712 57.4805 33.9413 57.6085 31.424C57.7792 28.9067 57.8645 25.8987 57.8645 22.4C57.8645 16.8533 60.8938 14.08 66.9525 14.08C67.8912 14.08 68.9792 14.3787 70.2165 14.976C71.4538 15.5307 72.6485 16.2773 73.8005 17.216C74.9525 18.112 75.9125 19.0507 76.6805 20.032C77.4485 21.0133 77.8325 21.9307 77.8325 22.784V28.032C77.8325 31.488 75.9125 33.216 72.0725 33.216C70.8778 33.216 69.5125 33.152 67.9765 33.024C66.4405 32.8533 65.0752 32.6613 63.8805 32.448C63.8378 33.856 63.7952 35.136 63.7525 36.288C63.7525 37.3973 63.7525 38.0373 63.7525 38.208C63.7525 38.8907 63.9232 39.3813 64.2645 39.68C64.6058 39.9787 65.2245 40.128 66.1205 40.128C67.4432 40.128 68.8725 39.936 70.4085 39.552C71.9872 39.1253 73.3952 38.5067 74.6325 37.696H75.5925L79.0485 42.944C78.2378 43.712 77.0218 44.352 75.4005 44.864C73.8218 45.376 72.2858 45.632 70.7925 45.632ZM64.0725 24.448C64.0725 24.7893 64.0512 25.3013 64.0085 25.984C64.0085 26.6667 64.0085 27.4347 64.0085 28.288C65.2458 28.416 66.6752 28.48 68.2965 28.48C69.5338 28.48 70.3872 28.1813 70.8565 27.584C71.3685 26.944 71.6245 25.984 71.6245 24.704V21.248C71.6245 20.7787 71.4965 20.3733 71.2405 20.032C70.9845 19.6907 70.4298 19.52 69.5765 19.52C67.8698 19.52 66.5258 19.8827 65.5445 20.608C64.5632 21.2907 64.0725 22.5707 64.0725 24.448ZM98.796 46.08C96.0653 45.056 93.9533 44.1387 92.46 43.328C91.0093 42.4747 90.284 41.7067 90.284 41.024C90.284 40.4267 90.348 39.5093 90.476 38.272C90.6467 36.992 90.732 35.7547 90.732 34.56V26.368C90.732 25.5147 90.7533 24.448 90.796 23.168C90.8813 21.888 91.0307 20.8 91.244 19.904H88.876L85.548 15.488L85.996 14.464H92.012C92.1827 14.464 92.5453 14.7627 93.1 15.36C93.6973 15.9147 94.2947 16.5547 94.892 17.28C95.7027 16.1707 96.7053 15.36 97.9 14.848C99.1373 14.2933 100.332 14.016 101.484 14.016H102.828C103.681 14.016 104.62 14.3573 105.644 15.04C106.711 15.7227 107.735 16.5547 108.716 17.536C109.74 18.5173 110.572 19.4987 111.212 20.48C111.852 21.4187 112.172 22.1867 112.172 22.784C112.172 23.8507 112.129 25.1733 112.044 26.752C111.959 28.3307 111.916 29.6107 111.916 30.592V35.264C111.916 36.8 111.852 38.1653 111.724 39.36C111.596 40.512 111.532 41.3867 111.532 41.984C111.532 42.4107 111.681 42.752 111.98 43.008C112.321 43.2213 113.132 43.6693 114.412 44.352L113.644 46.08C110.913 45.056 108.801 44.1387 107.308 43.328C105.857 42.4747 105.132 41.7067 105.132 41.024C105.132 40.4267 105.196 39.5093 105.324 38.272C105.495 36.992 105.58 35.7547 105.58 34.56V31.232C105.58 29.8667 105.623 28.3093 105.708 26.56C105.793 24.8107 105.836 23.2747 105.836 21.952C105.836 21.0987 105.729 20.5227 105.516 20.224C105.303 19.9253 104.833 19.776 104.108 19.776C101.719 19.776 99.948 20.3947 98.796 21.632C97.644 22.8267 97.068 24.4907 97.068 26.624V35.264C97.068 36.8 97.004 38.1653 96.876 39.36C96.748 40.512 96.684 41.3867 96.684 41.984C96.684 42.4107 96.8333 42.752 97.132 43.008C97.4733 43.2213 98.284 43.6693 99.564 44.352L98.796 46.08ZM148.025 45.952C147.043 45.6533 146.169 45.3333 145.401 44.992C144.675 44.6507 143.865 44.224 142.969 43.712C142.115 44.4373 141.241 44.9707 140.345 45.312C139.491 45.6107 138.403 45.76 137.081 45.76C136.057 45.76 134.819 45.504 133.369 44.992C131.961 44.48 130.553 43.7973 129.145 42.944C127.779 42.0907 126.627 41.1093 125.689 40C124.793 38.8907 124.345 37.76 124.345 36.608C124.345 36.1387 124.409 34.7947 124.537 32.576C124.665 30.3147 124.729 27.0507 124.729 22.784C124.729 19.7547 125.561 17.5787 127.225 16.256C128.889 14.9333 131.214 14.272 134.201 14.272C135.097 14.272 136.035 14.4427 137.017 14.784C138.041 15.1253 138.958 15.5307 139.769 16C139.811 13.7387 139.918 11.6693 140.089 9.792C140.259 7.91467 140.494 6.37867 140.793 5.184H138.041L134.521 1.024L134.969 0H143.289L147.065 4.864C146.766 6.528 146.531 8.42667 146.361 10.56C146.19 12.6507 146.105 14.784 146.105 16.96V26.624C146.105 28.7147 146.062 30.8693 145.977 33.088C145.891 35.264 145.87 37.5893 145.913 40.064C145.955 41.344 146.169 42.2187 146.553 42.688C146.937 43.1573 147.747 43.648 148.985 44.16L148.025 45.952ZM130.745 38.336C130.745 39.0613 130.915 39.5733 131.257 39.872C131.641 40.1707 132.217 40.32 132.985 40.32C135.289 40.32 136.995 39.7867 138.105 38.72C139.214 37.6533 139.769 36.16 139.769 34.24V20.16C138.958 19.9893 138.083 19.904 137.145 19.904C135.353 19.904 133.881 20.288 132.729 21.056C131.619 21.824 131.043 23.2747 131.001 25.408L130.745 38.336ZM172.055 45.632C171.031 45.632 169.772 45.376 168.279 44.864C166.786 44.3093 165.292 43.6053 163.799 42.752C162.348 41.856 161.132 40.896 160.151 39.872C159.17 38.8053 158.679 37.76 158.679 36.736C158.679 35.712 158.743 33.9413 158.871 31.424C159.042 28.9067 159.127 25.8987 159.127 22.4C159.127 16.8533 162.156 14.08 168.215 14.08C169.154 14.08 170.242 14.3787 171.479 14.976C172.716 15.5307 173.911 16.2773 175.063 17.216C176.215 18.112 177.175 19.0507 177.943 20.032C178.711 21.0133 179.095 21.9307 179.095 22.784V28.032C179.095 31.488 177.175 33.216 173.335 33.216C172.14 33.216 170.775 33.152 169.239 33.024C167.703 32.8533 166.338 32.6613 165.143 32.448C165.1 33.856 165.058 35.136 165.015 36.288C165.015 37.3973 165.015 38.0373 165.015 38.208C165.015 38.8907 165.186 39.3813 165.527 39.68C165.868 39.9787 166.487 40.128 167.383 40.128C168.706 40.128 170.135 39.936 171.671 39.552C173.25 39.1253 174.658 38.5067 175.895 37.696H176.855L180.311 42.944C179.5 43.712 178.284 44.352 176.663 44.864C175.084 45.376 173.548 45.632 172.055 45.632ZM165.335 24.448C165.335 24.7893 165.314 25.3013 165.271 25.984C165.271 26.6667 165.271 27.4347 165.271 28.288C166.508 28.416 167.938 28.48 169.559 28.48C170.796 28.48 171.65 28.1813 172.119 27.584C172.631 26.944 172.887 25.984 172.887 24.704V21.248C172.887 20.7787 172.759 20.3733 172.503 20.032C172.247 19.6907 171.692 19.52 170.839 19.52C169.132 19.52 167.788 19.8827 166.807 20.608C165.826 21.2907 165.335 22.5707 165.335 24.448ZM202.042 46.656C198.373 45.4613 195.728 44.4373 194.106 43.584C192.485 42.688 191.674 42.048 191.674 41.664C191.674 41.1947 191.738 40.384 191.866 39.232C192.037 38.08 192.122 36.288 192.122 33.856V25.92C192.122 25.0667 192.165 24.064 192.25 22.912C192.336 21.7173 192.464 20.7147 192.634 19.904H190.266L186.938 15.488L187.386 14.464H193.402C193.616 14.464 194 14.784 194.554 15.424C195.152 16.0213 195.749 16.6827 196.346 17.408C197.029 16.2987 197.968 15.488 199.162 14.976C200.4 14.464 201.701 14.208 203.066 14.208C203.749 14.208 204.261 14.2507 204.602 14.336L207.802 18.816L207.29 19.584C204.304 19.5413 202.085 20.1173 200.634 21.312C199.184 22.5067 198.458 24.704 198.458 27.904V34.752C198.458 36.8853 198.394 38.5493 198.266 39.744C198.181 40.896 198.138 41.664 198.138 42.048C198.138 42.304 198.224 42.5387 198.394 42.752C198.565 42.9227 198.97 43.136 199.61 43.392C200.293 43.648 201.36 44.0747 202.81 44.672L202.042 46.656Z"/>
</svg>
