<svg width="229" height="42" viewBox="0 0 229 42" fill="none" xmlns="http://www.w3.org/2000/svg">
<path d="M14.336 40.96C13.1413 40.96 11.7333 40.6827 10.112 40.128C8.49067 39.5307 6.89067 38.784 5.31201 37.888C3.776 36.992 2.496 36.0533 1.472 35.072C0.490671 34.0907 4.52995e-06 33.1947 4.52995e-06 32.384C4.52995e-06 31.2747 0.0640045 29.8667 0.192004 28.16C0.362671 26.4107 0.448004 24.576 0.448004 22.656V11.584C0.448004 7.40267 1.30134 4.43733 3.008 2.688C4.75734 0.896 7.168 0 10.24 0C11.52 0 12.8213 0.341333 14.144 1.024C15.5093 1.70666 16.768 2.56 17.92 3.584C19.1147 4.608 20.0747 5.67466 20.8 6.784C21.5253 7.89333 21.888 8.87466 21.888 9.728C21.888 10.7093 21.824 11.8187 21.696 13.056C21.568 14.2507 21.3547 15.36 21.056 16.384L14.72 14.912C14.8907 13.888 15.04 12.8 15.168 11.648C15.3387 10.496 15.424 9.30133 15.424 8.064C15.424 6.656 14.6773 5.952 13.184 5.952C11.3067 5.952 9.81334 6.48533 8.70401 7.552C7.59467 8.576 7.04 10.3467 7.04 12.864V25.216C7.04 27.3493 6.976 29.056 6.84801 30.336C6.76267 31.616 6.72001 32.512 6.72001 33.024C6.72001 34.5173 7.48801 35.264 9.024 35.264C11.0293 35.264 12.672 34.7947 13.952 33.856C15.232 32.9173 16.3413 31.424 17.28 29.376H18.048L23.36 32.448C22.464 35.1787 21.2267 37.2907 19.648 38.784C18.112 40.2347 16.3413 40.96 14.336 40.96ZM40.111 41.6C39.0443 41.216 37.8923 40.8107 36.655 40.384C35.4603 39.9147 34.4363 39.4667 33.583 39.04C32.7297 38.6133 32.303 38.3147 32.303 38.144C32.303 37.9733 32.4523 37.248 32.751 35.968C33.0923 34.6453 33.519 32.9813 34.031 30.976C34.5857 28.928 35.1617 26.7093 35.759 24.32C36.399 21.9307 37.039 19.5627 37.679 17.216C38.319 14.8267 38.9163 12.6507 39.471 10.688C40.0257 8.68267 40.4737 7.08267 40.815 5.888H37.487L34.607 1.6L34.991 0.575996H48.175L51.887 5.952C52.399 8.04266 52.9323 10.4107 53.487 13.056C54.0417 15.6587 54.5963 18.3253 55.151 21.056C55.7057 23.744 56.2177 26.24 56.687 28.544C57.1563 30.848 57.5403 32.768 57.839 34.304C58.1377 35.84 58.3083 36.7147 58.351 36.928C58.4363 37.4827 58.671 37.9093 59.055 38.208C59.439 38.5067 60.1217 38.912 61.103 39.424L60.335 41.472C59.055 41.0453 57.775 40.5547 56.495 40C55.2577 39.4453 54.2337 38.912 53.423 38.4C52.6123 37.888 52.1857 37.5253 52.143 37.312C52.015 35.9467 51.8657 34.56 51.695 33.152C51.5243 31.7013 51.3323 30.272 51.119 28.864C50.735 28.8213 50.351 28.8 49.967 28.8C48.431 28.8 46.831 28.9707 45.167 29.312C43.503 29.6533 41.9883 30.272 40.623 31.168C40.3243 32.3627 40.0043 33.5787 39.663 34.816C39.3643 36.0533 39.0657 37.2907 38.767 38.528L40.879 39.552L40.111 41.6ZM45.551 23.616C47.2577 23.616 48.9217 24.0853 50.543 25.024C50.031 21.6107 49.455 18.304 48.815 15.104C48.2177 11.8613 47.6843 8.98133 47.215 6.464C46.6177 8.64 45.9137 11.2 45.103 14.144C44.335 17.088 43.4817 20.352 42.543 23.936C43.567 23.7227 44.5697 23.616 45.551 23.616ZM80.759 40.96C77.303 40.96 74.5083 39.808 72.375 37.504C70.2417 35.2 68.663 31.7227 67.639 27.072L69.815 26.496C70.7963 28.8427 71.8843 30.592 73.079 31.744C74.3163 32.8533 75.9163 33.408 77.879 33.408C79.5003 33.408 80.951 33.0453 82.231 32.32C83.511 31.5947 84.5137 30.6133 85.239 29.376C86.007 28.096 86.391 26.688 86.391 25.152C86.391 23.5307 85.9217 22.72 84.983 22.72C84.2577 22.72 83.3617 22.848 82.295 23.104C81.271 23.36 80.247 23.616 79.223 23.872C78.199 24.128 77.367 24.256 76.727 24.256C75.8737 24.256 74.9777 23.8507 74.039 23.04C73.1003 22.1867 72.2257 21.0773 71.415 19.712C70.6043 18.304 69.943 16.8107 69.431 15.232C68.9617 13.6107 68.727 12.032 68.727 10.496C68.727 7.08267 69.6443 4.50133 71.479 2.752C73.3563 0.959999 75.895 0.0639992 79.095 0.0639992C84.5563 0.0639992 88.2257 3.584 90.103 10.624L87.927 11.2C87.2443 9.74933 86.3057 8.704 85.111 8.064C83.9163 7.424 82.5723 7.104 81.079 7.104C78.7323 7.104 76.8977 7.744 75.575 9.024C74.295 10.304 73.655 12.16 73.655 14.592C73.655 15.4027 73.783 15.9787 74.039 16.32C74.3377 16.6613 74.6577 16.832 74.999 16.832C75.8523 16.832 76.8337 16.6613 77.943 16.32C79.095 15.9787 80.2043 15.6587 81.271 15.36C82.3803 15.0187 83.2763 14.848 83.959 14.848C84.855 14.848 85.815 15.4667 86.839 16.704C87.863 17.8987 88.7377 19.52 89.463 21.568C90.231 23.616 90.615 25.8773 90.615 28.352C90.615 32.32 89.8257 35.4133 88.247 37.632C86.6683 39.8507 84.1723 40.96 80.759 40.96ZM115.974 40.96C114.779 40.96 113.371 40.6827 111.75 40.128C110.128 39.5307 108.528 38.784 106.95 37.888C105.414 36.992 104.134 36.0533 103.11 35.072C102.128 34.0907 101.638 33.1947 101.638 32.384C101.638 31.2747 101.702 29.8667 101.83 28.16C102 26.4107 102.086 24.576 102.086 22.656V11.584C102.086 7.40267 102.939 4.43733 104.646 2.688C106.395 0.896 108.806 0 111.878 0C113.158 0 114.459 0.341333 115.782 1.024C117.147 1.70666 118.406 2.56 119.558 3.584C120.752 4.608 121.712 5.67466 122.438 6.784C123.163 7.89333 123.526 8.87466 123.526 9.728C123.526 10.7093 123.462 11.8187 123.334 13.056C123.206 14.2507 122.992 15.36 122.694 16.384L116.358 14.912C116.528 13.888 116.678 12.8 116.806 11.648C116.976 10.496 117.062 9.30133 117.062 8.064C117.062 6.656 116.315 5.952 114.822 5.952C112.944 5.952 111.451 6.48533 110.342 7.552C109.232 8.576 108.678 10.3467 108.678 12.864V25.216C108.678 27.3493 108.614 29.056 108.486 30.336C108.4 31.616 108.358 32.512 108.358 33.024C108.358 34.5173 109.126 35.264 110.662 35.264C112.667 35.264 114.31 34.7947 115.59 33.856C116.87 32.9173 117.979 31.424 118.918 29.376H119.686L124.998 32.448C124.102 35.1787 122.864 37.2907 121.286 38.784C119.75 40.2347 117.979 40.96 115.974 40.96ZM141.749 41.6C140.682 41.216 139.53 40.8107 138.293 40.384C137.098 39.9147 136.074 39.4667 135.221 39.04C134.367 38.6133 133.941 38.3147 133.941 38.144C133.941 37.9733 134.09 37.248 134.389 35.968C134.73 34.6453 135.157 32.9813 135.669 30.976C136.223 28.928 136.799 26.7093 137.397 24.32C138.037 21.9307 138.677 19.5627 139.317 17.216C139.957 14.8267 140.554 12.6507 141.109 10.688C141.663 8.68267 142.111 7.08267 142.453 5.888H139.125L136.245 1.6L136.629 0.575996H149.813L153.525 5.952C154.037 8.04266 154.57 10.4107 155.125 13.056C155.679 15.6587 156.234 18.3253 156.789 21.056C157.343 23.744 157.855 26.24 158.325 28.544C158.794 30.848 159.178 32.768 159.477 34.304C159.775 35.84 159.946 36.7147 159.989 36.928C160.074 37.4827 160.309 37.9093 160.693 38.208C161.077 38.5067 161.759 38.912 162.741 39.424L161.973 41.472C160.693 41.0453 159.413 40.5547 158.133 40C156.895 39.4453 155.871 38.912 155.061 38.4C154.25 37.888 153.823 37.5253 153.781 37.312C153.653 35.9467 153.503 34.56 153.333 33.152C153.162 31.7013 152.97 30.272 152.757 28.864C152.373 28.8213 151.989 28.8 151.605 28.8C150.069 28.8 148.469 28.9707 146.805 29.312C145.141 29.6533 143.626 30.272 142.261 31.168C141.962 32.3627 141.642 33.5787 141.301 34.816C141.002 36.0533 140.703 37.2907 140.405 38.528L142.517 39.552L141.749 41.6ZM147.189 23.616C148.895 23.616 150.559 24.0853 152.181 25.024C151.669 21.6107 151.093 18.304 150.453 15.104C149.855 11.8613 149.322 8.98133 148.853 6.464C148.255 8.64 147.551 11.2 146.741 14.144C145.973 17.088 145.119 20.352 144.181 23.936C145.205 23.7227 146.207 23.616 147.189 23.616ZM182.525 40.576C180.69 40.576 178.919 40.4267 177.213 40.128C175.549 39.7867 174.162 39.3813 173.053 38.912C171.986 38.4 171.453 37.9093 171.453 37.44C171.453 36.3307 171.559 34.6667 171.773 32.448C172.029 30.2293 172.157 27.456 172.157 24.128V16.896C172.157 14.08 172.263 11.7973 172.477 10.048C172.733 8.256 172.989 6.86933 173.245 5.888H171.069L167.869 1.6L168.381 0.575996H173.757C175.634 0.575996 177.405 0.554663 179.069 0.511997C180.733 0.469331 182.119 0.447998 183.229 0.447998C184.381 0.447998 185.618 0.831998 186.941 1.6C188.306 2.32533 189.565 3.264 190.717 4.416C191.911 5.52533 192.871 6.69866 193.597 7.936C194.365 9.17333 194.749 10.304 194.749 11.328C194.749 13.9307 194.685 16.5973 194.557 19.328C194.471 22.0587 194.429 25.0027 194.429 28.16C194.429 31.616 193.938 34.24 192.957 36.032C191.975 37.824 190.589 39.04 188.797 39.68C187.047 40.2773 184.957 40.576 182.525 40.576ZM185.341 6.144C184.317 6.144 183.357 6.18666 182.461 6.272C181.607 6.31467 180.69 6.44267 179.709 6.656C179.41 7.76533 179.154 9.152 178.941 10.816C178.727 12.4373 178.621 14.3147 178.621 16.448V25.728C178.621 28.16 178.578 30.1227 178.493 31.616C178.45 33.1093 178.343 34.368 178.173 35.392C178.685 35.52 179.303 35.584 180.029 35.584C182.589 35.584 184.53 34.8373 185.853 33.344C187.175 31.808 187.837 29.1627 187.837 25.408C187.837 23.232 187.879 21.0987 187.965 19.008C188.05 16.8747 188.114 14.9547 188.157 13.248C188.242 11.5413 188.285 10.24 188.285 9.344C188.285 8.23467 188.05 7.424 187.581 6.912C187.154 6.4 186.407 6.144 185.341 6.144ZM221.568 40.192C216.491 40.192 212.757 39.8507 210.368 39.168C207.979 38.4427 206.784 37.888 206.784 37.504C206.784 36.6507 206.933 35.0507 207.232 32.704C207.573 30.3573 207.744 27.4133 207.744 23.872V15.744C207.787 13.2693 207.915 11.2427 208.128 9.664C208.341 8.04267 208.576 6.784 208.832 5.888H206.656L203.456 1.6L203.968 0.575996H224.704L228.288 5.184L225.152 7.936H223.808C223.339 7.168 222.784 6.63466 222.144 6.336C221.547 6.03733 220.672 5.888 219.52 5.888H215.488C215.189 7.04 214.891 8.49066 214.592 10.24C214.336 11.9893 214.208 14.0587 214.208 16.448V17.344H222.784L225.664 21.952L224.832 22.912H214.208V25.472C214.208 27.3067 214.165 28.8853 214.08 30.208C214.037 31.488 213.931 32.7893 213.76 34.112C214.443 34.24 215.275 34.3467 216.256 34.432C217.237 34.4747 218.325 34.496 219.52 34.496C220.672 34.496 221.781 34.4533 222.848 34.368C223.957 34.2827 224.981 34.176 225.92 34.048L228.864 39.104L228.096 40.192H221.568Z"/>
</svg>
