<svg width="88" height="41" viewBox="0 0 88 41" fill="none" xmlns="http://www.w3.org/2000/svg">
<path d="M14.336 40.96C13.1413 40.96 11.7333 40.6827 10.112 40.128C8.49067 39.5307 6.89067 38.784 5.31201 37.888C3.776 36.992 2.496 36.0533 1.472 35.072C0.490671 34.0907 4.52995e-06 33.1947 4.52995e-06 32.384C4.52995e-06 31.2747 0.0640045 29.8667 0.192004 28.16C0.362671 26.4107 0.448004 24.576 0.448004 22.656V11.584C0.448004 7.40267 1.30134 4.43733 3.008 2.688C4.75734 0.896 7.168 0 10.24 0C11.52 0 12.8213 0.341333 14.144 1.024C15.5093 1.70666 16.768 2.56 17.92 3.584C19.1147 4.608 20.0747 5.67466 20.8 6.784C21.5253 7.89333 21.888 8.87466 21.888 9.728C21.888 10.7093 21.824 11.8187 21.696 13.056C21.568 14.2507 21.3547 15.36 21.056 16.384L14.72 14.912C14.8907 13.888 15.04 12.8 15.168 11.648C15.3387 10.496 15.424 9.30133 15.424 8.064C15.424 6.656 14.6773 5.952 13.184 5.952C11.3067 5.952 9.81334 6.48533 8.70401 7.552C7.59467 8.576 7.04 10.3467 7.04 12.864V25.216C7.04 27.3493 6.976 29.056 6.84801 30.336C6.76267 31.616 6.72001 32.512 6.72001 33.024C6.72001 34.5173 7.48801 35.264 9.024 35.264C11.0293 35.264 12.672 34.7947 13.952 33.856C15.232 32.9173 16.3413 31.424 17.28 29.376H18.048L23.36 32.448C22.464 35.1787 21.2267 37.2907 19.648 38.784C18.112 40.2347 16.3413 40.96 14.336 40.96ZM44.734 40.96C41.278 40.96 38.4833 39.808 36.35 37.504C34.2167 35.2 32.638 31.7227 31.614 27.072L33.79 26.496C34.7713 28.8427 35.8593 30.592 37.054 31.744C38.2913 32.8533 39.8913 33.408 41.854 33.408C43.4753 33.408 44.926 33.0453 46.206 32.32C47.486 31.5947 48.4887 30.6133 49.214 29.376C49.982 28.096 50.366 26.688 50.366 25.152C50.366 23.5307 49.8967 22.72 48.958 22.72C48.2327 22.72 47.3367 22.848 46.27 23.104C45.246 23.36 44.222 23.616 43.198 23.872C42.174 24.128 41.342 24.256 40.702 24.256C39.8487 24.256 38.9527 23.8507 38.014 23.04C37.0753 22.1867 36.2007 21.0773 35.39 19.712C34.5793 18.304 33.918 16.8107 33.406 15.232C32.9367 13.6107 32.702 12.032 32.702 10.496C32.702 7.08267 33.6193 4.50133 35.454 2.752C37.3313 0.959999 39.87 0.0639992 43.07 0.0639992C48.5313 0.0639992 52.2007 3.584 54.078 10.624L51.902 11.2C51.2193 9.74933 50.2807 8.704 49.086 8.064C47.8913 7.424 46.5473 7.104 45.054 7.104C42.7073 7.104 40.8727 7.744 39.55 9.024C38.27 10.304 37.63 12.16 37.63 14.592C37.63 15.4027 37.758 15.9787 38.014 16.32C38.3127 16.6613 38.6327 16.832 38.974 16.832C39.8273 16.832 40.8087 16.6613 41.918 16.32C43.07 15.9787 44.1793 15.6587 45.246 15.36C46.3553 15.0187 47.2513 14.848 47.934 14.848C48.83 14.848 49.79 15.4667 50.814 16.704C51.838 17.8987 52.7127 19.52 53.438 21.568C54.206 23.616 54.59 25.8773 54.59 28.352C54.59 32.32 53.8007 35.4133 52.222 37.632C50.6433 39.8507 48.1473 40.96 44.734 40.96ZM77.1965 40.96C73.7405 40.96 70.9458 39.808 68.8125 37.504C66.6792 35.2 65.1005 31.7227 64.0765 27.072L66.2525 26.496C67.2338 28.8427 68.3218 30.592 69.5165 31.744C70.7538 32.8533 72.3538 33.408 74.3165 33.408C75.9378 33.408 77.3885 33.0453 78.6685 32.32C79.9485 31.5947 80.9512 30.6133 81.6765 29.376C82.4445 28.096 82.8285 26.688 82.8285 25.152C82.8285 23.5307 82.3592 22.72 81.4205 22.72C80.6952 22.72 79.7992 22.848 78.7325 23.104C77.7085 23.36 76.6845 23.616 75.6605 23.872C74.6365 24.128 73.8045 24.256 73.1645 24.256C72.3112 24.256 71.4152 23.8507 70.4765 23.04C69.5378 22.1867 68.6632 21.0773 67.8525 19.712C67.0418 18.304 66.3805 16.8107 65.8685 15.232C65.3992 13.6107 65.1645 12.032 65.1645 10.496C65.1645 7.08267 66.0818 4.50133 67.9165 2.752C69.7938 0.959999 72.3325 0.0639992 75.5325 0.0639992C80.9938 0.0639992 84.6632 3.584 86.5405 10.624L84.3645 11.2C83.6818 9.74933 82.7432 8.704 81.5485 8.064C80.3538 7.424 79.0098 7.104 77.5165 7.104C75.1698 7.104 73.3352 7.744 72.0125 9.024C70.7325 10.304 70.0925 12.16 70.0925 14.592C70.0925 15.4027 70.2205 15.9787 70.4765 16.32C70.7752 16.6613 71.0952 16.832 71.4365 16.832C72.2898 16.832 73.2712 16.6613 74.3805 16.32C75.5325 15.9787 76.6418 15.6587 77.7085 15.36C78.8178 15.0187 79.7138 14.848 80.3965 14.848C81.2925 14.848 82.2525 15.4667 83.2765 16.704C84.3005 17.8987 85.1752 19.52 85.9005 21.568C86.6685 23.616 87.0525 25.8773 87.0525 28.352C87.0525 32.32 86.2632 35.4133 84.6845 37.632C83.1058 39.8507 80.6098 40.96 77.1965 40.96Z"/>
</svg>
