<svg width="292" height="46" viewBox="0 0 292 46" fill="none" xmlns="http://www.w3.org/2000/svg">
<path d="M12.352 45.056C9.53599 44.1173 7.40266 43.2427 5.95199 42.432C4.50133 41.6213 3.77599 40.96 3.77599 40.448C3.77599 39.9787 3.81866 39.488 3.90399 38.976C3.98933 38.464 4.07466 37.7173 4.15999 36.736C4.24533 35.7547 4.28799 34.3467 4.28799 32.512V20.544C4.28799 17.728 4.39466 15.4453 4.60799 13.696C4.86399 11.904 5.11999 10.5173 5.37599 9.536H3.19999L-7.30157e-06 5.248L0.511993 4.224H20.864L24 8.704L20.736 11.584H19.456C19.0293 10.944 18.496 10.4533 17.856 10.112C17.2587 9.728 16.4693 9.536 15.488 9.536H12.032C11.7333 10.688 11.4347 12.1387 11.136 13.888C10.88 15.6373 10.752 17.7067 10.752 20.096V21.76H19.648L22.4 26.176L21.952 27.264H10.752V33.92C10.752 35.7547 10.688 37.2267 10.56 38.336C10.4747 39.4027 10.432 40.2347 10.432 40.832C10.432 41.5573 11.3493 42.3467 13.184 43.2L12.352 45.056ZM57.024 44.928C56.0427 44.544 55.1467 44.1387 54.336 43.712C53.5253 43.2853 52.7573 42.816 52.032 42.304C51.136 43.0293 50.0693 43.6267 48.832 44.096C47.5947 44.5653 46.4427 44.8 45.376 44.8C44.608 44.8 43.5627 44.544 42.24 44.032C40.9173 43.52 39.5733 42.8373 38.208 41.984C36.8427 41.1307 35.6907 40.2133 34.752 39.232C33.8133 38.208 33.344 37.2267 33.344 36.288C33.344 35.648 33.3867 34.624 33.472 33.216C33.6 31.7653 33.664 30.1227 33.664 28.288V24.576C33.664 23.4667 33.7067 22.4427 33.792 21.504C33.92 20.5227 34.112 19.6693 34.368 18.944H32.256L28.864 14.592L29.312 13.504H37.504L41.216 18.496C40.704 19.1787 40.3627 20.032 40.192 21.056C40.064 22.08 40 23.3813 40 24.96V28.736C40 31.552 39.9573 33.6 39.872 34.88C39.8293 36.16 39.808 37.056 39.808 37.568C39.808 38.7627 40.5333 39.36 41.984 39.36C43.0507 39.36 44.0747 39.168 45.056 38.784C46.08 38.3573 46.912 37.76 47.552 36.992C48.2347 36.1813 48.576 35.2213 48.576 34.112V24.576C48.576 23.4667 48.6187 22.4427 48.704 21.504C48.832 20.5227 49.024 19.6693 49.28 18.944H47.168L43.776 14.592L44.224 13.504H52.416L56.128 18.496C55.616 19.1787 55.2747 20.032 55.104 21.056C54.976 22.08 54.912 23.3813 54.912 24.96V31.808C54.912 34.1547 54.8693 35.9253 54.784 37.12C54.6987 38.3147 54.656 39.1893 54.656 39.744C54.656 40.4267 54.8907 41.0453 55.36 41.6C55.872 42.112 56.704 42.6667 57.856 43.264L57.024 44.928ZM78.225 44.928C74.9823 44.928 72.4437 43.8827 70.609 41.792C68.7743 39.6587 67.4943 36.7787 66.769 33.152L68.817 32.576C69.6277 34.624 70.545 36.0747 71.569 36.928C72.6357 37.7813 74.065 38.208 75.857 38.208C77.905 38.208 79.633 37.632 81.041 36.48C82.4917 35.328 83.217 33.92 83.217 32.256C83.217 31.3173 82.8757 30.848 82.193 30.848C81.6383 30.848 80.8277 30.976 79.761 31.232C78.737 31.488 77.713 31.7653 76.689 32.064C75.665 32.32 74.897 32.448 74.385 32.448C73.617 32.448 72.8277 32.0853 72.017 31.36C71.249 30.6347 70.5237 29.7173 69.841 28.608C69.1583 27.456 68.6037 26.2613 68.177 25.024C67.7503 23.7867 67.537 22.6347 67.537 21.568C67.537 19.0507 68.3263 16.9387 69.905 15.232C71.5263 13.5253 73.8303 12.672 76.817 12.672C79.377 12.672 81.4677 13.3547 83.089 14.72C84.7103 16.0853 85.9477 18.176 86.801 20.992L84.561 21.76C83.409 19.9253 81.6597 19.008 79.313 19.008C77.265 19.008 75.537 19.5413 74.129 20.608C72.721 21.6747 72.017 23.0187 72.017 24.64C72.017 25.4933 72.4223 25.92 73.233 25.92C73.873 25.92 74.705 25.792 75.729 25.536C76.753 25.2373 77.777 24.96 78.801 24.704C79.825 24.448 80.657 24.32 81.297 24.32C82.2783 24.32 83.2383 24.8747 84.177 25.984C85.1157 27.0933 85.8837 28.5013 86.481 30.208C87.0783 31.9147 87.377 33.664 87.377 35.456C87.377 38.3147 86.5877 40.6187 85.009 42.368C83.4303 44.0747 81.169 44.928 78.225 44.928ZM102.796 9.216L98.5725 4.672V4.032C99.7245 2.496 101.282 1.152 103.244 0L107.468 4.416L107.404 5.184C106.551 5.78134 105.74 6.44267 104.972 7.168C104.247 7.89333 103.522 8.576 102.796 9.216ZM108.492 45.248C105.762 44.224 103.65 43.3067 102.156 42.496C100.706 41.6427 99.9805 40.8747 99.9805 40.192C99.9805 39.5947 100.044 38.6773 100.172 37.44C100.343 36.16 100.428 34.9227 100.428 33.728V24.576C100.428 23.4667 100.471 22.4427 100.556 21.504C100.684 20.5227 100.876 19.6693 101.132 18.944H99.0205L95.6285 14.592L96.0765 13.504H104.268L107.98 18.496C107.468 19.1787 107.127 20.032 106.956 21.056C106.828 22.08 106.764 23.3813 106.764 24.96V34.432C106.764 35.968 106.7 37.3333 106.572 38.528C106.444 39.68 106.38 40.5547 106.38 41.152C106.38 41.5787 106.53 41.92 106.828 42.176C107.17 42.3893 107.98 42.8373 109.26 43.52L108.492 45.248ZM132.509 44.8C131.485 44.8 130.248 44.544 128.797 44.032C127.346 43.52 125.938 42.8373 124.573 41.984C123.208 41.1307 122.056 40.1493 121.117 39.04C120.221 37.9307 119.773 36.8 119.773 35.648C119.773 35.136 119.837 33.6427 119.965 31.168C120.136 28.6933 120.221 25.6 120.221 21.888C120.221 18.9013 121.096 16.704 122.845 15.296C124.594 13.888 127.218 13.184 130.717 13.184C131.741 13.184 132.872 13.504 134.109 14.144C135.389 14.784 136.605 15.616 137.757 16.64C138.909 17.664 139.848 18.752 140.573 19.904C141.341 21.0133 141.725 22.0587 141.725 23.04C141.725 24.6613 141.682 26.4107 141.597 28.288C141.554 30.1653 141.533 32.576 141.533 35.52C141.533 38.2507 140.786 40.4907 139.293 42.24C137.8 43.9467 135.538 44.8 132.509 44.8ZM128.413 39.36C130.76 39.36 132.466 38.8693 133.533 37.888C134.642 36.9067 135.197 35.456 135.197 33.536C135.197 32.1707 135.218 30.6347 135.261 28.928C135.304 27.1787 135.346 25.5787 135.389 24.128C135.432 22.6347 135.453 21.5893 135.453 20.992C135.453 20.2667 135.325 19.7333 135.069 19.392C134.813 19.008 134.301 18.816 133.533 18.816C131.229 18.816 129.458 19.2213 128.221 20.032C127.026 20.8 126.429 22.272 126.429 24.448C126.429 28.544 126.386 31.6373 126.301 33.728C126.216 35.776 126.173 37.1627 126.173 37.888C126.173 38.8693 126.92 39.36 128.413 39.36ZM162.652 45.12C159.922 44.096 157.81 43.1787 156.316 42.368C154.866 41.5147 154.14 40.7467 154.14 40.064C154.14 39.4667 154.204 38.5493 154.332 37.312C154.503 36.032 154.588 34.7947 154.588 33.6V25.408C154.588 24.5547 154.61 23.488 154.652 22.208C154.738 20.928 154.887 19.84 155.1 18.944H152.732L149.404 14.528L149.852 13.504H155.868C156.039 13.504 156.402 13.8027 156.956 14.4C157.554 14.9547 158.151 15.5947 158.748 16.32C159.559 15.2107 160.562 14.4 161.756 13.888C162.994 13.3333 164.188 13.056 165.34 13.056H166.684C167.538 13.056 168.476 13.3973 169.5 14.08C170.567 14.7627 171.591 15.5947 172.572 16.576C173.596 17.5573 174.428 18.5387 175.068 19.52C175.708 20.4587 176.028 21.2267 176.028 21.824C176.028 22.8907 175.986 24.2133 175.9 25.792C175.815 27.3707 175.772 28.6507 175.772 29.632V34.304C175.772 35.84 175.708 37.2053 175.58 38.4C175.452 39.552 175.388 40.4267 175.388 41.024C175.388 41.4507 175.538 41.792 175.836 42.048C176.178 42.2613 176.988 42.7093 178.268 43.392L177.5 45.12C174.77 44.096 172.658 43.1787 171.164 42.368C169.714 41.5147 168.988 40.7467 168.988 40.064C168.988 39.4667 169.052 38.5493 169.18 37.312C169.351 36.032 169.436 34.7947 169.436 33.6V30.272C169.436 28.9067 169.479 27.3493 169.564 25.6C169.65 23.8507 169.692 22.3147 169.692 20.992C169.692 20.1387 169.586 19.5627 169.372 19.264C169.159 18.9653 168.69 18.816 167.964 18.816C165.575 18.816 163.804 19.4347 162.652 20.672C161.5 21.8667 160.924 23.5307 160.924 25.664V34.304C160.924 35.84 160.86 37.2053 160.732 38.4C160.604 39.552 160.54 40.4267 160.54 41.024C160.54 41.4507 160.69 41.792 160.988 42.048C161.33 42.2613 162.14 42.7093 163.42 43.392L162.652 45.12ZM210.529 28.288L206.369 24.576L213.985 13.824C214.583 13.0133 215.116 12.2453 215.585 11.52C216.097 10.7947 216.567 10.1333 216.993 9.536C211.788 9.664 208.396 10.3467 206.817 11.584H205.601L201.185 5.376L201.697 4.224H219.809L224.161 9.92L216.929 20.544C219.361 21.696 221.217 23.4453 222.497 25.792C223.82 28.096 224.481 30.8267 224.481 33.984C224.481 37.0987 223.628 39.68 221.921 41.728C220.257 43.7333 218.039 44.736 215.265 44.736C212.065 44.736 209.292 43.648 206.945 41.472C204.599 39.2533 202.636 36.0747 201.057 31.936L203.617 30.912C205.111 34.0267 206.497 36.096 207.777 37.12C209.1 38.1013 210.444 38.592 211.809 38.592C214.028 38.592 215.735 37.7387 216.929 36.032C218.167 34.3253 218.785 32.192 218.785 29.632C218.785 27.7973 218.508 26.4533 217.953 25.6C217.441 24.7467 216.801 24.32 216.033 24.32C215.265 24.32 214.583 24.64 213.985 25.28C213.388 25.92 212.577 26.9227 211.553 28.288H210.529ZM248.767 44.672C247.359 44.672 245.866 44.3733 244.287 43.776C242.751 43.136 241.3 42.368 239.935 41.472C238.612 40.5333 237.524 39.616 236.671 38.72C235.818 37.7813 235.391 37.0133 235.391 36.416C235.391 35.6053 235.434 34.4533 235.519 32.96C235.647 31.424 235.711 29.5893 235.711 27.456V14.4C235.711 10.432 236.522 7.616 238.143 5.952C239.807 4.288 242.431 3.456 246.015 3.456C246.868 3.456 247.914 3.776 249.151 4.416C250.388 5.056 251.604 5.84533 252.799 6.784C253.994 7.72267 254.996 8.68267 255.807 9.664C256.618 10.6027 257.023 11.392 257.023 12.032C257.023 13.056 256.98 13.9733 256.895 14.784C256.81 15.552 256.724 16.2773 256.639 16.96L250.239 15.488C250.367 14.5493 250.474 13.6747 250.559 12.864C250.644 12.0533 250.687 11.3707 250.687 10.816C250.687 9.62134 250.154 9.024 249.087 9.024C246.655 9.024 244.884 9.64267 243.775 10.88C242.708 12.1173 242.175 14.1227 242.175 16.896V19.904C242.815 19.8613 243.54 19.8187 244.351 19.776C245.204 19.7333 246.058 19.712 246.911 19.712C247.85 19.712 248.938 20.0747 250.175 20.8C251.412 21.4827 252.607 22.3573 253.759 23.424C254.911 24.4907 255.85 25.6 256.575 26.752C257.343 27.904 257.727 28.9067 257.727 29.76V34.432C257.727 36.7787 257.3 38.6987 256.447 40.192C255.594 41.6853 254.484 42.816 253.119 43.584C251.754 44.3093 250.303 44.672 248.767 44.672ZM241.855 36.928C241.855 38.336 242.602 39.04 244.095 39.04C246.399 39.04 248.148 38.336 249.343 36.928C250.538 35.52 251.135 33.5573 251.135 31.04V27.264C251.135 25.8987 250.41 25.216 248.959 25.216C246.484 25.216 244.223 25.664 242.175 26.56V29.312C242.175 30.8053 242.111 32.2133 241.983 33.536C241.898 34.8587 241.855 35.9893 241.855 36.928ZM282.354 44.544C281.202 44.544 279.858 44.2667 278.322 43.712C276.829 43.1147 275.357 42.368 273.906 41.472C272.498 40.576 271.325 39.6587 270.386 38.72C269.448 37.7387 268.978 36.8427 268.978 36.032C268.978 34.9227 269.042 33.5147 269.17 31.808C269.298 30.0587 269.362 28.224 269.362 26.304V12.992C269.362 9.83467 270.13 7.50933 271.666 6.016C273.202 4.52267 275.57 3.776 278.77 3.776C279.965 3.776 281.288 4.16 282.738 4.928C284.232 5.696 285.661 6.67734 287.027 7.872C288.435 9.06667 289.587 10.2827 290.483 11.52C291.378 12.7147 291.826 13.76 291.826 14.656C291.826 15.5093 291.805 16.704 291.763 18.24C291.763 19.776 291.741 21.4827 291.698 23.36C291.656 25.2373 291.613 27.136 291.57 29.056C291.57 30.9333 291.57 32.64 291.57 34.176C291.57 37.5467 290.781 40.128 289.202 41.92C287.667 43.6693 285.384 44.544 282.354 44.544ZM277.938 38.72C280.498 38.72 282.333 38.016 283.442 36.608C284.594 35.2 285.17 32.8747 285.17 29.632C285.17 29.0347 285.17 28.1387 285.17 26.944C285.17 25.7493 285.17 24.4267 285.17 22.976C285.213 21.5253 285.234 20.0747 285.234 18.624C285.234 17.1733 285.234 15.8933 285.234 14.784C285.234 13.632 285.234 12.7787 285.234 12.224C285.234 11.328 285.021 10.688 284.594 10.304C284.168 9.92 283.442 9.728 282.418 9.728C279.773 9.728 278.024 10.2187 277.17 11.2C276.317 12.1387 275.89 13.6107 275.89 15.616V29.056C275.89 31.104 275.826 32.7893 275.698 34.112C275.613 35.4347 275.57 36.352 275.57 36.864C275.57 38.1013 276.36 38.72 277.938 38.72Z"/>
</svg>
