<svg width="508" height="59" viewBox="0 0 508 59" fill="none" xmlns="http://www.w3.org/2000/svg">
<path d="M25.088 46.464C24.2347 45.8667 23.4667 45.312 22.784 44.8C22.1013 44.288 21.44 43.712 20.8 43.072C20.032 43.9253 19.0293 44.5653 17.792 44.992C16.5547 45.4187 15.1893 45.632 13.696 45.632C12.4587 45.632 11.0507 45.3547 9.472 44.8C7.936 44.2453 6.44267 43.5413 4.992 42.688C3.54133 41.792 2.34667 40.8747 1.408 39.936C0.469332 38.9973 -1.43051e-06 38.1653 -1.43051e-06 37.44C-1.43051e-06 36.3733 0.0639985 35.0507 0.191998 33.472C0.319999 31.8507 0.383999 30.1013 0.383999 28.224V16.256C0.383999 11.9467 1.23733 8.93867 2.944 7.232C4.65067 5.48267 7.168 4.608 10.496 4.608C11.776 4.608 13.12 4.94933 14.528 5.632C15.936 6.272 17.2373 7.104 18.432 8.128C19.6693 9.152 20.6507 10.2187 21.376 11.328C22.144 12.4373 22.528 13.4613 22.528 14.4C22.528 15.0827 22.464 15.9573 22.336 17.024C22.208 18.0907 22.016 19.1147 21.76 20.096L15.616 18.496C16.1707 16.2773 16.448 14.2933 16.448 12.544C16.448 11.7333 16.256 11.2 15.872 10.944C15.488 10.688 14.8053 10.56 13.824 10.56C12.4587 10.56 11.2427 10.7307 10.176 11.072C9.152 11.4133 8.36267 12.1173 7.808 13.184C7.25333 14.2507 6.976 15.872 6.976 18.048V30.4C6.976 32.448 6.89067 34.048 6.72 35.2C6.592 36.3093 6.528 37.1413 6.528 37.696C6.528 38.8907 7.31733 39.488 8.896 39.488C11.5413 39.488 13.4613 39.0827 14.656 38.272C15.8507 37.4187 16.448 36.0747 16.448 34.24C16.448 32.1067 16.512 30.4853 16.64 29.376H12.864L9.664 25.024L10.176 23.936H19.264L23.104 29.056C22.9333 30.7627 22.8053 32.4267 22.72 34.048C22.6347 35.6267 22.592 37.4827 22.592 39.616C22.592 40.4267 22.848 41.2373 23.36 42.048C23.9147 42.816 24.9173 43.6907 26.368 44.672L25.088 46.464ZM48.008 45.632C46.984 45.632 45.7253 45.376 44.232 44.864C42.7387 44.3093 41.2453 43.6053 39.752 42.752C38.3013 41.856 37.0853 40.896 36.104 39.872C35.1227 38.8053 34.632 37.76 34.632 36.736C34.632 35.712 34.696 33.9413 34.824 31.424C34.9947 28.9067 35.08 25.8987 35.08 22.4C35.08 16.8533 38.1093 14.08 44.168 14.08C45.1067 14.08 46.1947 14.3787 47.432 14.976C48.6693 15.5307 49.864 16.2773 51.016 17.216C52.168 18.112 53.128 19.0507 53.896 20.032C54.664 21.0133 55.048 21.9307 55.048 22.784V28.032C55.048 31.488 53.128 33.216 49.288 33.216C48.0933 33.216 46.728 33.152 45.192 33.024C43.656 32.8533 42.2907 32.6613 41.096 32.448C41.0533 33.856 41.0107 35.136 40.968 36.288C40.968 37.3973 40.968 38.0373 40.968 38.208C40.968 38.8907 41.1387 39.3813 41.48 39.68C41.8213 39.9787 42.44 40.128 43.336 40.128C44.6587 40.128 46.088 39.936 47.624 39.552C49.2027 39.1253 50.6107 38.5067 51.848 37.696H52.808L56.264 42.944C55.4533 43.712 54.2373 44.352 52.616 44.864C51.0373 45.376 49.5013 45.632 48.008 45.632ZM41.288 24.448C41.288 24.7893 41.2667 25.3013 41.224 25.984C41.224 26.6667 41.224 27.4347 41.224 28.288C42.4613 28.416 43.8907 28.48 45.512 28.48C46.7493 28.48 47.6027 28.1813 48.072 27.584C48.584 26.944 48.84 25.984 48.84 24.704V21.248C48.84 20.7787 48.712 20.3733 48.456 20.032C48.2 19.6907 47.6453 19.52 46.792 19.52C45.0853 19.52 43.7413 19.8827 42.76 20.608C41.7787 21.2907 41.288 22.5707 41.288 24.448ZM76.0115 46.08C73.2808 45.056 71.1688 44.1387 69.6755 43.328C68.2248 42.4747 67.4995 41.7067 67.4995 41.024C67.4995 40.4267 67.5635 39.5093 67.6915 38.272C67.8622 36.992 67.9475 35.7547 67.9475 34.56V26.368C67.9475 25.5147 67.9688 24.448 68.0115 23.168C68.0968 21.888 68.2462 20.8 68.4595 19.904H66.0915L62.7635 15.488L63.2115 14.464H69.2275C69.3982 14.464 69.7608 14.7627 70.3155 15.36C70.9128 15.9147 71.5102 16.5547 72.1075 17.28C72.9182 16.1707 73.9208 15.36 75.1155 14.848C76.3528 14.2933 77.5475 14.016 78.6995 14.016H80.0435C80.8968 14.016 81.8355 14.3573 82.8595 15.04C83.9262 15.7227 84.9502 16.5547 85.9315 17.536C86.9555 18.5173 87.7875 19.4987 88.4275 20.48C89.0675 21.4187 89.3875 22.1867 89.3875 22.784C89.3875 23.8507 89.3448 25.1733 89.2595 26.752C89.1742 28.3307 89.1315 29.6107 89.1315 30.592V35.264C89.1315 36.8 89.0675 38.1653 88.9395 39.36C88.8115 40.512 88.7475 41.3867 88.7475 41.984C88.7475 42.4107 88.8968 42.752 89.1955 43.008C89.5368 43.2213 90.3475 43.6693 91.6275 44.352L90.8595 46.08C88.1288 45.056 86.0168 44.1387 84.5235 43.328C83.0728 42.4747 82.3475 41.7067 82.3475 41.024C82.3475 40.4267 82.4115 39.5093 82.5395 38.272C82.7102 36.992 82.7955 35.7547 82.7955 34.56V31.232C82.7955 29.8667 82.8382 28.3093 82.9235 26.56C83.0088 24.8107 83.0515 23.2747 83.0515 21.952C83.0515 21.0987 82.9448 20.5227 82.7315 20.224C82.5182 19.9253 82.0488 19.776 81.3235 19.776C78.9342 19.776 77.1635 20.3947 76.0115 21.632C74.8595 22.8267 74.2835 24.4907 74.2835 26.624V35.264C74.2835 36.8 74.2195 38.1653 74.0915 39.36C73.9635 40.512 73.8995 41.3867 73.8995 41.984C73.8995 42.4107 74.0488 42.752 74.3475 43.008C74.6888 43.2213 75.4995 43.6693 76.7795 44.352L76.0115 46.08ZM114.808 45.632C113.784 45.632 112.525 45.376 111.032 44.864C109.539 44.3093 108.045 43.6053 106.552 42.752C105.101 41.856 103.885 40.896 102.904 39.872C101.923 38.8053 101.432 37.76 101.432 36.736C101.432 35.712 101.496 33.9413 101.624 31.424C101.795 28.9067 101.88 25.8987 101.88 22.4C101.88 16.8533 104.909 14.08 110.968 14.08C111.907 14.08 112.995 14.3787 114.232 14.976C115.469 15.5307 116.664 16.2773 117.816 17.216C118.968 18.112 119.928 19.0507 120.696 20.032C121.464 21.0133 121.848 21.9307 121.848 22.784V28.032C121.848 31.488 119.928 33.216 116.088 33.216C114.893 33.216 113.528 33.152 111.992 33.024C110.456 32.8533 109.091 32.6613 107.896 32.448C107.853 33.856 107.811 35.136 107.768 36.288C107.768 37.3973 107.768 38.0373 107.768 38.208C107.768 38.8907 107.939 39.3813 108.28 39.68C108.621 39.9787 109.24 40.128 110.136 40.128C111.459 40.128 112.888 39.936 114.424 39.552C116.003 39.1253 117.411 38.5067 118.648 37.696H119.608L123.064 42.944C122.253 43.712 121.037 44.352 119.416 44.864C117.837 45.376 116.301 45.632 114.808 45.632ZM108.088 24.448C108.088 24.7893 108.067 25.3013 108.024 25.984C108.024 26.6667 108.024 27.4347 108.024 28.288C109.261 28.416 110.691 28.48 112.312 28.48C113.549 28.48 114.403 28.1813 114.872 27.584C115.384 26.944 115.64 25.984 115.64 24.704V21.248C115.64 20.7787 115.512 20.3733 115.256 20.032C115 19.6907 114.445 19.52 113.592 19.52C111.885 19.52 110.541 19.8827 109.56 20.608C108.579 21.2907 108.088 22.5707 108.088 24.448ZM144.796 46.656C141.126 45.4613 138.481 44.4373 136.86 43.584C135.238 42.688 134.428 42.048 134.428 41.664C134.428 41.1947 134.492 40.384 134.62 39.232C134.79 38.08 134.876 36.288 134.876 33.856V25.92C134.876 25.0667 134.918 24.064 135.004 22.912C135.089 21.7173 135.217 20.7147 135.388 19.904H133.02L129.692 15.488L130.14 14.464H136.156C136.369 14.464 136.753 14.784 137.308 15.424C137.905 16.0213 138.502 16.6827 139.1 17.408C139.782 16.2987 140.721 15.488 141.916 14.976C143.153 14.464 144.454 14.208 145.82 14.208C146.502 14.208 147.014 14.2507 147.356 14.336L150.556 18.816L150.044 19.584C147.057 19.5413 144.838 20.1173 143.388 21.312C141.937 22.5067 141.212 24.704 141.212 27.904V34.752C141.212 36.8853 141.148 38.5493 141.02 39.744C140.934 40.896 140.892 41.664 140.892 42.048C140.892 42.304 140.977 42.5387 141.148 42.752C141.318 42.9227 141.724 43.136 142.364 43.392C143.046 43.648 144.113 44.0747 145.564 44.672L144.796 46.656ZM180.578 45.76C179.554 45.4187 178.616 45.0773 177.762 44.736C176.909 44.352 176.098 43.9467 175.33 43.52C174.733 44.1173 174.008 44.608 173.154 44.992C172.344 45.3333 171.405 45.504 170.338 45.504C169.613 45.504 168.546 45.2693 167.138 44.8C165.773 44.3307 164.365 43.7333 162.914 43.008C161.464 42.24 160.226 41.408 159.202 40.512C158.221 39.5733 157.73 38.656 157.73 37.76C157.73 36.6507 157.73 35.6693 157.73 34.816C157.773 33.92 157.794 33.3867 157.794 33.216C157.794 30.6987 158.434 28.928 159.714 27.904C161.037 26.8373 162.872 26.304 165.218 26.304C166.413 26.304 167.693 26.3893 169.058 26.56C170.424 26.7307 171.533 26.9227 172.386 27.136C172.429 25.9413 172.45 24.8107 172.45 23.744C172.493 22.6347 172.514 21.8027 172.514 21.248C172.514 20.7787 172.386 20.4373 172.13 20.224C171.874 20.0107 171.405 19.904 170.722 19.904C169.058 19.904 167.65 20.032 166.498 20.288C165.346 20.544 164.258 20.9707 163.234 21.568H162.018L157.858 15.488L158.37 14.464H169.058C169.912 14.464 170.872 14.8053 171.938 15.488C173.048 16.128 174.136 16.9387 175.202 17.92C176.269 18.9013 177.144 19.904 177.826 20.928C178.509 21.952 178.851 22.848 178.851 23.616C178.851 25.024 178.808 26.688 178.722 28.608C178.637 30.528 178.552 32.4907 178.466 34.496C178.381 36.4587 178.338 38.2507 178.338 39.872C178.338 41.152 178.552 42.048 178.979 42.56C179.405 43.0293 180.216 43.4987 181.41 43.968L180.578 45.76ZM164.066 37.76C164.066 38.8267 164.258 39.5093 164.642 39.808C165.026 40.064 165.496 40.192 166.05 40.192C167.8 40.192 169.25 39.744 170.402 38.848C171.597 37.9093 172.194 36.4587 172.194 34.496C172.194 34.112 172.194 33.6427 172.194 33.088C172.237 32.5333 172.258 31.9147 172.258 31.232C171.789 31.104 171.213 31.0187 170.53 30.976C169.848 30.9333 169.229 30.912 168.674 30.912C167.138 30.912 165.986 31.2533 165.218 31.936C164.45 32.6187 164.066 33.8133 164.066 35.52V37.76ZM199.912 46.208C197.181 45.184 195.069 44.2667 193.576 43.456C192.125 42.6027 191.4 41.8347 191.4 41.152C191.4 40.5547 191.464 39.6373 191.592 38.4C191.763 37.12 191.848 35.8827 191.848 34.688V17.472C191.848 14.912 191.933 12.5653 192.104 10.432C192.317 8.256 192.573 6.50667 192.872 5.184H190.12L186.6 1.024L187.048 0H195.368L199.144 4.864C198.845 6.528 198.611 8.42667 198.44 10.56C198.269 12.6507 198.184 14.784 198.184 16.96V35.392C198.184 36.928 198.12 38.2933 197.992 39.488C197.864 40.64 197.8 41.5147 197.8 42.112C197.8 42.5387 197.949 42.88 198.248 43.136C198.589 43.3493 199.4 43.7973 200.68 44.48L199.912 46.208ZM235.219 45.888C234.153 45.4613 232.937 44.928 231.571 44.288C230.249 43.6053 229.097 42.9653 228.115 42.368C227.134 41.728 226.643 41.2587 226.643 40.96C226.643 40.4907 226.771 39.4453 227.027 37.824C227.326 36.2027 227.475 34.1973 227.475 31.808V24.832C227.475 21.2907 227.582 18.4107 227.795 16.192C228.009 13.9307 228.329 12.032 228.755 10.496H226.195L223.315 6.336L223.891 5.184H236.051C236.777 6.67733 237.502 8.512 238.227 10.688C238.995 12.8213 239.721 15.1253 240.403 17.6C241.086 20.032 241.683 22.3787 242.195 24.64C242.963 21.0133 243.987 17.536 245.267 14.208C246.547 10.8373 248.019 7.82933 249.683 5.184H255.571L259.219 10.304C258.921 11.2853 258.686 12.48 258.515 13.888C258.345 15.2533 258.259 17.0667 258.259 19.328V32.704C258.259 34.624 258.195 36.16 258.067 37.312C257.982 38.4213 257.875 39.296 257.747 39.936C257.619 40.576 257.555 41.1307 257.555 41.6C257.555 41.8987 257.811 42.2613 258.323 42.688C258.835 43.1147 259.518 43.584 260.371 44.096L259.539 45.888C258.473 45.4613 257.257 44.928 255.891 44.288C254.569 43.6053 253.417 42.9653 252.435 42.368C251.454 41.728 250.963 41.2587 250.963 40.96C250.963 40.3627 251.091 39.3813 251.347 38.016C251.646 36.608 251.795 34.5387 251.795 31.808V22.08C251.795 20.032 251.838 18.1333 251.923 16.384C252.051 14.592 252.243 13.0133 252.499 11.648C251.561 13.7813 250.665 16.256 249.811 19.072C248.958 21.888 248.169 24.7893 247.443 27.776C246.761 30.7627 246.227 33.6213 245.843 36.352L244.755 36.992L239.635 34.176C239.337 31.744 238.91 29.184 238.355 26.496C237.801 23.7653 237.182 21.1413 236.499 18.624C235.817 16.1067 235.134 13.8453 234.451 11.84C234.323 13.1627 234.217 14.6773 234.131 16.384C234.046 18.0907 233.982 19.7973 233.939 21.504C233.939 23.168 233.939 24.64 233.939 25.92V32.704C233.939 34.624 233.875 36.16 233.747 37.312C233.662 38.4213 233.555 39.296 233.427 39.936C233.299 40.576 233.235 41.1307 233.235 41.6C233.235 41.8987 233.491 42.2613 234.003 42.688C234.515 43.1147 235.198 43.584 236.051 44.096L235.219 45.888ZM293.366 45.76C292.342 45.4187 291.403 45.0773 290.55 44.736C289.697 44.352 288.886 43.9467 288.118 43.52C287.521 44.1173 286.795 44.608 285.942 44.992C285.131 45.3333 284.193 45.504 283.126 45.504C282.401 45.504 281.334 45.2693 279.926 44.8C278.561 44.3307 277.153 43.7333 275.702 43.008C274.251 42.24 273.014 41.408 271.99 40.512C271.009 39.5733 270.518 38.656 270.518 37.76C270.518 36.6507 270.518 35.6693 270.518 34.816C270.561 33.92 270.582 33.3867 270.582 33.216C270.582 30.6987 271.222 28.928 272.502 27.904C273.825 26.8373 275.659 26.304 278.006 26.304C279.201 26.304 280.481 26.3893 281.846 26.56C283.211 26.7307 284.321 26.9227 285.174 27.136C285.217 25.9413 285.238 24.8107 285.238 23.744C285.281 22.6347 285.302 21.8027 285.302 21.248C285.302 20.7787 285.174 20.4373 284.918 20.224C284.662 20.0107 284.193 19.904 283.51 19.904C281.846 19.904 280.438 20.032 279.286 20.288C278.134 20.544 277.046 20.9707 276.022 21.568H274.806L270.646 15.488L271.158 14.464H281.846C282.699 14.464 283.659 14.8053 284.726 15.488C285.835 16.128 286.923 16.9387 287.99 17.92C289.057 18.9013 289.931 19.904 290.614 20.928C291.297 21.952 291.638 22.848 291.638 23.616C291.638 25.024 291.595 26.688 291.51 28.608C291.425 30.528 291.339 32.4907 291.254 34.496C291.169 36.4587 291.126 38.2507 291.126 39.872C291.126 41.152 291.339 42.048 291.766 42.56C292.193 43.0293 293.003 43.4987 294.198 43.968L293.366 45.76ZM276.854 37.76C276.854 38.8267 277.046 39.5093 277.43 39.808C277.814 40.064 278.283 40.192 278.838 40.192C280.587 40.192 282.038 39.744 283.19 38.848C284.385 37.9093 284.982 36.4587 284.982 34.496C284.982 34.112 284.982 33.6427 284.982 33.088C285.025 32.5333 285.046 31.9147 285.046 31.232C284.577 31.104 284.001 31.0187 283.318 30.976C282.635 30.9333 282.017 30.912 281.462 30.912C279.926 30.912 278.774 31.2533 278.006 31.936C277.238 32.6187 276.854 33.8133 276.854 35.52V37.76ZM319.74 36.16L325.115 39.616C324.262 41.6213 323.025 43.1573 321.403 44.224C319.825 45.2907 318.033 45.824 316.027 45.824C314.747 45.824 313.382 45.5467 311.931 44.992C310.481 44.3947 309.115 43.648 307.835 42.752C306.555 41.856 305.489 40.9173 304.635 39.936C303.825 38.9547 303.419 38.0373 303.419 37.184C303.419 36.6293 303.419 35.776 303.419 34.624C303.462 33.472 303.483 32.2773 303.483 31.04C303.526 29.76 303.547 28.6933 303.547 27.84V22.592C303.547 19.776 304.401 17.6427 306.107 16.192C307.814 14.6987 310.097 13.952 312.955 13.952C313.851 13.952 314.897 14.2293 316.091 14.784C317.286 15.296 318.459 16 319.611 16.896C320.763 17.7493 321.723 18.7093 322.491 19.776C323.259 20.8 323.643 21.824 323.643 22.848C323.643 23.9573 323.601 24.9387 323.515 25.792C323.43 26.6027 323.323 27.3493 323.195 28.032L316.603 26.752C316.945 24.704 317.115 22.912 317.115 21.376C317.115 20.6507 316.966 20.16 316.667 19.904C316.411 19.648 315.985 19.52 315.387 19.52C311.718 19.52 309.883 21.3547 309.883 25.024V30.144C309.883 32.8747 309.841 34.88 309.755 36.16C309.713 37.3973 309.691 38.3787 309.691 39.104C309.691 39.5733 309.905 39.936 310.331 40.192C310.758 40.448 311.291 40.576 311.931 40.576C313.51 40.576 314.854 40.256 315.963 39.616C317.073 38.9333 318.075 37.8453 318.971 36.352L319.74 36.16ZM343.912 46.08C341.181 45.056 339.069 44.1387 337.576 43.328C336.125 42.4747 335.4 41.7067 335.4 41.024C335.4 40.4267 335.464 39.5093 335.592 38.272C335.763 36.992 335.848 35.7547 335.848 34.56V17.408C335.848 14.848 335.933 12.5013 336.104 10.368C336.317 8.192 336.573 6.464 336.872 5.184H334.12L330.6 1.024L331.048 0H339.368L343.144 4.864C342.845 6.44267 342.611 8.21333 342.44 10.176C342.269 12.096 342.184 14.1013 342.184 16.192C342.867 15.5093 343.699 14.976 344.68 14.592C345.704 14.208 346.771 14.016 347.88 14.016C348.819 14.016 349.821 14.3573 350.888 15.04C351.955 15.7227 352.957 16.5547 353.896 17.536C354.877 18.5173 355.667 19.4987 356.264 20.48C356.904 21.4187 357.224 22.1867 357.224 22.784C357.224 23.8507 357.181 25.1733 357.096 26.752C357.011 28.3307 356.968 29.6107 356.968 30.592V35.264C356.968 36.8 356.904 38.1653 356.776 39.36C356.648 40.512 356.584 41.3867 356.584 41.984C356.584 42.4107 356.733 42.752 357.032 43.008C357.373 43.2213 358.184 43.6693 359.464 44.352L358.696 46.08C355.965 45.056 353.853 44.1387 352.36 43.328C350.909 42.4747 350.184 41.7067 350.184 41.024C350.184 40.4267 350.248 39.5093 350.376 38.272C350.547 36.992 350.632 35.7547 350.632 34.56V31.232C350.632 29.8667 350.675 28.3093 350.76 26.56C350.845 24.8107 350.888 23.2747 350.888 21.952C350.888 21.0987 350.781 20.5227 350.568 20.224C350.355 19.9253 349.885 19.776 349.16 19.776C346.771 19.776 345 20.3947 343.848 21.632C342.739 22.8267 342.184 24.4907 342.184 26.624V35.264C342.184 36.8 342.12 38.1653 341.992 39.36C341.864 40.512 341.8 41.3867 341.8 41.984C341.8 42.4107 341.949 42.752 342.248 43.008C342.589 43.2213 343.4 43.6693 344.68 44.352L343.912 46.08ZM374.018 10.176L369.794 5.632V4.992C370.946 3.456 372.503 2.112 374.466 0.959999L378.69 5.376L378.626 6.144C377.773 6.74133 376.962 7.40267 376.194 8.128C375.469 8.85333 374.743 9.536 374.018 10.176ZM379.714 46.208C376.983 45.184 374.871 44.2667 373.378 43.456C371.927 42.6027 371.202 41.8347 371.202 41.152C371.202 40.5547 371.266 39.6373 371.394 38.4C371.565 37.12 371.65 35.8827 371.65 34.688V25.536C371.65 24.4267 371.693 23.4027 371.778 22.464C371.906 21.4827 372.098 20.6293 372.354 19.904H370.242L366.85 15.552L367.298 14.464H375.49L379.202 19.456C378.69 20.1387 378.349 20.992 378.178 22.016C378.05 23.04 377.986 24.3413 377.986 25.92V35.392C377.986 36.928 377.922 38.2933 377.794 39.488C377.666 40.64 377.602 41.5147 377.602 42.112C377.602 42.5387 377.751 42.88 378.05 43.136C378.391 43.3493 379.202 43.7973 380.482 44.48L379.714 46.208ZM400.787 46.08C398.056 45.056 395.944 44.1387 394.451 43.328C393 42.4747 392.275 41.7067 392.275 41.024C392.275 40.4267 392.339 39.5093 392.467 38.272C392.637 36.992 392.723 35.7547 392.723 34.56V26.368C392.723 25.5147 392.744 24.448 392.787 23.168C392.872 21.888 393.021 20.8 393.235 19.904H390.867L387.539 15.488L387.987 14.464H394.003C394.173 14.464 394.536 14.7627 395.091 15.36C395.688 15.9147 396.285 16.5547 396.883 17.28C397.693 16.1707 398.696 15.36 399.891 14.848C401.128 14.2933 402.323 14.016 403.475 14.016H404.819C405.672 14.016 406.611 14.3573 407.635 15.04C408.701 15.7227 409.725 16.5547 410.707 17.536C411.731 18.5173 412.563 19.4987 413.203 20.48C413.843 21.4187 414.163 22.1867 414.163 22.784C414.163 23.8507 414.12 25.1733 414.035 26.752C413.949 28.3307 413.907 29.6107 413.907 30.592V35.264C413.907 36.8 413.843 38.1653 413.715 39.36C413.587 40.512 413.523 41.3867 413.523 41.984C413.523 42.4107 413.672 42.752 413.971 43.008C414.312 43.2213 415.123 43.6693 416.403 44.352L415.635 46.08C412.904 45.056 410.792 44.1387 409.299 43.328C407.848 42.4747 407.123 41.7067 407.123 41.024C407.123 40.4267 407.187 39.5093 407.315 38.272C407.485 36.992 407.571 35.7547 407.571 34.56V31.232C407.571 29.8667 407.613 28.3093 407.699 26.56C407.784 24.8107 407.827 23.2747 407.827 21.952C407.827 21.0987 407.72 20.5227 407.507 20.224C407.293 19.9253 406.824 19.776 406.099 19.776C403.709 19.776 401.939 20.3947 400.787 21.632C399.635 22.8267 399.059 24.4907 399.059 26.624V35.264C399.059 36.8 398.995 38.1653 398.867 39.36C398.739 40.512 398.675 41.3867 398.675 41.984C398.675 42.4107 398.824 42.752 399.123 43.008C399.464 43.2213 400.275 43.6693 401.555 44.352L400.787 46.08ZM439.583 45.632C438.559 45.632 437.3 45.376 435.807 44.864C434.314 44.3093 432.82 43.6053 431.327 42.752C429.876 41.856 428.66 40.896 427.679 39.872C426.698 38.8053 426.207 37.76 426.207 36.736C426.207 35.712 426.271 33.9413 426.399 31.424C426.57 28.9067 426.655 25.8987 426.655 22.4C426.655 16.8533 429.684 14.08 435.743 14.08C436.682 14.08 437.77 14.3787 439.007 14.976C440.244 15.5307 441.439 16.2773 442.591 17.216C443.743 18.112 444.703 19.0507 445.471 20.032C446.239 21.0133 446.623 21.9307 446.623 22.784V28.032C446.623 31.488 444.703 33.216 440.863 33.216C439.668 33.216 438.303 33.152 436.767 33.024C435.231 32.8533 433.866 32.6613 432.671 32.448C432.628 33.856 432.586 35.136 432.543 36.288C432.543 37.3973 432.543 38.0373 432.543 38.208C432.543 38.8907 432.714 39.3813 433.055 39.68C433.396 39.9787 434.015 40.128 434.911 40.128C436.234 40.128 437.663 39.936 439.199 39.552C440.778 39.1253 442.186 38.5067 443.423 37.696H444.383L447.839 42.944C447.028 43.712 445.812 44.352 444.191 44.864C442.612 45.376 441.076 45.632 439.583 45.632ZM432.863 24.448C432.863 24.7893 432.842 25.3013 432.799 25.984C432.799 26.6667 432.799 27.4347 432.799 28.288C434.036 28.416 435.466 28.48 437.087 28.48C438.324 28.48 439.178 28.1813 439.647 27.584C440.159 26.944 440.415 25.984 440.415 24.704V21.248C440.415 20.7787 440.287 20.3733 440.031 20.032C439.775 19.6907 439.22 19.52 438.367 19.52C436.66 19.52 435.316 19.8827 434.335 20.608C433.354 21.2907 432.863 22.5707 432.863 24.448ZM469.57 46.656C465.901 45.4613 463.256 44.4373 461.634 43.584C460.013 42.688 459.202 42.048 459.202 41.664C459.202 41.1947 459.266 40.384 459.394 39.232C459.565 38.08 459.65 36.288 459.65 33.856V25.92C459.65 25.0667 459.693 24.064 459.778 22.912C459.864 21.7173 459.992 20.7147 460.162 19.904H457.794L454.466 15.488L454.914 14.464H460.93C461.144 14.464 461.549 14.784 462.146 15.424C462.786 16.064 463.405 16.7893 464.002 17.6C464.813 16.3627 465.858 15.5093 467.138 15.04C468.461 14.528 469.656 14.3147 470.722 14.4L473.922 18.624L473.538 19.584C471.277 19.584 469.442 20.3093 468.034 21.76C466.669 23.168 465.986 25.6 465.986 29.056V34.752C465.986 36.8853 465.922 38.5493 465.794 39.744C465.709 40.896 465.666 41.664 465.666 42.048C465.666 42.304 465.752 42.5387 465.922 42.752C466.093 42.9227 466.498 43.136 467.138 43.392C467.821 43.648 468.888 44.0747 470.338 44.672L469.57 46.656ZM489.616 38.912C488.166 34.3893 487.035 30.6773 486.224 27.776C485.414 24.832 485.008 22.8053 485.008 21.696C485.008 20.928 485.072 20.3307 485.2 19.904H483.664L480.592 15.488L481.104 14.464H489.296L492.24 18.752L491.92 19.584C490.598 19.84 489.936 20.8427 489.936 22.592C489.936 23.616 490.278 25.4933 490.96 28.224C491.686 30.912 492.88 34.5173 494.544 39.04C495.824 35.328 497.04 31.8293 498.192 28.544C499.387 25.216 500.411 22.336 501.264 19.904H497.744L494.864 15.488L495.376 14.464H504.016L507.536 19.776C504.763 27.7973 502.395 34.6667 500.432 40.384C498.47 46.1013 496.891 50.4747 495.696 53.504C494.544 56.576 493.712 58.112 493.2 58.112C492.688 58.112 491.856 57.856 490.704 57.344C489.595 56.8747 488.443 56.32 487.248 55.68C486.096 55.04 485.2 54.5067 484.56 54.08L485.52 52.352C485.947 52.608 486.395 52.8427 486.864 53.056C487.334 53.312 487.782 53.44 488.208 53.44C488.55 53.44 488.912 53.1627 489.296 52.608C489.68 52.096 490.15 51.136 490.704 49.728C491.302 48.3627 492.048 46.4 492.944 43.84C493.03 43.6267 493.094 43.4133 493.136 43.2C492.368 42.6027 491.643 41.92 490.96 41.152C490.32 40.384 489.872 39.6373 489.616 38.912Z"/>
</svg>
