<svg width="138" height="41" viewBox="0 0 138 41" fill="none" xmlns="http://www.w3.org/2000/svg">
<path d="M12.288 40.832C9.47199 39.8933 7.33866 39.0187 5.88799 38.208C4.43733 37.3973 3.71199 36.736 3.71199 36.224C3.71199 35.7547 3.75466 35.264 3.83999 34.752C3.92533 34.24 4.01066 33.4933 4.09599 32.512C4.18133 31.5307 4.22399 30.1227 4.22399 28.288V16C4.22399 13.952 4.30933 11.9467 4.47999 9.984C4.65066 8.02133 4.97066 6.464 5.43999 5.312H3.13599L-7.30157e-06 1.024L0.447993 0H8.63999L12.224 4.992C11.7547 6.31467 11.3707 7.936 11.072 9.856C10.816 11.776 10.688 13.9307 10.688 16.32V17.344C11.4133 17.1307 12.1813 16.96 12.992 16.832C13.8027 16.704 14.592 16.64 15.36 16.64C17.0667 16.64 18.7307 17.1093 20.352 18.048V16C20.352 13.952 20.4373 11.9467 20.608 9.984C20.7787 8.02133 21.0987 6.464 21.568 5.312H19.264L16.128 1.024L16.576 0H24.768L28.352 4.992C27.8827 6.31467 27.4987 7.936 27.2 9.856C26.944 11.776 26.816 13.9307 26.816 16.32V29.696C26.816 31.5307 26.752 33.0027 26.624 34.112C26.5387 35.1787 26.496 36.0107 26.496 36.608C26.496 37.3333 27.4133 38.1227 29.248 38.976L28.416 40.832C25.6 39.8933 23.4667 39.0187 22.016 38.208C20.5653 37.3973 19.84 36.736 19.84 36.224C19.84 35.7547 19.8827 35.264 19.968 34.752C20.0533 34.24 20.1387 33.4933 20.224 32.512C20.3093 31.5307 20.352 30.1227 20.352 28.288V21.824C20.1813 21.824 19.9893 21.824 19.776 21.824C18.2827 21.824 16.7253 21.9947 15.104 22.336C13.5253 22.6347 12.0533 23.2107 10.688 24.064V29.696C10.688 31.5307 10.624 33.0027 10.496 34.112C10.4107 35.1787 10.368 36.0107 10.368 36.608C10.368 37.3333 11.2853 38.1227 13.12 38.976L12.288 40.832ZM54.1025 40.768C51.2865 39.8293 49.1532 38.9547 47.7025 38.144C46.2518 37.3333 45.5265 36.672 45.5265 36.16C45.5265 35.6907 45.5692 35.2 45.6545 34.688C45.7398 34.176 45.8252 33.4293 45.9105 32.448C45.9958 31.4667 46.0385 30.0587 46.0385 28.224V12.992C46.0385 9.70667 46.2732 7.14667 46.7425 5.312H45.8465C44.9078 5.312 43.9905 5.504 43.0945 5.888C42.2412 6.272 41.6225 6.69867 41.2385 7.168H39.8945L35.7345 1.024L36.1825 0H59.6705L62.7425 4.48L59.5425 7.168H58.4545C57.6438 6.4 56.9185 5.90934 56.2785 5.696C55.6812 5.44 54.8705 5.312 53.8465 5.312H53.5265C52.8438 7.06133 52.5025 9.51467 52.5025 12.672V29.632C52.5025 31.4667 52.4385 32.9387 52.3105 34.048C52.2252 35.1147 52.1825 35.9467 52.1825 36.544C52.1825 37.2693 53.0998 38.0587 54.9345 38.912L54.1025 40.768ZM81.323 40.704C80.2563 40.2773 79.0403 39.744 77.675 39.104C76.3523 38.4213 75.2003 37.7813 74.219 37.184C73.2377 36.544 72.747 36.0747 72.747 35.776C72.747 35.3067 72.875 34.2613 73.131 32.64C73.4297 31.0187 73.579 29.0133 73.579 26.624V19.648C73.579 16.1067 73.6857 13.2267 73.899 11.008C74.1123 8.74667 74.4323 6.848 74.859 5.312H72.299L69.419 1.152L69.995 0H82.155C82.8803 1.49333 83.6057 3.328 84.331 5.504C85.099 7.63734 85.8243 9.94134 86.507 12.416C87.1897 14.848 87.787 17.1947 88.299 19.456C89.067 15.8293 90.091 12.352 91.371 9.024C92.651 5.65334 94.123 2.64533 95.787 0H101.675L105.323 5.12C105.024 6.10134 104.79 7.296 104.619 8.704C104.448 10.0693 104.363 11.8827 104.363 14.144V27.52C104.363 29.44 104.299 30.976 104.171 32.128C104.086 33.2373 103.979 34.112 103.851 34.752C103.723 35.392 103.659 35.9467 103.659 36.416C103.659 36.7147 103.915 37.0773 104.427 37.504C104.939 37.9307 105.622 38.4 106.475 38.912L105.643 40.704C104.576 40.2773 103.36 39.744 101.995 39.104C100.672 38.4213 99.5203 37.7813 98.539 37.184C97.5577 36.544 97.067 36.0747 97.067 35.776C97.067 35.1787 97.195 34.1973 97.451 32.832C97.7497 31.424 97.899 29.3547 97.899 26.624V16.896C97.899 14.848 97.9417 12.9493 98.027 11.2C98.155 9.408 98.347 7.82933 98.603 6.464C97.6643 8.59733 96.7683 11.072 95.915 13.888C95.0617 16.704 94.2723 19.6053 93.547 22.592C92.8643 25.5787 92.331 28.4373 91.947 31.168L90.859 31.808L85.739 28.992C85.4403 26.56 85.0137 24 84.459 21.312C83.9043 18.5813 83.2857 15.9573 82.603 13.44C81.9203 10.9227 81.2377 8.66133 80.555 6.656C80.427 7.97867 80.3203 9.49334 80.235 11.2C80.1497 12.9067 80.0857 14.6133 80.043 16.32C80.043 17.984 80.043 19.456 80.043 20.736V27.52C80.043 29.44 79.979 30.976 79.851 32.128C79.7657 33.2373 79.659 34.112 79.531 34.752C79.403 35.392 79.339 35.9467 79.339 36.416C79.339 36.7147 79.595 37.0773 80.107 37.504C80.619 37.9307 81.3017 38.4 82.155 38.912L81.323 40.704ZM130.637 39.616C129.272 39.616 127.843 39.552 126.349 39.424C124.856 39.2533 123.448 39.04 122.125 38.784C120.803 38.4853 119.736 38.1867 118.925 37.888C118.115 37.5467 117.709 37.2267 117.709 36.928C117.709 36.3733 117.795 35.5627 117.965 34.496C118.179 33.4293 118.371 31.9787 118.541 30.144C118.712 28.2667 118.797 25.8987 118.797 23.04V19.84C118.797 16.896 118.883 14.08 119.053 11.392C119.267 8.66133 119.565 6.63467 119.949 5.312H117.581L114.381 1.024L114.893 0H123.021L126.669 4.928C126.2 6.25067 125.837 8.17067 125.581 10.688C125.368 13.1627 125.261 16.1067 125.261 19.52V23.616C125.261 26.048 125.197 28.1173 125.069 29.824C124.984 31.488 124.877 32.8533 124.749 33.92C125.517 34.0053 126.413 34.048 127.437 34.048C128.589 34.048 129.72 34.0267 130.829 33.984C131.981 33.8987 133.219 33.7707 134.541 33.6L137.293 38.528L136.525 39.616H130.637Z"/>
</svg>
