<svg width="294" height="59" viewBox="0 0 294 59" fill="none" xmlns="http://www.w3.org/2000/svg">
<path d="M13.12 44.48C11.3707 44.48 9.70665 44.2027 8.12799 43.648C6.54932 43.0507 5.14132 42.304 3.90399 41.408C2.70932 40.512 1.74932 39.5733 1.02399 38.592C0.341321 37.6107 -1.26362e-05 36.7147 -1.26362e-05 35.904C-1.26362e-05 34.5387 0.042654 33.2587 0.127987 32.064C0.213321 30.8693 0.383987 29.5467 0.639987 28.096L6.97599 29.248C6.80532 30.4427 6.67732 31.6373 6.59199 32.832C6.50665 34.0267 6.46399 35.3707 6.46399 36.864C6.46399 37.6747 6.61332 38.2507 6.91199 38.592C7.25332 38.9333 7.80799 39.104 8.57599 39.104C10.3253 39.104 11.6267 38.656 12.48 37.76C13.376 36.864 13.824 35.0293 13.824 32.256C13.824 31.1893 13.8027 30.016 13.76 28.736C13.7173 27.456 13.696 25.7493 13.696 23.616V20.224C13.696 18.176 13.76 16.1707 13.888 14.208C14.0587 12.2453 14.3147 10.688 14.656 9.536H10.368L7.10399 5.312L7.55199 4.224H17.728L21.312 9.216C20.544 11.9467 20.16 15.7227 20.16 20.544V23.232C20.16 25.8773 20.1813 28.16 20.224 30.08C20.2667 32 20.288 33.7707 20.288 35.392C20.288 41.4507 17.8987 44.48 13.12 44.48ZM55.089 44.8C54.065 44.4587 53.1263 44.1173 52.273 43.776C51.4197 43.392 50.609 42.9867 49.841 42.56C49.2437 43.1573 48.5183 43.648 47.665 44.032C46.8543 44.3733 45.9157 44.544 44.849 44.544C44.1237 44.544 43.057 44.3093 41.649 43.84C40.2837 43.3707 38.8757 42.7733 37.425 42.048C35.9743 41.28 34.737 40.448 33.713 39.552C32.7317 38.6133 32.241 37.696 32.241 36.8C32.241 35.6907 32.241 34.7093 32.241 33.856C32.2837 32.96 32.305 32.4267 32.305 32.256C32.305 29.7387 32.945 27.968 34.225 26.944C35.5477 25.8773 37.3823 25.344 39.729 25.344C40.9237 25.344 42.2037 25.4293 43.569 25.6C44.9343 25.7707 46.0437 25.9627 46.897 26.176C46.9397 24.9813 46.961 23.8507 46.961 22.784C47.0037 21.6747 47.025 20.8427 47.025 20.288C47.025 19.8187 46.897 19.4773 46.641 19.264C46.385 19.0507 45.9157 18.944 45.233 18.944C43.569 18.944 42.161 19.072 41.009 19.328C39.857 19.584 38.769 20.0107 37.745 20.608H36.529L32.369 14.528L32.881 13.504H43.569C44.4223 13.504 45.3823 13.8453 46.449 14.528C47.5583 15.168 48.6463 15.9787 49.713 16.96C50.7797 17.9413 51.6543 18.944 52.337 19.968C53.0197 20.992 53.361 21.888 53.361 22.656C53.361 24.064 53.3183 25.728 53.233 27.648C53.1477 29.568 53.0623 31.5307 52.977 33.536C52.8917 35.4987 52.849 37.2907 52.849 38.912C52.849 40.192 53.0623 41.088 53.489 41.6C53.9157 42.0693 54.7263 42.5387 55.921 43.008L55.089 44.8ZM38.577 36.8C38.577 37.8667 38.769 38.5493 39.153 38.848C39.537 39.104 40.0063 39.232 40.561 39.232C42.3103 39.232 43.761 38.784 44.913 37.888C46.1077 36.9493 46.705 35.4987 46.705 33.536C46.705 33.152 46.705 32.6827 46.705 32.128C46.7477 31.5733 46.769 30.9547 46.769 30.272C46.2997 30.144 45.7237 30.0587 45.041 30.016C44.3583 29.9733 43.7397 29.952 43.185 29.952C41.649 29.952 40.497 30.2933 39.729 30.976C38.961 31.6587 38.577 32.8533 38.577 34.56V36.8ZM77.3025 45.248C76.8332 45.248 76.1505 44.9493 75.2545 44.352C74.4012 43.712 73.5052 42.944 72.5665 42.048C71.6278 41.152 70.7958 40.32 70.0705 39.552C69.3878 38.7413 69.0038 38.144 68.9185 37.76C67.9798 33.9627 67.2118 30.9333 66.6145 28.672C66.0172 26.368 65.5692 24.5973 65.2705 23.36C65.0145 22.08 64.8865 21.0987 64.8865 20.416C64.8865 19.904 64.9505 19.4133 65.0785 18.944H63.6065L60.4705 14.528L60.9825 13.504H69.1105L72.0545 17.792V18.624C71.1158 18.7947 70.4758 19.1573 70.1345 19.712C69.7932 20.2667 69.6225 20.9707 69.6225 21.824C69.6225 22.2933 69.7292 23.0613 69.9425 24.128C70.1558 25.152 70.5612 26.7947 71.1585 29.056C71.7558 31.2747 72.6305 34.3893 73.7825 38.4C74.3798 36.864 74.9772 35.3067 75.5745 33.728C76.1718 32.1067 76.8758 30.144 77.6865 27.84C78.4972 25.4933 79.5212 22.528 80.7585 18.944H77.9425L74.9985 14.528L75.4465 13.504H83.4465L87.3505 18.88C85.5585 24.2133 84.0652 28.608 82.8705 32.064C81.6758 35.4773 80.7158 38.144 79.9905 40.064C79.2652 41.984 78.6892 43.328 78.2625 44.096C77.8785 44.864 77.5585 45.248 77.3025 45.248ZM119.576 44.8C118.552 44.4587 117.614 44.1173 116.76 43.776C115.907 43.392 115.096 42.9867 114.328 42.56C113.731 43.1573 113.006 43.648 112.152 44.032C111.342 44.3733 110.403 44.544 109.336 44.544C108.611 44.544 107.544 44.3093 106.136 43.84C104.771 43.3707 103.363 42.7733 101.912 42.048C100.462 41.28 99.2245 40.448 98.2005 39.552C97.2192 38.6133 96.7285 37.696 96.7285 36.8C96.7285 35.6907 96.7285 34.7093 96.7285 33.856C96.7712 32.96 96.7925 32.4267 96.7925 32.256C96.7925 29.7387 97.4325 27.968 98.7125 26.944C100.035 25.8773 101.87 25.344 104.216 25.344C105.411 25.344 106.691 25.4293 108.056 25.6C109.422 25.7707 110.531 25.9627 111.384 26.176C111.427 24.9813 111.448 23.8507 111.448 22.784C111.491 21.6747 111.512 20.8427 111.512 20.288C111.512 19.8187 111.384 19.4773 111.128 19.264C110.872 19.0507 110.403 18.944 109.72 18.944C108.056 18.944 106.648 19.072 105.496 19.328C104.344 19.584 103.256 20.0107 102.232 20.608H101.016L96.8565 14.528L97.3685 13.504H108.056C108.91 13.504 109.87 13.8453 110.936 14.528C112.046 15.168 113.134 15.9787 114.2 16.96C115.267 17.9413 116.142 18.944 116.824 19.968C117.507 20.992 117.848 21.888 117.848 22.656C117.848 24.064 117.806 25.728 117.72 27.648C117.635 29.568 117.55 31.5307 117.464 33.536C117.379 35.4987 117.336 37.2907 117.336 38.912C117.336 40.192 117.55 41.088 117.976 41.6C118.403 42.0693 119.214 42.5387 120.408 43.008L119.576 44.8ZM103.064 36.8C103.064 37.8667 103.256 38.5493 103.64 38.848C104.024 39.104 104.494 39.232 105.048 39.232C106.798 39.232 108.248 38.784 109.4 37.888C110.595 36.9493 111.192 35.4987 111.192 33.536C111.192 33.152 111.192 32.6827 111.192 32.128C111.235 31.5733 111.256 30.9547 111.256 30.272C110.787 30.144 110.211 30.0587 109.528 30.016C108.846 29.9733 108.227 29.952 107.672 29.952C106.136 29.952 104.984 30.2933 104.216 30.976C103.448 31.6587 103.064 32.8533 103.064 34.56V36.8ZM141.854 44.608C138.398 44.608 135.603 43.456 133.47 41.152C131.337 38.848 129.758 35.3707 128.734 30.72L130.91 30.144C131.891 32.4907 132.979 34.24 134.174 35.392C135.411 36.5013 137.011 37.056 138.974 37.056C140.595 37.056 142.046 36.6933 143.326 35.968C144.606 35.2427 145.609 34.2613 146.334 33.024C147.102 31.744 147.486 30.336 147.486 28.8C147.486 27.1787 147.017 26.368 146.078 26.368C145.353 26.368 144.457 26.496 143.39 26.752C142.366 27.008 141.342 27.264 140.318 27.52C139.294 27.776 138.462 27.904 137.822 27.904C136.969 27.904 136.073 27.4987 135.134 26.688C134.195 25.8347 133.321 24.7253 132.51 23.36C131.699 21.952 131.038 20.4587 130.526 18.88C130.057 17.2587 129.822 15.68 129.822 14.144C129.822 10.7307 130.739 8.14934 132.574 6.4C134.451 4.608 136.99 3.712 140.19 3.712C145.651 3.712 149.321 7.232 151.198 14.272L149.022 14.848C148.339 13.3973 147.401 12.352 146.206 11.712C145.011 11.072 143.667 10.752 142.174 10.752C139.827 10.752 137.993 11.392 136.67 12.672C135.39 13.952 134.75 15.808 134.75 18.24C134.75 19.0507 134.878 19.6267 135.134 19.968C135.433 20.3093 135.753 20.48 136.094 20.48C136.947 20.48 137.929 20.3093 139.038 19.968C140.19 19.6267 141.299 19.3067 142.366 19.008C143.475 18.6667 144.371 18.496 145.054 18.496C145.95 18.496 146.91 19.1147 147.934 20.352C148.958 21.5467 149.833 23.168 150.558 25.216C151.326 27.264 151.71 29.5253 151.71 32C151.71 35.968 150.921 39.0613 149.342 41.28C147.763 43.4987 145.267 44.608 141.854 44.608ZM178.412 35.2L183.788 38.656C182.935 40.6613 181.698 42.1973 180.076 43.264C178.498 44.3307 176.706 44.864 174.7 44.864C173.42 44.864 172.055 44.5867 170.604 44.032C169.154 43.4347 167.788 42.688 166.508 41.792C165.228 40.896 164.162 39.9573 163.308 38.976C162.498 37.9947 162.092 37.0773 162.092 36.224C162.092 35.6693 162.092 34.816 162.092 33.664C162.135 32.512 162.156 31.3173 162.156 30.08C162.199 28.8 162.22 27.7333 162.22 26.88V21.632C162.22 18.816 163.074 16.6827 164.78 15.232C166.487 13.7387 168.77 12.992 171.628 12.992C172.524 12.992 173.57 13.2693 174.764 13.824C175.959 14.336 177.132 15.04 178.284 15.936C179.436 16.7893 180.396 17.7493 181.164 18.816C181.932 19.84 182.316 20.864 182.316 21.888C182.316 22.9973 182.274 23.9787 182.188 24.832C182.103 25.6427 181.996 26.3893 181.868 27.072L175.276 25.792C175.618 23.744 175.788 21.952 175.788 20.416C175.788 19.6907 175.639 19.2 175.34 18.944C175.084 18.688 174.658 18.56 174.06 18.56C170.391 18.56 168.556 20.3947 168.556 24.064V29.184C168.556 31.9147 168.514 33.92 168.428 35.2C168.386 36.4373 168.364 37.4187 168.364 38.144C168.364 38.6133 168.578 38.976 169.004 39.232C169.431 39.488 169.964 39.616 170.604 39.616C172.183 39.616 173.527 39.296 174.636 38.656C175.746 37.9733 176.748 36.8853 177.644 35.392L178.412 35.2ZM205.081 45.696C201.412 44.5013 198.766 43.4773 197.145 42.624C195.524 41.728 194.713 41.088 194.713 40.704C194.713 40.2347 194.777 39.424 194.905 38.272C195.076 37.12 195.161 35.328 195.161 32.896V24.96C195.161 24.1067 195.204 23.104 195.289 21.952C195.374 20.7573 195.502 19.7547 195.673 18.944H193.305L189.977 14.528L190.425 13.504H196.441C196.654 13.504 197.06 13.824 197.657 14.464C198.297 15.104 198.916 15.8293 199.513 16.64C200.324 15.4027 201.369 14.5493 202.649 14.08C203.972 13.568 205.166 13.3547 206.233 13.44L209.433 17.664L209.049 18.624C206.788 18.624 204.953 19.3493 203.545 20.8C202.18 22.208 201.497 24.64 201.497 28.096V33.792C201.497 35.9253 201.433 37.5893 201.305 38.784C201.22 39.936 201.177 40.704 201.177 41.088C201.177 41.344 201.262 41.5787 201.433 41.792C201.604 41.9627 202.009 42.176 202.649 42.432C203.332 42.688 204.398 43.1147 205.849 43.712L205.081 45.696ZM224.066 9.216L219.842 4.672V4.032C220.994 2.496 222.551 1.152 224.514 0L228.738 4.416L228.674 5.184C227.821 5.78134 227.01 6.44267 226.242 7.168C225.517 7.89333 224.791 8.576 224.066 9.216ZM229.762 45.248C227.031 44.224 224.919 43.3067 223.426 42.496C221.975 41.6427 221.25 40.8747 221.25 40.192C221.25 39.5947 221.314 38.6773 221.442 37.44C221.613 36.16 221.698 34.9227 221.698 33.728V24.576C221.698 23.4667 221.741 22.4427 221.826 21.504C221.954 20.5227 222.146 19.6693 222.402 18.944H220.29L216.898 14.592L217.346 13.504H225.538L229.25 18.496C228.738 19.1787 228.397 20.032 228.226 21.056C228.098 22.08 228.034 23.3813 228.034 24.96V34.432C228.034 35.968 227.97 37.3333 227.842 38.528C227.714 39.68 227.65 40.5547 227.65 41.152C227.65 41.5787 227.799 41.92 228.098 42.176C228.439 42.3893 229.25 42.8373 230.53 43.52L229.762 45.248ZM256.21 44.544C254.802 44.544 253.48 44.352 252.242 43.968C251.048 43.584 250.002 43.136 249.106 42.624V47.616C249.106 49.152 249.042 50.496 248.914 51.648C248.786 52.8427 248.722 53.7387 248.722 54.336C248.722 54.7627 248.872 55.0827 249.17 55.296C249.512 55.552 250.322 56.0213 251.602 56.704L250.834 58.432C248.104 57.408 245.992 56.4693 244.498 55.616C243.048 54.8053 242.322 54.0587 242.322 53.376C242.322 52.7787 242.386 51.84 242.514 50.56C242.685 49.3227 242.77 48.1067 242.77 46.912V25.536C242.77 24.7253 242.792 23.6587 242.834 22.336C242.92 21.0133 243.069 19.8827 243.282 18.944H240.914L237.586 14.528L238.034 13.504H244.05C244.221 13.504 244.584 13.8027 245.138 14.4C245.693 14.9547 246.269 15.5947 246.866 16.32C247.506 15.3387 248.424 14.5493 249.618 13.952C250.856 13.3547 252.178 13.056 253.586 13.056H254.802C255.741 13.056 256.765 13.44 257.874 14.208C258.984 14.9333 260.029 15.8507 261.01 16.96C261.992 18.0267 262.802 19.0933 263.442 20.16C264.082 21.2267 264.402 22.1013 264.402 22.784C264.402 23.9787 264.381 25.664 264.338 27.84C264.296 29.9733 264.274 32.512 264.274 35.456C264.274 38.2293 263.549 40.448 262.098 42.112C260.648 43.7333 258.685 44.544 256.21 44.544ZM256.338 19.008C254.205 19.008 252.498 19.328 251.218 19.968C249.938 20.5653 249.234 21.8027 249.106 23.68C249.106 24.1493 249.106 24.5547 249.106 24.896V38.976C249.874 39.1467 250.685 39.232 251.538 39.232C253.842 39.232 255.485 38.6987 256.466 37.632C257.448 36.5653 257.938 35.072 257.938 33.152C257.938 31.7867 257.96 30.3573 258.002 28.864C258.045 27.3707 258.066 25.9627 258.066 24.64C258.109 23.3173 258.13 22.2293 258.13 21.376C258.13 20.7787 258.045 20.2453 257.874 19.776C257.704 19.264 257.192 19.008 256.338 19.008ZM286.958 44.608C286.318 44.608 285.443 44.3733 284.334 43.904C283.225 43.392 282.094 42.752 280.942 41.984C279.79 41.1733 278.809 40.3413 277.998 39.488C277.187 38.592 276.782 37.7387 276.782 36.928C276.782 36.4587 276.803 35.968 276.846 35.456C276.889 34.944 276.953 34.2827 277.038 33.472C277.123 32.6187 277.187 31.488 277.23 30.08C277.273 28.672 277.294 26.8373 277.294 24.576C277.294 23.7227 277.294 22.8267 277.294 21.888C277.294 20.9493 277.273 19.968 277.23 18.944H276.078L272.814 14.656L273.262 13.632C275.523 13.376 276.953 12.6933 277.55 11.584C278.147 10.4747 278.446 8.78933 278.446 6.528L279.534 6.144L283.438 9.088C283.438 9.856 283.438 10.6027 283.438 11.328C283.438 12.0533 283.438 12.7787 283.438 13.504H288.878L292.078 17.984L291.63 18.944H283.502C283.502 20.48 283.502 21.952 283.502 23.36C283.502 24.768 283.502 26.112 283.502 27.392C283.502 29.8667 283.459 31.7653 283.374 33.088C283.331 34.4107 283.267 35.392 283.182 36.032C283.097 36.672 283.054 37.2693 283.054 37.824C283.054 38.6773 283.502 39.104 284.398 39.104C285.166 39.104 285.998 38.912 286.894 38.528C287.79 38.1013 288.622 37.5893 289.39 36.992H290.286L293.294 41.984C292.697 42.7093 291.758 43.328 290.478 43.84C289.198 44.352 288.025 44.608 286.958 44.608Z"/>
</svg>
