<svg width="121" height="42" viewBox="0 0 121 42" fill="none" xmlns="http://www.w3.org/2000/svg">
<path d="M13.12 40.256C11.3707 40.256 9.70665 39.9787 8.12799 39.424C6.54932 38.8267 5.14132 38.08 3.90399 37.184C2.70932 36.288 1.74932 35.3493 1.02399 34.368C0.341321 33.3867 -1.26362e-05 32.4907 -1.26362e-05 31.68C-1.26362e-05 30.3147 0.042654 29.0347 0.127987 27.84C0.213321 26.6453 0.383987 25.3227 0.639987 23.872L6.97599 25.024C6.80532 26.2187 6.67732 27.4133 6.59199 28.608C6.50665 29.8027 6.46399 31.1467 6.46399 32.64C6.46399 33.4507 6.61332 34.0267 6.91199 34.368C7.25332 34.7093 7.80799 34.88 8.57599 34.88C10.3253 34.88 11.6267 34.432 12.48 33.536C13.376 32.64 13.824 30.8053 13.824 28.032C13.824 26.9653 13.8027 25.792 13.76 24.512C13.7173 23.232 13.696 21.5253 13.696 19.392V16C13.696 13.952 13.76 11.9467 13.888 9.984C14.0587 8.02133 14.3147 6.46399 14.656 5.31199H10.368L7.10399 1.08799L7.55199 -7.62939e-06H17.728L21.312 4.99199C20.544 7.72266 20.16 11.4987 20.16 16.32V19.008C20.16 21.6533 20.1813 23.936 20.224 25.856C20.2667 27.776 20.288 29.5467 20.288 31.168C20.288 37.2267 17.8987 40.256 13.12 40.256ZM55.089 40.576C54.065 40.2347 53.1263 39.8933 52.273 39.552C51.4197 39.168 50.609 38.7627 49.841 38.336C49.2437 38.9333 48.5183 39.424 47.665 39.808C46.8543 40.1493 45.9157 40.32 44.849 40.32C44.1237 40.32 43.057 40.0853 41.649 39.616C40.2837 39.1467 38.8757 38.5493 37.425 37.824C35.9743 37.056 34.737 36.224 33.713 35.328C32.7317 34.3893 32.241 33.472 32.241 32.576C32.241 31.4667 32.241 30.4853 32.241 29.632C32.2837 28.736 32.305 28.2027 32.305 28.032C32.305 25.5147 32.945 23.744 34.225 22.72C35.5477 21.6533 37.3823 21.12 39.729 21.12C40.9237 21.12 42.2037 21.2053 43.569 21.376C44.9343 21.5467 46.0437 21.7387 46.897 21.952C46.9397 20.7573 46.961 19.6267 46.961 18.56C47.0037 17.4507 47.025 16.6187 47.025 16.064C47.025 15.5947 46.897 15.2533 46.641 15.04C46.385 14.8267 45.9157 14.72 45.233 14.72C43.569 14.72 42.161 14.848 41.009 15.104C39.857 15.36 38.769 15.7867 37.745 16.384H36.529L32.369 10.304L32.881 9.27999H43.569C44.4223 9.27999 45.3823 9.62133 46.449 10.304C47.5583 10.944 48.6463 11.7547 49.713 12.736C50.7797 13.7173 51.6543 14.72 52.337 15.744C53.0197 16.768 53.361 17.664 53.361 18.432C53.361 19.84 53.3183 21.504 53.233 23.424C53.1477 25.344 53.0623 27.3067 52.977 29.312C52.8917 31.2747 52.849 33.0667 52.849 34.688C52.849 35.968 53.0623 36.864 53.489 37.376C53.9157 37.8453 54.7263 38.3147 55.921 38.784L55.089 40.576ZM38.577 32.576C38.577 33.6427 38.769 34.3253 39.153 34.624C39.537 34.88 40.0063 35.008 40.561 35.008C42.3103 35.008 43.761 34.56 44.913 33.664C46.1077 32.7253 46.705 31.2747 46.705 29.312C46.705 28.928 46.705 28.4587 46.705 27.904C46.7477 27.3493 46.769 26.7307 46.769 26.048C46.2997 25.92 45.7237 25.8347 45.041 25.792C44.3583 25.7493 43.7397 25.728 43.185 25.728C41.649 25.728 40.497 26.0693 39.729 26.752C38.961 27.4347 38.577 28.6293 38.577 30.336V32.576ZM77.3025 41.024C76.8332 41.024 76.1505 40.7253 75.2545 40.128C74.4012 39.488 73.5052 38.72 72.5665 37.824C71.6278 36.928 70.7958 36.096 70.0705 35.328C69.3878 34.5173 69.0038 33.92 68.9185 33.536C67.9798 29.7387 67.2118 26.7093 66.6145 24.448C66.0172 22.144 65.5692 20.3733 65.2705 19.136C65.0145 17.856 64.8865 16.8747 64.8865 16.192C64.8865 15.68 64.9505 15.1893 65.0785 14.72H63.6065L60.4705 10.304L60.9825 9.27999H69.1105L72.0545 13.568V14.4C71.1158 14.5707 70.4758 14.9333 70.1345 15.488C69.7932 16.0427 69.6225 16.7467 69.6225 17.6C69.6225 18.0693 69.7292 18.8373 69.9425 19.904C70.1558 20.928 70.5612 22.5707 71.1585 24.832C71.7558 27.0507 72.6305 30.1653 73.7825 34.176C74.3798 32.64 74.9772 31.0827 75.5745 29.504C76.1718 27.8827 76.8758 25.92 77.6865 23.616C78.4972 21.2693 79.5212 18.304 80.7585 14.72H77.9425L74.9985 10.304L75.4465 9.27999H83.4465L87.3505 14.656C85.5585 19.9893 84.0652 24.384 82.8705 27.84C81.6758 31.2533 80.7158 33.92 79.9905 35.84C79.2652 37.76 78.6892 39.104 78.2625 39.872C77.8785 40.64 77.5585 41.024 77.3025 41.024ZM119.576 40.576C118.552 40.2347 117.614 39.8933 116.76 39.552C115.907 39.168 115.096 38.7627 114.328 38.336C113.731 38.9333 113.006 39.424 112.152 39.808C111.342 40.1493 110.403 40.32 109.336 40.32C108.611 40.32 107.544 40.0853 106.136 39.616C104.771 39.1467 103.363 38.5493 101.912 37.824C100.462 37.056 99.2245 36.224 98.2005 35.328C97.2192 34.3893 96.7285 33.472 96.7285 32.576C96.7285 31.4667 96.7285 30.4853 96.7285 29.632C96.7712 28.736 96.7925 28.2027 96.7925 28.032C96.7925 25.5147 97.4325 23.744 98.7125 22.72C100.035 21.6533 101.87 21.12 104.216 21.12C105.411 21.12 106.691 21.2053 108.056 21.376C109.422 21.5467 110.531 21.7387 111.384 21.952C111.427 20.7573 111.448 19.6267 111.448 18.56C111.491 17.4507 111.512 16.6187 111.512 16.064C111.512 15.5947 111.384 15.2533 111.128 15.04C110.872 14.8267 110.403 14.72 109.72 14.72C108.056 14.72 106.648 14.848 105.496 15.104C104.344 15.36 103.256 15.7867 102.232 16.384H101.016L96.8565 10.304L97.3685 9.27999H108.056C108.91 9.27999 109.87 9.62133 110.936 10.304C112.046 10.944 113.134 11.7547 114.2 12.736C115.267 13.7173 116.142 14.72 116.824 15.744C117.507 16.768 117.848 17.664 117.848 18.432C117.848 19.84 117.806 21.504 117.72 23.424C117.635 25.344 117.55 27.3067 117.464 29.312C117.379 31.2747 117.336 33.0667 117.336 34.688C117.336 35.968 117.55 36.864 117.976 37.376C118.403 37.8453 119.214 38.3147 120.408 38.784L119.576 40.576ZM103.064 32.576C103.064 33.6427 103.256 34.3253 103.64 34.624C104.024 34.88 104.494 35.008 105.048 35.008C106.798 35.008 108.248 34.56 109.4 33.664C110.595 32.7253 111.192 31.2747 111.192 29.312C111.192 28.928 111.192 28.4587 111.192 27.904C111.235 27.3493 111.256 26.7307 111.256 26.048C110.787 25.92 110.211 25.8347 109.528 25.792C108.846 25.7493 108.227 25.728 107.672 25.728C106.136 25.728 104.984 26.0693 104.216 26.752C103.448 27.4347 103.064 28.6293 103.064 30.336V32.576Z"/>
</svg>
