<svg width="402" height="54" viewBox="0 0 402 54" fill="none" xmlns="http://www.w3.org/2000/svg">
<path d="M16.256 39.616C14.8907 39.616 13.4613 39.552 11.968 39.424C10.4747 39.2533 9.06667 39.04 7.74401 38.784C6.42134 38.4853 5.35467 38.1867 4.544 37.888C3.73334 37.5467 3.328 37.2267 3.328 36.928C3.328 36.3733 3.41334 35.5627 3.584 34.496C3.79734 33.4293 3.98934 31.9787 4.16 30.144C4.33067 28.2667 4.416 25.8987 4.416 23.04V19.84C4.416 16.896 4.50134 14.08 4.672 11.392C4.88534 8.66133 5.184 6.63467 5.56801 5.312H3.2L4.64171e-06 1.024L0.512005 0H8.64001L12.288 4.928C11.8187 6.25067 11.456 8.17067 11.2 10.688C10.9867 13.1627 10.88 16.1067 10.88 19.52V23.616C10.88 26.048 10.816 28.1173 10.688 29.824C10.6027 31.488 10.496 32.8533 10.368 33.92C11.136 34.0053 12.032 34.048 13.056 34.048C14.208 34.048 15.3387 34.0267 16.448 33.984C17.6 33.8987 18.8373 33.7707 20.16 33.6L22.912 38.528L22.144 39.616H16.256ZM52.6755 40.576C51.6515 40.2347 50.7128 39.8933 49.8595 39.552C49.0062 39.168 48.1955 38.7627 47.4275 38.336C46.8302 38.9333 46.1048 39.424 45.2515 39.808C44.4408 40.1493 43.5022 40.32 42.4355 40.32C41.7102 40.32 40.6435 40.0853 39.2355 39.616C37.8702 39.1467 36.4622 38.5493 35.0115 37.824C33.5608 37.056 32.3235 36.224 31.2995 35.328C30.3182 34.3893 29.8275 33.472 29.8275 32.576C29.8275 31.4667 29.8275 30.4853 29.8275 29.632C29.8702 28.736 29.8915 28.2027 29.8915 28.032C29.8915 25.5147 30.5315 23.744 31.8115 22.72C33.1342 21.6533 34.9688 21.12 37.3155 21.12C38.5102 21.12 39.7902 21.2053 41.1555 21.376C42.5208 21.5467 43.6302 21.7387 44.4835 21.952C44.5262 20.7573 44.5475 19.6267 44.5475 18.56C44.5902 17.4507 44.6115 16.6187 44.6115 16.064C44.6115 15.5947 44.4835 15.2533 44.2275 15.04C43.9715 14.8267 43.5022 14.72 42.8195 14.72C41.1555 14.72 39.7475 14.848 38.5955 15.104C37.4435 15.36 36.3555 15.7867 35.3315 16.384H34.1155L29.9555 10.304L30.4675 9.28H41.1555C42.0088 9.28 42.9688 9.62134 44.0355 10.304C45.1448 10.944 46.2328 11.7547 47.2995 12.736C48.3662 13.7173 49.2408 14.72 49.9235 15.744C50.6062 16.768 50.9475 17.664 50.9475 18.432C50.9475 19.84 50.9048 21.504 50.8195 23.424C50.7342 25.344 50.6488 27.3067 50.5635 29.312C50.4782 31.2747 50.4355 33.0667 50.4355 34.688C50.4355 35.968 50.6488 36.864 51.0755 37.376C51.5022 37.8453 52.3128 38.3147 53.5075 38.784L52.6755 40.576ZM36.1635 32.576C36.1635 33.6427 36.3555 34.3253 36.7395 34.624C37.1235 34.88 37.5928 35.008 38.1475 35.008C39.8968 35.008 41.3475 34.56 42.4995 33.664C43.6942 32.7253 44.2915 31.2747 44.2915 29.312C44.2915 28.928 44.2915 28.4587 44.2915 27.904C44.3342 27.3493 44.3555 26.7307 44.3555 26.048C43.8862 25.92 43.3102 25.8347 42.6275 25.792C41.9448 25.7493 41.3262 25.728 40.7715 25.728C39.2355 25.728 38.0835 26.0693 37.3155 26.752C36.5475 27.4347 36.1635 28.6293 36.1635 30.336V32.576ZM73.481 40.704C70.2383 40.704 67.6997 39.6587 65.865 37.568C64.0303 35.4347 62.7503 32.5547 62.025 28.928L64.073 28.352C64.8837 30.4 65.801 31.8507 66.825 32.704C67.8917 33.5573 69.321 33.984 71.113 33.984C73.161 33.984 74.889 33.408 76.297 32.256C77.7477 31.104 78.473 29.696 78.473 28.032C78.473 27.0933 78.1317 26.624 77.449 26.624C76.8943 26.624 76.0837 26.752 75.017 27.008C73.993 27.264 72.969 27.5413 71.945 27.84C70.921 28.096 70.153 28.224 69.641 28.224C68.873 28.224 68.0837 27.8613 67.273 27.136C66.505 26.4107 65.7797 25.4933 65.097 24.384C64.4143 23.232 63.8597 22.0373 63.433 20.8C63.0063 19.5627 62.793 18.4107 62.793 17.344C62.793 14.8267 63.5823 12.7147 65.161 11.008C66.7823 9.30134 69.0863 8.448 72.073 8.448C74.633 8.448 76.7237 9.13067 78.345 10.496C79.9663 11.8613 81.2037 13.952 82.057 16.768L79.817 17.536C78.665 15.7013 76.9157 14.784 74.569 14.784C72.521 14.784 70.793 15.3173 69.385 16.384C67.977 17.4507 67.273 18.7947 67.273 20.416C67.273 21.2693 67.6783 21.696 68.489 21.696C69.129 21.696 69.961 21.568 70.985 21.312C72.009 21.0133 73.033 20.736 74.057 20.48C75.081 20.224 75.913 20.096 76.553 20.096C77.5343 20.096 78.4943 20.6507 79.433 21.76C80.3717 22.8693 81.1397 24.2773 81.737 25.984C82.3343 27.6907 82.633 29.44 82.633 31.232C82.633 34.0907 81.8437 36.3947 80.265 38.144C78.6863 39.8507 76.425 40.704 73.481 40.704ZM106.318 40.448C105.294 40.448 104.035 40.192 102.542 39.68C101.048 39.1253 99.5548 38.4213 98.0615 37.568C96.6108 36.672 95.3948 35.712 94.4135 34.688C93.4322 33.6213 92.9415 32.576 92.9415 31.552C92.9415 30.528 93.0055 28.7573 93.1335 26.24C93.3042 23.7227 93.3895 20.7147 93.3895 17.216C93.3895 11.6693 96.4188 8.896 102.478 8.896C103.416 8.896 104.504 9.19467 105.742 9.792C106.979 10.3467 108.174 11.0933 109.326 12.032C110.478 12.928 111.438 13.8667 112.206 14.848C112.974 15.8293 113.358 16.7467 113.358 17.6V22.848C113.358 26.304 111.438 28.032 107.598 28.032C106.403 28.032 105.038 27.968 103.502 27.84C101.966 27.6693 100.6 27.4773 99.4055 27.264C99.3628 28.672 99.3202 29.952 99.2775 31.104C99.2775 32.2133 99.2775 32.8533 99.2775 33.024C99.2775 33.7067 99.4482 34.1973 99.7895 34.496C100.131 34.7947 100.75 34.944 101.646 34.944C102.968 34.944 104.398 34.752 105.934 34.368C107.512 33.9413 108.92 33.3227 110.158 32.512H111.118L114.574 37.76C113.763 38.528 112.547 39.168 110.926 39.68C109.347 40.192 107.811 40.448 106.318 40.448ZM99.5975 19.264C99.5975 19.6053 99.5762 20.1173 99.5335 20.8C99.5335 21.4827 99.5335 22.2507 99.5335 23.104C100.771 23.232 102.2 23.296 103.822 23.296C105.059 23.296 105.912 22.9973 106.382 22.4C106.894 21.76 107.15 20.8 107.15 19.52V16.064C107.15 15.5947 107.022 15.1893 106.766 14.848C106.51 14.5067 105.955 14.336 105.102 14.336C103.395 14.336 102.051 14.6987 101.07 15.424C100.088 16.1067 99.5975 17.3867 99.5975 19.264ZM136.305 41.472C132.636 40.2773 129.99 39.2533 128.369 38.4C126.748 37.504 125.937 36.864 125.937 36.48C125.937 36.0107 126.001 35.2 126.129 34.048C126.3 32.896 126.385 31.104 126.385 28.672V20.736C126.385 19.8827 126.428 18.88 126.513 17.728C126.598 16.5333 126.726 15.5307 126.897 14.72H124.529L121.201 10.304L121.649 9.28H127.665C127.878 9.28 128.262 9.6 128.817 10.24C129.414 10.8373 130.012 11.4987 130.609 12.224C131.292 11.1147 132.23 10.304 133.425 9.792C134.662 9.28 135.964 9.024 137.329 9.024C138.012 9.024 138.524 9.06667 138.865 9.152L142.065 13.632L141.553 14.4C138.566 14.3573 136.348 14.9333 134.897 16.128C133.446 17.3227 132.721 19.52 132.721 22.72V29.568C132.721 31.7013 132.657 33.3653 132.529 34.56C132.444 35.712 132.401 36.48 132.401 36.864C132.401 37.12 132.486 37.3547 132.657 37.568C132.828 37.7387 133.233 37.952 133.873 38.208C134.556 38.464 135.622 38.8907 137.073 39.488L136.305 41.472ZM180.137 39.616C175.06 39.616 171.326 39.2747 168.937 38.592C166.548 37.8667 165.353 37.312 165.353 36.928C165.353 36.0747 165.502 34.4747 165.801 32.128C166.142 29.7813 166.313 26.8373 166.313 23.296V15.168C166.356 12.6933 166.484 10.6667 166.697 9.088C166.91 7.46667 167.145 6.208 167.401 5.312H165.225L162.025 1.024L162.537 0H183.273L186.857 4.608L183.721 7.36H182.377C181.908 6.592 181.353 6.05867 180.713 5.76C180.116 5.46133 179.241 5.312 178.089 5.312H174.057C173.758 6.464 173.46 7.91467 173.161 9.664C172.905 11.4133 172.777 13.4827 172.777 15.872V16.768H181.353L184.233 21.376L183.401 22.336H172.777V24.896C172.777 26.7307 172.734 28.3093 172.649 29.632C172.606 30.912 172.5 32.2133 172.329 33.536C173.012 33.664 173.844 33.7707 174.825 33.856C175.806 33.8987 176.894 33.92 178.089 33.92C179.241 33.92 180.35 33.8773 181.417 33.792C182.526 33.7067 183.55 33.6 184.489 33.472L187.433 38.528L186.665 39.616H180.137ZM205.896 40.896C203.165 39.872 201.053 38.9547 199.56 38.144C198.109 37.2907 197.384 36.5227 197.384 35.84C197.384 35.2427 197.448 34.3253 197.576 33.088C197.747 31.808 197.832 30.5707 197.832 29.376V21.184C197.832 20.3307 197.853 19.264 197.896 17.984C197.981 16.704 198.131 15.616 198.344 14.72H195.976L192.648 10.304L193.096 9.28H199.112C199.283 9.28 199.645 9.57867 200.2 10.176C200.797 10.7307 201.395 11.3707 201.992 12.096C202.803 10.9867 203.805 10.176 205 9.664C206.237 9.10933 207.432 8.832 208.584 8.832H209.928C210.781 8.832 211.72 9.17333 212.744 9.856C213.811 10.5387 214.835 11.3707 215.816 12.352C216.84 13.3333 217.672 14.3147 218.312 15.296C218.952 16.2347 219.272 17.0027 219.272 17.6C219.272 18.6667 219.229 19.9893 219.144 21.568C219.059 23.1467 219.016 24.4267 219.016 25.408V30.08C219.016 31.616 218.952 32.9813 218.824 34.176C218.696 35.328 218.632 36.2027 218.632 36.8C218.632 37.2267 218.781 37.568 219.08 37.824C219.421 38.0373 220.232 38.4853 221.512 39.168L220.744 40.896C218.013 39.872 215.901 38.9547 214.408 38.144C212.957 37.2907 212.232 36.5227 212.232 35.84C212.232 35.2427 212.296 34.3253 212.424 33.088C212.595 31.808 212.68 30.5707 212.68 29.376V26.048C212.68 24.6827 212.723 23.1253 212.808 21.376C212.893 19.6267 212.936 18.0907 212.936 16.768C212.936 15.9147 212.829 15.3387 212.616 15.04C212.403 14.7413 211.933 14.592 211.208 14.592C208.819 14.592 207.048 15.2107 205.896 16.448C204.744 17.6427 204.168 19.3067 204.168 21.44V30.08C204.168 31.616 204.104 32.9813 203.976 34.176C203.848 35.328 203.784 36.2027 203.784 36.8C203.784 37.2267 203.933 37.568 204.232 37.824C204.573 38.0373 205.384 38.4853 206.664 39.168L205.896 40.896ZM242.325 53.184C239.039 53.184 236.394 52.2667 234.389 50.432C232.383 48.5973 230.805 45.568 229.653 41.344L231.765 40.704C232.533 42.6667 233.514 44.16 234.709 45.184C235.903 46.208 237.61 46.72 239.829 46.72C241.535 46.72 243.093 46.5067 244.501 46.08C245.909 45.6533 247.039 45.056 247.893 44.288C248.746 43.5627 249.173 42.7733 249.173 41.92C249.173 41.152 248.81 40.768 248.085 40.768C247.445 40.768 246.655 40.8747 245.717 41.088C244.778 41.3013 243.818 41.5147 242.837 41.728C241.855 41.984 240.938 42.112 240.085 42.112C239.189 42.112 238.25 41.7707 237.269 41.088C236.287 40.4053 235.349 39.5733 234.453 38.592C233.599 37.568 232.895 36.544 232.341 35.52C231.829 34.4533 231.573 33.5573 231.573 32.832C231.573 31.4667 231.978 30.3573 232.789 29.504C233.642 28.6507 234.666 27.9893 235.861 27.52C232.917 26.1547 231.445 23.8933 231.445 20.736V17.728C231.445 15.0827 231.978 13.056 233.045 11.648C234.154 10.1973 236.031 9.36534 238.677 9.152L243.221 8.768C244.714 8.64 245.802 8.32 246.485 7.808C247.167 7.296 247.615 6.464 247.829 5.312L248.597 4.864L253.013 7.424C252.757 9.344 252.138 10.7947 251.157 11.776C250.218 12.7573 249.002 13.4187 247.509 13.76C248.661 14.3573 249.578 15.1893 250.261 16.256C250.986 17.3227 251.349 18.496 251.349 19.776V22.784C251.349 24.7467 251.157 26.3253 250.773 27.52C250.389 28.7147 249.642 29.632 248.533 30.272C247.466 30.912 245.866 31.4453 243.733 31.872L240.981 32.384C239.189 32.6827 237.973 33.088 237.333 33.6C236.693 34.0693 236.373 34.624 236.373 35.264C236.373 35.9467 236.799 36.288 237.653 36.288C238.634 36.288 239.679 36.16 240.789 35.904C241.941 35.648 243.029 35.392 244.053 35.136C245.119 34.88 245.994 34.752 246.677 34.752C247.53 34.752 248.341 35.1573 249.109 35.968C249.919 36.736 250.623 37.7173 251.221 38.912C251.861 40.064 252.351 41.2373 252.693 42.432C253.077 43.6693 253.269 44.7147 253.269 45.568C253.269 48 252.223 49.8773 250.133 51.2C248.085 52.5227 245.482 53.184 242.325 53.184ZM237.397 22.144C237.397 23.296 237.546 24.2773 237.845 25.088C238.186 25.856 238.719 26.368 239.445 26.624L241.493 26.304C242.73 26.0907 243.733 25.6853 244.501 25.088C245.269 24.4907 245.653 23.2107 245.653 21.248V19.136C245.653 17.3867 245.503 16.1493 245.205 15.424C244.906 14.656 244.415 14.208 243.733 14.08L241.365 14.272C239.786 14.4 238.719 14.8693 238.165 15.68C237.653 16.4907 237.397 17.856 237.397 19.776V22.144ZM275.18 41.472C271.511 40.2773 268.865 39.2533 267.244 38.4C265.623 37.504 264.812 36.864 264.812 36.48C264.812 36.0107 264.876 35.2 265.004 34.048C265.175 32.896 265.26 31.104 265.26 28.672V20.736C265.26 19.8827 265.303 18.88 265.388 17.728C265.473 16.5333 265.601 15.5307 265.772 14.72H263.404L260.076 10.304L260.524 9.28H266.54C266.753 9.28 267.137 9.6 267.692 10.24C268.289 10.8373 268.887 11.4987 269.484 12.224C270.167 11.1147 271.105 10.304 272.3 9.792C273.537 9.28 274.839 9.024 276.204 9.024C276.887 9.024 277.399 9.06667 277.74 9.152L280.94 13.632L280.428 14.4C277.441 14.3573 275.223 14.9333 273.772 16.128C272.321 17.3227 271.596 19.52 271.596 22.72V29.568C271.596 31.7013 271.532 33.3653 271.404 34.56C271.319 35.712 271.276 36.48 271.276 36.864C271.276 37.12 271.361 37.3547 271.532 37.568C271.703 37.7387 272.108 37.952 272.748 38.208C273.431 38.464 274.497 38.8907 275.948 39.488L275.18 41.472ZM310.963 40.576C309.939 40.2347 309 39.8933 308.147 39.552C307.294 39.168 306.483 38.7627 305.715 38.336C305.118 38.9333 304.392 39.424 303.539 39.808C302.728 40.1493 301.79 40.32 300.723 40.32C299.998 40.32 298.931 40.0853 297.523 39.616C296.158 39.1467 294.75 38.5493 293.299 37.824C291.848 37.056 290.611 36.224 289.587 35.328C288.606 34.3893 288.115 33.472 288.115 32.576C288.115 31.4667 288.115 30.4853 288.115 29.632C288.158 28.736 288.179 28.2027 288.179 28.032C288.179 25.5147 288.819 23.744 290.099 22.72C291.422 21.6533 293.256 21.12 295.603 21.12C296.798 21.12 298.078 21.2053 299.443 21.376C300.808 21.5467 301.918 21.7387 302.771 21.952C302.814 20.7573 302.835 19.6267 302.835 18.56C302.878 17.4507 302.899 16.6187 302.899 16.064C302.899 15.5947 302.771 15.2533 302.515 15.04C302.259 14.8267 301.79 14.72 301.107 14.72C299.443 14.72 298.035 14.848 296.883 15.104C295.731 15.36 294.643 15.7867 293.619 16.384H292.403L288.243 10.304L288.755 9.28H299.443C300.296 9.28 301.256 9.62134 302.323 10.304C303.432 10.944 304.52 11.7547 305.587 12.736C306.654 13.7173 307.528 14.72 308.211 15.744C308.894 16.768 309.235 17.664 309.235 18.432C309.235 19.84 309.192 21.504 309.107 23.424C309.022 25.344 308.936 27.3067 308.851 29.312C308.766 31.2747 308.723 33.0667 308.723 34.688C308.723 35.968 308.936 36.864 309.363 37.376C309.79 37.8453 310.6 38.3147 311.795 38.784L310.963 40.576ZM294.451 32.576C294.451 33.6427 294.643 34.3253 295.027 34.624C295.411 34.88 295.88 35.008 296.435 35.008C298.184 35.008 299.635 34.56 300.787 33.664C301.982 32.7253 302.579 31.2747 302.579 29.312C302.579 28.928 302.579 28.4587 302.579 27.904C302.622 27.3493 302.643 26.7307 302.643 26.048C302.174 25.92 301.598 25.8347 300.915 25.792C300.232 25.7493 299.614 25.728 299.059 25.728C297.523 25.728 296.371 26.0693 295.603 26.752C294.835 27.4347 294.451 28.6293 294.451 30.336V32.576ZM333.176 41.024C332.707 41.024 332.024 40.7253 331.128 40.128C330.275 39.488 329.379 38.72 328.44 37.824C327.502 36.928 326.67 36.096 325.944 35.328C325.262 34.5173 324.878 33.92 324.792 33.536C323.854 29.7387 323.086 26.7093 322.488 24.448C321.891 22.144 321.443 20.3733 321.144 19.136C320.888 17.856 320.76 16.8747 320.76 16.192C320.76 15.68 320.824 15.1893 320.952 14.72H319.48L316.344 10.304L316.856 9.28H324.984L327.928 13.568V14.4C326.99 14.5707 326.35 14.9333 326.008 15.488C325.667 16.0427 325.496 16.7467 325.496 17.6C325.496 18.0693 325.603 18.8373 325.816 19.904C326.03 20.928 326.435 22.5707 327.032 24.832C327.63 27.0507 328.504 30.1653 329.656 34.176C330.254 32.64 330.851 31.0827 331.448 29.504C332.046 27.8827 332.75 25.92 333.56 23.616C334.371 21.2693 335.395 18.304 336.632 14.72H333.816L330.872 10.304L331.32 9.28H339.32L343.224 14.656C341.432 19.9893 339.939 24.384 338.744 27.84C337.55 31.2533 336.59 33.92 335.865 35.84C335.139 37.76 334.563 39.104 334.136 39.872C333.752 40.64 333.432 41.024 333.176 41.024ZM366.23 40.448C365.206 40.448 363.947 40.192 362.454 39.68C360.961 39.1253 359.467 38.4213 357.974 37.568C356.523 36.672 355.307 35.712 354.326 34.688C353.345 33.6213 352.854 32.576 352.854 31.552C352.854 30.528 352.918 28.7573 353.046 26.24C353.217 23.7227 353.302 20.7147 353.302 17.216C353.302 11.6693 356.331 8.896 362.39 8.896C363.329 8.896 364.417 9.19467 365.654 9.792C366.891 10.3467 368.086 11.0933 369.238 12.032C370.39 12.928 371.35 13.8667 372.118 14.848C372.886 15.8293 373.27 16.7467 373.27 17.6V22.848C373.27 26.304 371.35 28.032 367.51 28.032C366.315 28.032 364.95 27.968 363.414 27.84C361.878 27.6693 360.513 27.4773 359.318 27.264C359.275 28.672 359.233 29.952 359.19 31.104C359.19 32.2133 359.19 32.8533 359.19 33.024C359.19 33.7067 359.361 34.1973 359.702 34.496C360.043 34.7947 360.662 34.944 361.558 34.944C362.881 34.944 364.31 34.752 365.846 34.368C367.425 33.9413 368.833 33.3227 370.07 32.512H371.03L374.486 37.76C373.675 38.528 372.459 39.168 370.838 39.68C369.259 40.192 367.723 40.448 366.23 40.448ZM359.51 19.264C359.51 19.6053 359.489 20.1173 359.446 20.8C359.446 21.4827 359.446 22.2507 359.446 23.104C360.683 23.232 362.113 23.296 363.734 23.296C364.971 23.296 365.825 22.9973 366.294 22.4C366.806 21.76 367.062 20.8 367.062 19.52V16.064C367.062 15.5947 366.934 15.1893 366.678 14.848C366.422 14.5067 365.867 14.336 365.014 14.336C363.307 14.336 361.963 14.6987 360.982 15.424C360.001 16.1067 359.51 17.3867 359.51 19.264ZM396.218 41.472C392.548 40.2773 389.903 39.2533 388.282 38.4C386.66 37.504 385.85 36.864 385.85 36.48C385.85 36.0107 385.914 35.2 386.042 34.048C386.212 32.896 386.298 31.104 386.298 28.672V20.736C386.298 19.8827 386.34 18.88 386.426 17.728C386.511 16.5333 386.639 15.5307 386.81 14.72H384.442L381.114 10.304L381.562 9.28H387.578C387.791 9.28 388.175 9.6 388.73 10.24C389.327 10.8373 389.924 11.4987 390.522 12.224C391.204 11.1147 392.143 10.304 393.338 9.792C394.575 9.28 395.876 9.024 397.242 9.024C397.924 9.024 398.436 9.06667 398.778 9.152L401.978 13.632L401.466 14.4C398.479 14.3573 396.26 14.9333 394.81 16.128C393.359 17.3227 392.634 19.52 392.634 22.72V29.568C392.634 31.7013 392.57 33.3653 392.442 34.56C392.356 35.712 392.314 36.48 392.314 36.864C392.314 37.12 392.399 37.3547 392.57 37.568C392.74 37.7387 393.146 37.952 393.786 38.208C394.468 38.464 395.535 38.8907 396.986 39.488L396.218 41.472Z"/>
</svg>
