<svg width="300" height="55" viewBox="0 0 300 55" fill="none" xmlns="http://www.w3.org/2000/svg">
<path d="M13.12 47.424C9.664 47.424 6.86933 46.272 4.736 43.968C2.60267 41.664 1.024 38.1867 0 33.536L2.176 32.96C3.15733 35.3067 4.24533 37.056 5.44 38.208C6.67733 39.3173 8.27733 39.872 10.24 39.872C11.8613 39.872 13.312 39.5093 14.592 38.784C15.872 38.0587 16.8747 37.0773 17.6 35.84C18.368 34.56 18.752 33.152 18.752 31.616C18.752 29.9947 18.2827 29.184 17.344 29.184C16.6187 29.184 15.7227 29.312 14.656 29.568C13.632 29.824 12.608 30.08 11.584 30.336C10.56 30.592 9.728 30.72 9.088 30.72C8.23467 30.72 7.33867 30.3147 6.4 29.504C5.46133 28.6507 4.58667 27.5413 3.776 26.176C2.96533 24.768 2.304 23.2747 1.792 21.696C1.32267 20.0747 1.088 18.496 1.088 16.96C1.088 13.5467 2.00533 10.9653 3.84 9.216C5.71733 7.424 8.256 6.528 11.456 6.528C16.9173 6.528 20.5867 10.048 22.464 17.088L20.288 17.664C19.6053 16.2133 18.6667 15.168 17.472 14.528C16.2773 13.888 14.9333 13.568 13.44 13.568C11.0933 13.568 9.25867 14.208 7.936 15.488C6.656 16.768 6.016 18.624 6.016 21.056C6.016 21.8667 6.144 22.4427 6.4 22.784C6.69867 23.1253 7.01867 23.296 7.36 23.296C8.21333 23.296 9.19467 23.1253 10.304 22.784C11.456 22.4427 12.5653 22.1227 13.632 21.824C14.7413 21.4827 15.6373 21.312 16.32 21.312C17.216 21.312 18.176 21.9307 19.2 23.168C20.224 24.3627 21.0987 25.984 21.824 28.032C22.592 30.08 22.976 32.3413 22.976 34.816C22.976 38.784 22.1867 41.8773 20.608 44.096C19.0293 46.3147 16.5333 47.424 13.12 47.424ZM56.1425 47.616C55.1185 47.2747 54.1798 46.9333 53.3265 46.592C52.4732 46.208 51.6625 45.8027 50.8945 45.376C50.2972 45.9733 49.5718 46.464 48.7185 46.848C47.9078 47.1893 46.9692 47.36 45.9025 47.36C45.1772 47.36 44.1105 47.1253 42.7025 46.656C41.3372 46.1867 39.9292 45.5893 38.4785 44.864C37.0278 44.096 35.7905 43.264 34.7665 42.368C33.7852 41.4293 33.2945 40.512 33.2945 39.616C33.2945 38.5067 33.2945 37.5253 33.2945 36.672C33.3372 35.776 33.3585 35.2427 33.3585 35.072C33.3585 32.5547 33.9985 30.784 35.2785 29.76C36.6012 28.6933 38.4358 28.16 40.7825 28.16C41.9772 28.16 43.2572 28.2453 44.6225 28.416C45.9878 28.5867 47.0972 28.7787 47.9505 28.992C47.9932 27.7973 48.0145 26.6667 48.0145 25.6C48.0572 24.4907 48.0785 23.6587 48.0785 23.104C48.0785 22.6347 47.9505 22.2933 47.6945 22.08C47.4385 21.8667 46.9692 21.76 46.2865 21.76C44.6225 21.76 43.2145 21.888 42.0625 22.144C40.9105 22.4 39.8225 22.8267 38.7985 23.424H37.5825L33.4225 17.344L33.9345 16.32H44.6225C45.4758 16.32 46.4358 16.6613 47.5025 17.344C48.6118 17.984 49.6998 18.7947 50.7665 19.776C51.8332 20.7573 52.7078 21.76 53.3905 22.784C54.0732 23.808 54.4145 24.704 54.4145 25.472C54.4145 26.88 54.3718 28.544 54.2865 30.464C54.2012 32.384 54.1158 34.3467 54.0305 36.352C53.9452 38.3147 53.9025 40.1067 53.9025 41.728C53.9025 43.008 54.1158 43.904 54.5425 44.416C54.9692 44.8853 55.7798 45.3547 56.9745 45.824L56.1425 47.616ZM39.6305 39.616C39.6305 40.6827 39.8225 41.3653 40.2065 41.664C40.5905 41.92 41.0598 42.048 41.6145 42.048C43.3638 42.048 44.8145 41.6 45.9665 40.704C47.1612 39.7653 47.7585 38.3147 47.7585 36.352C47.7585 35.968 47.7585 35.4987 47.7585 34.944C47.8012 34.3893 47.8225 33.7707 47.8225 33.088C47.3532 32.96 46.7772 32.8747 46.0945 32.832C45.4118 32.7893 44.7932 32.768 44.2385 32.768C42.7025 32.768 41.5505 33.1093 40.7825 33.792C40.0145 34.4747 39.6305 35.6693 39.6305 37.376V39.616ZM92.948 48.064C92.692 48.064 92.18 47.744 91.412 47.104C90.6867 46.464 89.876 45.7173 88.98 44.864C88.1267 43.968 87.3587 43.136 86.676 42.368C86.036 41.6 85.6947 41.1093 85.652 40.896C85.2253 38.6347 84.82 36.416 84.436 34.24C84.052 32.0213 83.604 29.504 83.092 26.688C81.684 32.0213 80.5107 36.224 79.572 39.296C78.676 42.368 77.972 44.544 77.46 45.824C76.9907 47.104 76.628 47.744 76.372 47.744C76.0307 47.744 75.476 47.4453 74.708 46.848C73.9827 46.208 73.1933 45.4613 72.34 44.608C71.5293 43.7547 70.8253 42.9653 70.228 42.24C69.6307 41.472 69.2893 40.9387 69.204 40.64C68.2653 36.1173 67.54 32.4053 67.028 29.504C66.516 26.56 66.26 24.4907 66.26 23.296C66.26 22.7413 66.3027 22.2293 66.388 21.76H64.788L61.972 17.344L62.356 16.32H71.188L74.068 20.8L73.748 21.696C72.468 21.952 71.636 22.4 71.252 23.04C70.868 23.6373 70.676 24.4907 70.676 25.6C70.676 26.112 70.74 26.9013 70.868 27.968C71.0387 28.992 71.2947 30.4427 71.636 32.32C72.02 34.1973 72.532 36.672 73.172 39.744C74.324 36.0747 75.4547 32.2987 76.564 28.416C77.6733 24.5333 78.7613 20.8213 79.828 17.28L80.916 16.768L85.716 20.416C86.2707 22.976 86.8467 25.9413 87.444 29.312C88.084 32.64 88.788 36.1387 89.556 39.808C89.7693 39.168 89.9613 38.4853 90.132 37.76C90.3453 37.0347 90.5587 36.2667 90.772 35.456C91.54 32.512 92.1587 30.144 92.628 28.352C93.14 26.5173 93.524 25.1093 93.78 24.128C94.0787 23.104 94.3133 22.3147 94.484 21.76H92.052L89.172 17.344L89.556 16.32H97.236L100.756 21.696C98.6653 30.144 96.9373 36.6507 95.572 41.216C94.2493 45.7813 93.3747 48.064 92.948 48.064ZM121.348 47.744C118.105 47.744 115.567 46.6987 113.732 44.608C111.897 42.4747 110.617 39.5947 109.892 35.968L111.94 35.392C112.751 37.44 113.668 38.8907 114.692 39.744C115.759 40.5973 117.188 41.024 118.98 41.024C121.028 41.024 122.756 40.448 124.164 39.296C125.615 38.144 126.34 36.736 126.34 35.072C126.34 34.1333 125.999 33.664 125.316 33.664C124.761 33.664 123.951 33.792 122.884 34.048C121.86 34.304 120.836 34.5813 119.812 34.88C118.788 35.136 118.02 35.264 117.508 35.264C116.74 35.264 115.951 34.9013 115.14 34.176C114.372 33.4507 113.647 32.5333 112.964 31.424C112.281 30.272 111.727 29.0773 111.3 27.84C110.873 26.6027 110.66 25.4507 110.66 24.384C110.66 21.8667 111.449 19.7547 113.028 18.048C114.649 16.3413 116.953 15.488 119.94 15.488C122.5 15.488 124.591 16.1707 126.212 17.536C127.833 18.9013 129.071 20.992 129.924 23.808L127.684 24.576C126.532 22.7413 124.783 21.824 122.436 21.824C120.388 21.824 118.66 22.3573 117.252 23.424C115.844 24.4907 115.14 25.8347 115.14 27.456C115.14 28.3093 115.545 28.736 116.356 28.736C116.996 28.736 117.828 28.608 118.852 28.352C119.876 28.0533 120.9 27.776 121.924 27.52C122.948 27.264 123.78 27.136 124.42 27.136C125.401 27.136 126.361 27.6907 127.3 28.8C128.239 29.9093 129.007 31.3173 129.604 33.024C130.201 34.7307 130.5 36.48 130.5 38.272C130.5 41.1307 129.711 43.4347 128.132 45.184C126.553 46.8907 124.292 47.744 121.348 47.744ZM144.96 54.976L141.12 52.416L156.16 0.447998L157.056 0L161.024 2.56L145.984 54.528L144.96 54.976ZM181.684 47.744C180.617 47.3173 179.401 46.784 178.036 46.144C176.713 45.4613 175.561 44.8213 174.58 44.224C173.598 43.584 173.108 43.1147 173.108 42.816C173.108 42.3467 173.236 41.3013 173.492 39.68C173.79 38.0587 173.939 36.0533 173.939 33.664V26.688C173.939 23.1467 174.046 20.2667 174.26 18.048C174.473 15.7867 174.793 13.888 175.22 12.352H172.66L169.779 8.192L170.355 7.04H182.516C183.241 8.53333 183.966 10.368 184.692 12.544C185.46 14.6773 186.185 16.9813 186.868 19.456C187.55 21.888 188.148 24.2347 188.66 26.496C189.428 22.8693 190.452 19.392 191.732 16.064C193.012 12.6933 194.484 9.68533 196.148 7.04H202.035L205.684 12.16C205.385 13.1413 205.15 14.336 204.979 15.744C204.809 17.1093 204.724 18.9227 204.724 21.184V34.56C204.724 36.48 204.66 38.016 204.532 39.168C204.446 40.2773 204.34 41.152 204.212 41.792C204.084 42.432 204.02 42.9867 204.02 43.456C204.02 43.7547 204.276 44.1173 204.788 44.544C205.3 44.9707 205.982 45.44 206.836 45.952L206.004 47.744C204.937 47.3173 203.721 46.784 202.356 46.144C201.033 45.4613 199.881 44.8213 198.9 44.224C197.918 43.584 197.428 43.1147 197.428 42.816C197.428 42.2187 197.556 41.2373 197.812 39.872C198.11 38.464 198.26 36.3947 198.26 33.664V23.936C198.26 21.888 198.302 19.9893 198.388 18.24C198.516 16.448 198.708 14.8693 198.964 13.504C198.025 15.6373 197.129 18.112 196.276 20.928C195.422 23.744 194.633 26.6453 193.908 29.632C193.225 32.6187 192.692 35.4773 192.308 38.208L191.22 38.848L186.1 36.032C185.801 33.6 185.374 31.04 184.82 28.352C184.265 25.6213 183.646 22.9973 182.964 20.48C182.281 17.9627 181.598 15.7013 180.916 13.696C180.788 15.0187 180.681 16.5333 180.595 18.24C180.51 19.9467 180.446 21.6533 180.404 23.36C180.404 25.024 180.404 26.496 180.404 27.776V34.56C180.404 36.48 180.34 38.016 180.212 39.168C180.126 40.2773 180.02 41.152 179.892 41.792C179.764 42.432 179.7 42.9867 179.7 43.456C179.7 43.7547 179.956 44.1173 180.468 44.544C180.98 44.9707 181.662 45.44 182.516 45.952L181.684 47.744ZM221.782 12.032L217.558 7.488V6.848C218.71 5.312 220.267 3.968 222.23 2.816L226.454 7.232L226.39 8C225.537 8.59733 224.726 9.25867 223.958 9.984C223.233 10.7093 222.507 11.392 221.782 12.032ZM227.478 48.064C224.747 47.04 222.635 46.1227 221.142 45.312C219.691 44.4587 218.966 43.6907 218.966 43.008C218.966 42.4107 219.03 41.4933 219.158 40.256C219.329 38.976 219.414 37.7387 219.414 36.544V27.392C219.414 26.2827 219.457 25.2587 219.542 24.32C219.67 23.3387 219.862 22.4853 220.118 21.76H218.006L214.614 17.408L215.062 16.32H223.254L226.966 21.312C226.454 21.9947 226.113 22.848 225.942 23.872C225.814 24.896 225.75 26.1973 225.75 27.776V37.248C225.75 38.784 225.686 40.1493 225.558 41.344C225.43 42.496 225.366 43.3707 225.366 43.968C225.366 44.3947 225.515 44.736 225.814 44.992C226.155 45.2053 226.966 45.6533 228.246 46.336L227.478 48.064ZM248.039 48.064C245.308 47.04 243.196 46.1227 241.703 45.312C240.252 44.4587 239.527 43.6907 239.527 43.008C239.527 42.4107 239.591 41.4933 239.719 40.256C239.889 38.976 239.975 37.7387 239.975 36.544V19.328C239.975 16.768 240.06 14.4213 240.231 12.288C240.444 10.112 240.7 8.36266 240.999 7.04H238.247L234.727 2.88L235.175 1.856H243.495L247.271 6.72C246.972 8.384 246.737 10.2827 246.567 12.416C246.396 14.5067 246.311 16.64 246.311 18.816V37.248C246.311 38.784 246.247 40.1493 246.119 41.344C245.991 42.496 245.927 43.3707 245.927 43.968C245.927 44.3947 246.076 44.736 246.375 44.992C246.716 45.2053 247.527 45.6533 248.807 46.336L248.039 48.064ZM268.314 48.064C265.583 47.04 263.471 46.1227 261.978 45.312C260.527 44.4587 259.802 43.6907 259.802 43.008C259.802 42.4107 259.866 41.4933 259.994 40.256C260.164 38.976 260.25 37.7387 260.25 36.544V19.328C260.25 16.768 260.335 14.4213 260.506 12.288C260.719 10.112 260.975 8.36266 261.274 7.04H258.522L255.002 2.88L255.45 1.856H263.77L267.546 6.72C267.247 8.384 267.012 10.2827 266.842 12.416C266.671 14.5067 266.586 16.64 266.586 18.816V37.248C266.586 38.784 266.522 40.1493 266.394 41.344C266.266 42.496 266.202 43.3707 266.202 43.968C266.202 44.3947 266.351 44.736 266.65 44.992C266.991 45.2053 267.802 45.6533 269.082 46.336L268.314 48.064ZM290.061 47.744C286.818 47.744 284.279 46.6987 282.445 44.608C280.61 42.4747 279.33 39.5947 278.605 35.968L280.653 35.392C281.463 37.44 282.381 38.8907 283.405 39.744C284.471 40.5973 285.901 41.024 287.693 41.024C289.741 41.024 291.469 40.448 292.877 39.296C294.327 38.144 295.053 36.736 295.053 35.072C295.053 34.1333 294.711 33.664 294.029 33.664C293.474 33.664 292.663 33.792 291.597 34.048C290.573 34.304 289.549 34.5813 288.525 34.88C287.501 35.136 286.733 35.264 286.221 35.264C285.453 35.264 284.663 34.9013 283.853 34.176C283.085 33.4507 282.359 32.5333 281.677 31.424C280.994 30.272 280.439 29.0773 280.013 27.84C279.586 26.6027 279.373 25.4507 279.373 24.384C279.373 21.8667 280.162 19.7547 281.741 18.048C283.362 16.3413 285.666 15.488 288.653 15.488C291.213 15.488 293.303 16.1707 294.925 17.536C296.546 18.9013 297.783 20.992 298.637 23.808L296.397 24.576C295.245 22.7413 293.495 21.824 291.149 21.824C289.101 21.824 287.373 22.3573 285.965 23.424C284.557 24.4907 283.853 25.8347 283.853 27.456C283.853 28.3093 284.258 28.736 285.069 28.736C285.709 28.736 286.541 28.608 287.565 28.352C288.589 28.0533 289.613 27.776 290.637 27.52C291.661 27.264 292.493 27.136 293.133 27.136C294.114 27.136 295.074 27.6907 296.013 28.8C296.951 29.9093 297.719 31.3173 298.317 33.024C298.914 34.7307 299.213 36.48 299.213 38.272C299.213 41.1307 298.423 43.4347 296.845 45.184C295.266 46.8907 293.005 47.744 290.061 47.744Z"/>
</svg>
