<svg width="304" height="46" viewBox="0 0 304 46" fill="none" xmlns="http://www.w3.org/2000/svg">
<path d="M11.904 44.928C10.8373 44.5013 9.62134 43.968 8.25601 43.328C6.93334 42.6453 5.78134 42.0053 4.8 41.408C3.81867 40.768 3.328 40.2987 3.328 40C3.328 39.5307 3.456 38.4853 3.712 36.864C4.01067 35.2427 4.16 33.2373 4.16 30.848V23.872C4.16 20.3307 4.26667 17.4507 4.48 15.232C4.69334 12.9707 5.01334 11.072 5.44 9.536H2.88L4.64171e-06 5.376L0.576005 4.224H12.736C13.4613 5.71733 14.1867 7.552 14.912 9.728C15.68 11.8613 16.4053 14.1653 17.088 16.64C17.7707 19.072 18.368 21.4187 18.88 23.68C19.648 20.0533 20.672 16.576 21.952 13.248C23.232 9.87733 24.704 6.86933 26.368 4.224H32.256L35.904 9.344C35.6053 10.3253 35.3707 11.52 35.2 12.928C35.0293 14.2933 34.944 16.1067 34.944 18.368V31.744C34.944 33.664 34.88 35.2 34.752 36.352C34.6667 37.4613 34.56 38.336 34.432 38.976C34.304 39.616 34.24 40.1707 34.24 40.64C34.24 40.9387 34.496 41.3013 35.008 41.728C35.52 42.1547 36.2027 42.624 37.056 43.136L36.224 44.928C35.1573 44.5013 33.9413 43.968 32.576 43.328C31.2533 42.6453 30.1013 42.0053 29.12 41.408C28.1387 40.768 27.648 40.2987 27.648 40C27.648 39.4027 27.776 38.4213 28.032 37.056C28.3307 35.648 28.48 33.5787 28.48 30.848V21.12C28.48 19.072 28.5227 17.1733 28.608 15.424C28.736 13.632 28.928 12.0533 29.184 10.688C28.2453 12.8213 27.3493 15.296 26.496 18.112C25.6427 20.928 24.8533 23.8293 24.128 26.816C23.4453 29.8027 22.912 32.6613 22.528 35.392L21.44 36.032L16.32 33.216C16.0213 30.784 15.5947 28.224 15.04 25.536C14.4853 22.8053 13.8667 20.1813 13.184 17.664C12.5013 15.1467 11.8187 12.8853 11.136 10.88C11.008 12.2027 10.9013 13.7173 10.816 15.424C10.7307 17.1307 10.6667 18.8373 10.624 20.544C10.624 22.208 10.624 23.68 10.624 24.96V31.744C10.624 33.664 10.56 35.2 10.432 36.352C10.3467 37.4613 10.24 38.336 10.112 38.976C9.984 39.616 9.92 40.1707 9.92 40.64C9.92 40.9387 10.176 41.3013 10.688 41.728C11.2 42.1547 11.8827 42.624 12.736 43.136L11.904 44.928ZM60.0025 44.8C58.9785 44.8 57.7412 44.544 56.2905 44.032C54.8398 43.52 53.4318 42.8373 52.0665 41.984C50.7012 41.1307 49.5492 40.1493 48.6105 39.04C47.7145 37.9307 47.2665 36.8 47.2665 35.648C47.2665 35.136 47.3305 33.6427 47.4585 31.168C47.6292 28.6933 47.7145 25.6 47.7145 21.888C47.7145 18.9013 48.5892 16.704 50.3385 15.296C52.0878 13.888 54.7118 13.184 58.2105 13.184C59.2345 13.184 60.3652 13.504 61.6025 14.144C62.8825 14.784 64.0985 15.616 65.2505 16.64C66.4025 17.664 67.3412 18.752 68.0665 19.904C68.8345 21.0133 69.2185 22.0587 69.2185 23.04C69.2185 24.6613 69.1758 26.4107 69.0905 28.288C69.0478 30.1653 69.0265 32.576 69.0265 35.52C69.0265 38.2507 68.2798 40.4907 66.7865 42.24C65.2932 43.9467 63.0318 44.8 60.0025 44.8ZM55.9065 39.36C58.2532 39.36 59.9598 38.8693 61.0265 37.888C62.1358 36.9067 62.6905 35.456 62.6905 33.536C62.6905 32.1707 62.7118 30.6347 62.7545 28.928C62.7972 27.1787 62.8398 25.5787 62.8825 24.128C62.9252 22.6347 62.9465 21.5893 62.9465 20.992C62.9465 20.2667 62.8185 19.7333 62.5625 19.392C62.3065 19.008 61.7945 18.816 61.0265 18.816C58.7225 18.816 56.9518 19.2213 55.7145 20.032C54.5198 20.8 53.9225 22.272 53.9225 24.448C53.9225 28.544 53.8798 31.6373 53.7945 33.728C53.7092 35.776 53.6665 37.1627 53.6665 37.888C53.6665 38.8693 54.4132 39.36 55.9065 39.36ZM91.682 44.608C91.042 44.608 90.1673 44.3733 89.058 43.904C87.9487 43.392 86.818 42.752 85.666 41.984C84.514 41.1733 83.5327 40.3413 82.722 39.488C81.9113 38.592 81.506 37.7387 81.506 36.928C81.506 36.4587 81.5273 35.968 81.57 35.456C81.6127 34.944 81.6767 34.2827 81.762 33.472C81.8473 32.6187 81.9113 31.488 81.954 30.08C81.9967 28.672 82.018 26.8373 82.018 24.576C82.018 23.7227 82.018 22.8267 82.018 21.888C82.018 20.9493 81.9967 19.968 81.954 18.944H80.802L77.538 14.656L77.986 13.632C80.2473 13.376 81.6767 12.6933 82.274 11.584C82.8713 10.4747 83.17 8.78933 83.17 6.528L84.258 6.144L88.162 9.088C88.162 9.856 88.162 10.6027 88.162 11.328C88.162 12.0533 88.162 12.7787 88.162 13.504H93.602L96.802 17.984L96.354 18.944H88.226C88.226 20.48 88.226 21.952 88.226 23.36C88.226 24.768 88.226 26.112 88.226 27.392C88.226 29.8667 88.1833 31.7653 88.098 33.088C88.0553 34.4107 87.9913 35.392 87.906 36.032C87.8207 36.672 87.778 37.2693 87.778 37.824C87.778 38.6773 88.226 39.104 89.122 39.104C89.89 39.104 90.722 38.912 91.618 38.528C92.514 38.1013 93.346 37.5893 94.114 36.992H95.01L98.018 41.984C97.4207 42.7093 96.482 43.328 95.202 43.84C93.922 44.352 92.7487 44.608 91.682 44.608ZM111.303 9.216L107.079 4.672V4.032C108.231 2.496 109.788 1.152 111.751 0L115.975 4.416L115.911 5.184C115.057 5.78134 114.247 6.44267 113.479 7.168C112.753 7.89333 112.028 8.576 111.303 9.216ZM116.999 45.248C114.268 44.224 112.156 43.3067 110.663 42.496C109.212 41.6427 108.487 40.8747 108.487 40.192C108.487 39.5947 108.551 38.6773 108.679 37.44C108.849 36.16 108.935 34.9227 108.935 33.728V24.576C108.935 23.4667 108.977 22.4427 109.063 21.504C109.191 20.5227 109.383 19.6693 109.639 18.944H107.527L104.135 14.592L104.583 13.504H112.775L116.487 18.496C115.975 19.1787 115.633 20.032 115.463 21.056C115.335 22.08 115.271 23.3813 115.271 24.96V34.432C115.271 35.968 115.207 37.3333 115.079 38.528C114.951 39.68 114.887 40.5547 114.887 41.152C114.887 41.5787 115.036 41.92 115.335 42.176C115.676 42.3893 116.487 42.8373 117.767 43.52L116.999 45.248ZM141.015 44.8C139.991 44.8 138.754 44.544 137.303 44.032C135.852 43.52 134.444 42.8373 133.079 41.984C131.714 41.1307 130.562 40.1493 129.623 39.04C128.727 37.9307 128.279 36.8 128.279 35.648C128.279 35.136 128.343 33.6427 128.471 31.168C128.642 28.6933 128.727 25.6 128.727 21.888C128.727 18.9013 129.602 16.704 131.351 15.296C133.1 13.888 135.724 13.184 139.223 13.184C140.247 13.184 141.378 13.504 142.615 14.144C143.895 14.784 145.111 15.616 146.263 16.64C147.415 17.664 148.354 18.752 149.079 19.904C149.847 21.0133 150.231 22.0587 150.231 23.04C150.231 24.6613 150.188 26.4107 150.103 28.288C150.06 30.1653 150.039 32.576 150.039 35.52C150.039 38.2507 149.292 40.4907 147.799 42.24C146.306 43.9467 144.044 44.8 141.015 44.8ZM136.919 39.36C139.266 39.36 140.972 38.8693 142.039 37.888C143.148 36.9067 143.703 35.456 143.703 33.536C143.703 32.1707 143.724 30.6347 143.767 28.928C143.81 27.1787 143.852 25.5787 143.895 24.128C143.938 22.6347 143.959 21.5893 143.959 20.992C143.959 20.2667 143.831 19.7333 143.575 19.392C143.319 19.008 142.807 18.816 142.039 18.816C139.735 18.816 137.964 19.2213 136.727 20.032C135.532 20.8 134.935 22.272 134.935 24.448C134.935 28.544 134.892 31.6373 134.807 33.728C134.722 35.776 134.679 37.1627 134.679 37.888C134.679 38.8693 135.426 39.36 136.919 39.36ZM171.159 45.12C168.428 44.096 166.316 43.1787 164.823 42.368C163.372 41.5147 162.647 40.7467 162.647 40.064C162.647 39.4667 162.711 38.5493 162.839 37.312C163.009 36.032 163.095 34.7947 163.095 33.6V25.408C163.095 24.5547 163.116 23.488 163.159 22.208C163.244 20.928 163.393 19.84 163.607 18.944H161.239L157.911 14.528L158.359 13.504H164.375C164.545 13.504 164.908 13.8027 165.463 14.4C166.06 14.9547 166.657 15.5947 167.255 16.32C168.065 15.2107 169.068 14.4 170.263 13.888C171.5 13.3333 172.695 13.056 173.847 13.056H175.191C176.044 13.056 176.983 13.3973 178.007 14.08C179.073 14.7627 180.097 15.5947 181.079 16.576C182.103 17.5573 182.935 18.5387 183.575 19.52C184.215 20.4587 184.535 21.2267 184.535 21.824C184.535 22.8907 184.492 24.2133 184.407 25.792C184.321 27.3707 184.279 28.6507 184.279 29.632V34.304C184.279 35.84 184.215 37.2053 184.087 38.4C183.959 39.552 183.895 40.4267 183.895 41.024C183.895 41.4507 184.044 41.792 184.343 42.048C184.684 42.2613 185.495 42.7093 186.775 43.392L186.007 45.12C183.276 44.096 181.164 43.1787 179.671 42.368C178.22 41.5147 177.495 40.7467 177.495 40.064C177.495 39.4667 177.559 38.5493 177.687 37.312C177.857 36.032 177.943 34.7947 177.943 33.6V30.272C177.943 28.9067 177.985 27.3493 178.071 25.6C178.156 23.8507 178.199 22.3147 178.199 20.992C178.199 20.1387 178.092 19.5627 177.879 19.264C177.665 18.9653 177.196 18.816 176.471 18.816C174.081 18.816 172.311 19.4347 171.159 20.672C170.007 21.8667 169.431 23.5307 169.431 25.664V34.304C169.431 35.84 169.367 37.2053 169.239 38.4C169.111 39.552 169.047 40.4267 169.047 41.024C169.047 41.4507 169.196 41.792 169.495 42.048C169.836 42.2613 170.647 42.7093 171.927 43.392L171.159 45.12ZM225.948 44.608C224.838 44.608 223.494 44.3307 221.916 43.776C220.38 43.1787 218.844 42.432 217.308 41.536C215.814 40.64 214.556 39.7227 213.532 38.784C212.55 37.8027 212.06 36.9067 212.06 36.096C212.06 34.9867 212.124 33.5787 212.252 31.872C212.38 30.1227 212.444 28.288 212.444 26.368V13.056C212.444 9.6 213.254 7.168 214.876 5.76C216.54 4.352 219.121 3.648 222.62 3.648C223.814 3.648 225.137 4.01067 226.588 4.736C228.038 5.46133 229.425 6.37867 230.748 7.488C232.113 8.55467 233.222 9.68533 234.076 10.88C234.972 12.0747 235.42 13.1413 235.42 14.08C235.42 14.8907 235.398 16.1067 235.356 17.728C235.356 19.3067 235.334 21.0987 235.292 23.104C235.249 25.0667 235.206 27.0293 235.164 28.992C235.164 30.9547 235.164 32.704 235.164 34.24C235.164 37.6107 234.374 40.192 232.796 41.984C231.26 43.7333 228.977 44.608 225.948 44.608ZM221.02 38.784C223.964 38.784 225.969 38.08 227.036 36.672C228.102 35.264 228.636 32.9387 228.636 29.696C228.636 29.0987 228.636 28.2027 228.636 27.008C228.678 25.8133 228.721 24.4907 228.764 23.04C228.849 21.5467 228.913 20.0747 228.956 18.624C228.998 17.1307 229.02 15.808 229.02 14.656C229.062 13.504 229.084 12.6507 229.084 12.096C229.084 11.2 228.87 10.56 228.444 10.176C228.017 9.792 227.292 9.6 226.268 9.6C224.262 9.6 222.726 9.81334 221.66 10.24C220.593 10.6667 219.868 11.3067 219.484 12.16C219.142 13.0133 218.972 14.1227 218.972 15.488V29.12C218.972 31.168 218.908 32.8533 218.78 34.176C218.694 35.4987 218.652 36.416 218.652 36.928C218.652 38.1653 219.441 38.784 221.02 38.784ZM256.609 45.12C253.878 44.096 251.766 43.1787 250.273 42.368C248.822 41.5147 248.097 40.7467 248.097 40.064C248.097 39.4667 248.161 38.5493 248.289 37.312C248.459 36.032 248.545 34.7947 248.545 33.6V25.408C248.545 24.5547 248.566 23.488 248.609 22.208C248.694 20.928 248.843 19.84 249.057 18.944H246.689L243.361 14.528L243.809 13.504H249.825C249.995 13.504 250.358 13.8027 250.913 14.4C251.51 14.9547 252.107 15.5947 252.705 16.32C253.515 15.2107 254.518 14.4 255.713 13.888C256.95 13.3333 258.145 13.056 259.297 13.056H260.641C261.494 13.056 262.433 13.3973 263.457 14.08C264.523 14.7627 265.547 15.5947 266.529 16.576C267.553 17.5573 268.385 18.5387 269.025 19.52C269.665 20.4587 269.985 21.2267 269.985 21.824C269.985 22.8907 269.942 24.2133 269.857 25.792C269.771 27.3707 269.729 28.6507 269.729 29.632V34.304C269.729 35.84 269.665 37.2053 269.537 38.4C269.409 39.552 269.345 40.4267 269.345 41.024C269.345 41.4507 269.494 41.792 269.793 42.048C270.134 42.2613 270.945 42.7093 272.225 43.392L271.457 45.12C268.726 44.096 266.614 43.1787 265.121 42.368C263.67 41.5147 262.945 40.7467 262.945 40.064C262.945 39.4667 263.009 38.5493 263.137 37.312C263.307 36.032 263.393 34.7947 263.393 33.6V30.272C263.393 28.9067 263.435 27.3493 263.521 25.6C263.606 23.8507 263.649 22.3147 263.649 20.992C263.649 20.1387 263.542 19.5627 263.329 19.264C263.115 18.9653 262.646 18.816 261.921 18.816C259.531 18.816 257.761 19.4347 256.609 20.672C255.457 21.8667 254.881 23.5307 254.881 25.664V34.304C254.881 35.84 254.817 37.2053 254.689 38.4C254.561 39.552 254.497 40.4267 254.497 41.024C254.497 41.4507 254.646 41.792 254.945 42.048C255.286 42.2613 256.097 42.7093 257.377 43.392L256.609 45.12ZM295.405 44.672C294.381 44.672 293.122 44.416 291.629 43.904C290.136 43.3493 288.642 42.6453 287.149 41.792C285.698 40.896 284.482 39.936 283.501 38.912C282.52 37.8453 282.029 36.8 282.029 35.776C282.029 34.752 282.093 32.9813 282.221 30.464C282.392 27.9467 282.477 24.9387 282.477 21.44C282.477 15.8933 285.506 13.12 291.565 13.12C292.504 13.12 293.592 13.4187 294.829 14.016C296.066 14.5707 297.261 15.3173 298.413 16.256C299.565 17.152 300.525 18.0907 301.293 19.072C302.061 20.0533 302.445 20.9707 302.445 21.824V27.072C302.445 30.528 300.525 32.256 296.685 32.256C295.49 32.256 294.125 32.192 292.589 32.064C291.053 31.8933 289.688 31.7013 288.493 31.488C288.45 32.896 288.408 34.176 288.365 35.328C288.365 36.4373 288.365 37.0773 288.365 37.248C288.365 37.9307 288.536 38.4213 288.877 38.72C289.218 39.0187 289.837 39.168 290.733 39.168C292.056 39.168 293.485 38.976 295.021 38.592C296.6 38.1653 298.008 37.5467 299.245 36.736H300.205L303.661 41.984C302.85 42.752 301.634 43.392 300.013 43.904C298.434 44.416 296.898 44.672 295.405 44.672ZM288.685 23.488C288.685 23.8293 288.664 24.3413 288.621 25.024C288.621 25.7067 288.621 26.4747 288.621 27.328C289.858 27.456 291.288 27.52 292.909 27.52C294.146 27.52 295 27.2213 295.469 26.624C295.981 25.984 296.237 25.024 296.237 23.744V20.288C296.237 19.8187 296.109 19.4133 295.853 19.072C295.597 18.7307 295.042 18.56 294.189 18.56C292.482 18.56 291.138 18.9227 290.157 19.648C289.176 20.3307 288.685 21.6107 288.685 23.488Z"/>
</svg>
