<svg width="253" height="42" viewBox="0 0 253 42" fill="none" xmlns="http://www.w3.org/2000/svg">
<path d="M12.608 41.472C9.792 40.5333 7.65866 39.6587 6.208 38.848C4.75733 38.0373 4.032 37.376 4.032 36.864C4.032 36.3947 4.07466 35.904 4.16 35.392C4.24533 34.88 4.33066 34.1333 4.416 33.152C4.50133 32.1707 4.544 30.7627 4.544 28.928V17.664C4.544 14.6347 4.608 12.1813 4.736 10.304C4.90666 8.42667 5.12 6.95466 5.376 5.888H3.136L-4.64171e-06 1.6L0.447995 0.575996H8.896C9.152 0.575996 9.64266 1.10933 10.368 2.176C11.0933 3.24266 11.9467 4.97066 12.928 7.36L21.888 28.992C21.6747 26.5173 21.5467 24.1067 21.504 21.76V15.36C21.504 13.0133 21.568 11.1147 21.696 9.664C21.8667 8.17067 22.08 6.912 22.336 5.888H19.904L17.152 1.6L17.6 0.575996H25.984L29.184 5.376C28.8853 6.18667 28.608 7.27467 28.352 8.64C28.096 9.96267 27.968 11.8827 27.968 14.4V26.56C27.968 29.6747 27.8827 32.2133 27.712 34.176C27.584 36.1387 27.456 37.4187 27.328 38.016C27.712 38.272 28.1173 38.528 28.544 38.784C28.9707 38.9973 29.3973 39.2107 29.824 39.424L28.864 41.408C26.4747 40.4267 24.4693 39.4027 22.848 38.336C21.2693 37.2693 20.3733 36.48 20.16 35.968L10.88 13.376C10.9653 14.6987 11.008 16.0427 11.008 17.408C11.008 18.7733 11.008 20.1173 11.008 21.44V30.336C11.008 32.1707 10.944 33.6427 10.816 34.752C10.7307 35.8187 10.688 36.6507 10.688 37.248C10.688 37.9733 11.6053 38.7627 13.44 39.616L12.608 41.472ZM47.433 41.6C46.3663 41.216 45.2143 40.8107 43.977 40.384C42.7823 39.9147 41.7583 39.4667 40.905 39.04C40.0517 38.6133 39.625 38.3147 39.625 38.144C39.625 37.9733 39.7743 37.248 40.073 35.968C40.4143 34.6453 40.841 32.9813 41.353 30.976C41.9077 28.928 42.4837 26.7093 43.081 24.32C43.721 21.9307 44.361 19.5627 45.001 17.216C45.641 14.8267 46.2383 12.6507 46.793 10.688C47.3477 8.68267 47.7957 7.08267 48.137 5.888H44.809L41.929 1.6L42.313 0.575996H55.497L59.209 5.952C59.721 8.04266 60.2543 10.4107 60.809 13.056C61.3637 15.6587 61.9183 18.3253 62.473 21.056C63.0277 23.744 63.5397 26.24 64.009 28.544C64.4783 30.848 64.8623 32.768 65.161 34.304C65.4597 35.84 65.6303 36.7147 65.673 36.928C65.7583 37.4827 65.993 37.9093 66.377 38.208C66.761 38.5067 67.4437 38.912 68.425 39.424L67.657 41.472C66.377 41.0453 65.097 40.5547 63.817 40C62.5797 39.4453 61.5557 38.912 60.745 38.4C59.9343 37.888 59.5077 37.5253 59.465 37.312C59.337 35.9467 59.1877 34.56 59.017 33.152C58.8463 31.7013 58.6543 30.272 58.441 28.864C58.057 28.8213 57.673 28.8 57.289 28.8C55.753 28.8 54.153 28.9707 52.489 29.312C50.825 29.6533 49.3103 30.272 47.945 31.168C47.6463 32.3627 47.3263 33.5787 46.985 34.816C46.6863 36.0533 46.3877 37.2907 46.089 38.528L48.201 39.552L47.433 41.6ZM52.873 23.616C54.5797 23.616 56.2437 24.0853 57.865 25.024C57.353 21.6107 56.777 18.304 56.137 15.104C55.5397 11.8613 55.0063 8.98133 54.537 6.464C53.9397 8.64 53.2357 11.2 52.425 14.144C51.657 17.088 50.8037 20.352 49.865 23.936C50.889 23.7227 51.8917 23.616 52.873 23.616ZM88.081 40.96C84.625 40.96 81.8303 39.808 79.697 37.504C77.5637 35.2 75.985 31.7227 74.961 27.072L77.137 26.496C78.1183 28.8427 79.2063 30.592 80.401 31.744C81.6383 32.8533 83.2383 33.408 85.201 33.408C86.8223 33.408 88.273 33.0453 89.553 32.32C90.833 31.5947 91.8357 30.6133 92.561 29.376C93.329 28.096 93.713 26.688 93.713 25.152C93.713 23.5307 93.2437 22.72 92.305 22.72C91.5797 22.72 90.6837 22.848 89.617 23.104C88.593 23.36 87.569 23.616 86.545 23.872C85.521 24.128 84.689 24.256 84.049 24.256C83.1957 24.256 82.2997 23.8507 81.361 23.04C80.4223 22.1867 79.5477 21.0773 78.737 19.712C77.9263 18.304 77.265 16.8107 76.753 15.232C76.2837 13.6107 76.049 12.032 76.049 10.496C76.049 7.08267 76.9663 4.50133 78.801 2.752C80.6783 0.959999 83.217 0.0639992 86.417 0.0639992C91.8783 0.0639992 95.5477 3.584 97.425 10.624L95.249 11.2C94.5663 9.74933 93.6277 8.704 92.433 8.064C91.2383 7.424 89.8943 7.104 88.401 7.104C86.0543 7.104 84.2197 7.744 82.897 9.024C81.617 10.304 80.977 12.16 80.977 14.592C80.977 15.4027 81.105 15.9787 81.361 16.32C81.6597 16.6613 81.9797 16.832 82.321 16.832C83.1743 16.832 84.1557 16.6613 85.265 16.32C86.417 15.9787 87.5263 15.6587 88.593 15.36C89.7023 15.0187 90.5983 14.848 91.281 14.848C92.177 14.848 93.137 15.4667 94.161 16.704C95.185 17.8987 96.0597 19.52 96.785 21.568C97.553 23.616 97.937 25.8773 97.937 28.352C97.937 32.32 97.1477 35.4133 95.569 37.632C93.9903 39.8507 91.4943 40.96 88.081 40.96ZM115.295 41.6C114.229 41.216 113.077 40.8107 111.839 40.384C110.645 39.9147 109.621 39.4667 108.767 39.04C107.914 38.6133 107.487 38.3147 107.487 38.144C107.487 37.9733 107.637 37.248 107.935 35.968C108.277 34.6453 108.703 32.9813 109.215 30.976C109.77 28.928 110.346 26.7093 110.943 24.32C111.583 21.9307 112.223 19.5627 112.863 17.216C113.503 14.8267 114.101 12.6507 114.655 10.688C115.21 8.68267 115.658 7.08267 115.999 5.888H112.671L109.791 1.6L110.175 0.575996H123.359L127.071 5.952C127.583 8.04266 128.117 10.4107 128.671 13.056C129.226 15.6587 129.781 18.3253 130.335 21.056C130.89 23.744 131.402 26.24 131.871 28.544C132.341 30.848 132.725 32.768 133.023 34.304C133.322 35.84 133.493 36.7147 133.535 36.928C133.621 37.4827 133.855 37.9093 134.239 38.208C134.623 38.5067 135.306 38.912 136.287 39.424L135.519 41.472C134.239 41.0453 132.959 40.5547 131.679 40C130.442 39.4453 129.418 38.912 128.607 38.4C127.797 37.888 127.37 37.5253 127.327 37.312C127.199 35.9467 127.05 34.56 126.879 33.152C126.709 31.7013 126.517 30.272 126.303 28.864C125.919 28.8213 125.535 28.8 125.151 28.8C123.615 28.8 122.015 28.9707 120.351 29.312C118.687 29.6533 117.173 30.272 115.807 31.168C115.509 32.3627 115.189 33.5787 114.847 34.816C114.549 36.0533 114.25 37.2907 113.951 38.528L116.063 39.552L115.295 41.6ZM120.735 23.616C122.442 23.616 124.106 24.0853 125.727 25.024C125.215 21.6107 124.639 18.304 123.999 15.104C123.402 11.8613 122.869 8.98133 122.399 6.464C121.802 8.64 121.098 11.2 120.287 14.144C119.519 17.088 118.666 20.352 117.727 23.936C118.751 23.7227 119.754 23.616 120.735 23.616ZM173.408 40.96C172.213 40.96 170.805 40.6827 169.184 40.128C167.563 39.5307 165.963 38.784 164.384 37.888C162.848 36.992 161.568 36.0533 160.544 35.072C159.563 34.0907 159.072 33.1947 159.072 32.384C159.072 31.2747 159.136 29.8667 159.264 28.16C159.435 26.4107 159.52 24.576 159.52 22.656V11.584C159.52 7.40267 160.373 4.43733 162.08 2.688C163.829 0.896 166.24 0 169.312 0C170.592 0 171.893 0.341333 173.216 1.024C174.581 1.70666 175.84 2.56 176.992 3.584C178.187 4.608 179.147 5.67466 179.872 6.784C180.597 7.89333 180.96 8.87466 180.96 9.728C180.96 10.7093 180.896 11.8187 180.768 13.056C180.64 14.2507 180.427 15.36 180.128 16.384L173.792 14.912C173.963 13.888 174.112 12.8 174.24 11.648C174.411 10.496 174.496 9.30133 174.496 8.064C174.496 6.656 173.749 5.952 172.256 5.952C170.379 5.952 168.885 6.48533 167.776 7.552C166.667 8.576 166.112 10.3467 166.112 12.864V25.216C166.112 27.3493 166.048 29.056 165.92 30.336C165.835 31.616 165.792 32.512 165.792 33.024C165.792 34.5173 166.56 35.264 168.096 35.264C170.101 35.264 171.744 34.7947 173.024 33.856C174.304 32.9173 175.413 31.424 176.352 29.376H177.12L182.432 32.448C181.536 35.1787 180.299 37.2907 178.72 38.784C177.184 40.2347 175.413 40.96 173.408 40.96ZM207.39 40.192C202.313 40.192 198.579 39.8507 196.19 39.168C193.801 38.4427 192.606 37.888 192.606 37.504C192.606 36.6507 192.755 35.0507 193.054 32.704C193.395 30.3573 193.566 27.4133 193.566 23.872V15.744C193.609 13.2693 193.737 11.2427 193.95 9.664C194.163 8.04267 194.398 6.784 194.654 5.888H192.478L189.278 1.6L189.79 0.575996H210.526L214.11 5.184L210.974 7.936H209.63C209.161 7.168 208.606 6.63466 207.966 6.336C207.369 6.03733 206.494 5.888 205.342 5.888H201.31C201.011 7.04 200.713 8.49066 200.414 10.24C200.158 11.9893 200.03 14.0587 200.03 16.448V17.344H208.606L211.486 21.952L210.654 22.912H200.03V25.472C200.03 27.3067 199.987 28.8853 199.902 30.208C199.859 31.488 199.753 32.7893 199.582 34.112C200.265 34.24 201.097 34.3467 202.078 34.432C203.059 34.4747 204.147 34.496 205.342 34.496C206.494 34.496 207.603 34.4533 208.67 34.368C209.779 34.2827 210.803 34.176 211.742 34.048L214.686 39.104L213.918 40.192H207.39ZM231.458 41.6C230.391 41.216 229.239 40.8107 228.002 40.384C226.807 39.9147 225.783 39.4667 224.93 39.04C224.077 38.6133 223.65 38.3147 223.65 38.144C223.65 37.9733 223.799 37.248 224.098 35.968C224.439 34.6453 224.866 32.9813 225.378 30.976C225.933 28.928 226.509 26.7093 227.106 24.32C227.746 21.9307 228.386 19.5627 229.026 17.216C229.666 14.8267 230.263 12.6507 230.818 10.688C231.373 8.68267 231.821 7.08267 232.162 5.888H228.834L225.954 1.6L226.338 0.575996H239.522L243.234 5.952C243.746 8.04266 244.279 10.4107 244.834 13.056C245.389 15.6587 245.943 18.3253 246.498 21.056C247.053 23.744 247.565 26.24 248.034 28.544C248.503 30.848 248.887 32.768 249.186 34.304C249.485 35.84 249.655 36.7147 249.698 36.928C249.783 37.4827 250.018 37.9093 250.402 38.208C250.786 38.5067 251.469 38.912 252.45 39.424L251.682 41.472C250.402 41.0453 249.122 40.5547 247.842 40C246.605 39.4453 245.581 38.912 244.77 38.4C243.959 37.888 243.533 37.5253 243.49 37.312C243.362 35.9467 243.213 34.56 243.042 33.152C242.871 31.7013 242.679 30.272 242.466 28.864C242.082 28.8213 241.698 28.8 241.314 28.8C239.778 28.8 238.178 28.9707 236.514 29.312C234.85 29.6533 233.335 30.272 231.97 31.168C231.671 32.3627 231.351 33.5787 231.01 34.816C230.711 36.0533 230.413 37.2907 230.114 38.528L232.226 39.552L231.458 41.6ZM236.898 23.616C238.605 23.616 240.269 24.0853 241.89 25.024C241.378 21.6107 240.802 18.304 240.162 15.104C239.565 11.8613 239.031 8.98133 238.562 6.464C237.965 8.64 237.261 11.2 236.45 14.144C235.682 17.088 234.829 20.352 233.89 23.936C234.914 23.7227 235.917 23.616 236.898 23.616Z"/>
</svg>
