<svg width="319" height="60" viewBox="0 0 319 60" fill="none" xmlns="http://www.w3.org/2000/svg">
<path d="M13.888 45.568C12.7787 45.568 11.4347 45.2907 9.856 44.736C8.32 44.1387 6.784 43.392 5.248 42.496C3.75467 41.6 2.496 40.6827 1.472 39.744C0.490665 38.7627 -1.43051e-06 37.8667 -1.43051e-06 37.056C-1.43051e-06 35.9467 0.0639985 34.5387 0.191998 32.832C0.319999 31.0827 0.383999 29.248 0.383999 27.328V14.016C0.383999 10.56 1.19467 8.128 2.816 6.72C4.48 5.312 7.06133 4.608 10.56 4.608C11.7547 4.608 13.0773 4.97067 14.528 5.696C15.9787 6.42133 17.3653 7.33867 18.688 8.448C20.0533 9.51467 21.1627 10.6453 22.016 11.84C22.912 13.0347 23.36 14.1013 23.36 15.04C23.36 15.8507 23.3387 17.0667 23.296 18.688C23.296 20.2667 23.2747 22.0587 23.232 24.064C23.1893 26.0267 23.1467 27.9893 23.104 29.952C23.104 31.9147 23.104 33.664 23.104 35.2C23.104 38.5707 22.3147 41.152 20.736 42.944C19.2 44.6933 16.9173 45.568 13.888 45.568ZM8.96 39.744C11.904 39.744 13.9093 39.04 14.976 37.632C16.0427 36.224 16.576 33.8987 16.576 30.656C16.576 30.0587 16.576 29.1627 16.576 27.968C16.6187 26.7733 16.6613 25.4507 16.704 24C16.7893 22.5067 16.8533 21.0347 16.896 19.584C16.9387 18.0907 16.96 16.768 16.96 15.616C17.0027 14.464 17.024 13.6107 17.024 13.056C17.024 12.16 16.8107 11.52 16.384 11.136C15.9573 10.752 15.232 10.56 14.208 10.56C12.2027 10.56 10.6667 10.7733 9.6 11.2C8.53333 11.6267 7.808 12.2667 7.424 13.12C7.08267 13.9733 6.912 15.0827 6.912 16.448V30.08C6.912 32.128 6.848 33.8133 6.72 35.136C6.63467 36.4587 6.592 37.376 6.592 37.888C6.592 39.1253 7.38133 39.744 8.96 39.744ZM49.925 45.504C48.517 45.504 47.1943 45.312 45.957 44.928C44.7623 44.544 43.717 44.096 42.821 43.584V48.576C42.821 50.112 42.757 51.456 42.629 52.608C42.501 53.8027 42.437 54.6987 42.437 55.296C42.437 55.7227 42.5863 56.0427 42.885 56.256C43.2263 56.512 44.037 56.9813 45.317 57.664L44.549 59.392C41.8183 58.368 39.7063 57.4293 38.213 56.576C36.7623 55.7653 36.037 55.0187 36.037 54.336C36.037 53.7387 36.101 52.8 36.229 51.52C36.3997 50.2827 36.485 49.0667 36.485 47.872V26.496C36.485 25.6853 36.5063 24.6187 36.549 23.296C36.6343 21.9733 36.7837 20.8427 36.997 19.904H34.629L31.301 15.488L31.749 14.464H37.765C37.9357 14.464 38.2983 14.7627 38.853 15.36C39.4077 15.9147 39.9837 16.5547 40.581 17.28C41.221 16.2987 42.1383 15.5093 43.333 14.912C44.5703 14.3147 45.893 14.016 47.301 14.016H48.517C49.4557 14.016 50.4797 14.4 51.589 15.168C52.6983 15.8933 53.7437 16.8107 54.725 17.92C55.7063 18.9867 56.517 20.0533 57.157 21.12C57.797 22.1867 58.117 23.0613 58.117 23.744C58.117 24.9387 58.0957 26.624 58.053 28.8C58.0103 30.9333 57.989 33.472 57.989 36.416C57.989 39.1893 57.2637 41.408 55.813 43.072C54.3623 44.6933 52.3997 45.504 49.925 45.504ZM50.053 19.968C47.9197 19.968 46.213 20.288 44.933 20.928C43.653 21.5253 42.949 22.7627 42.821 24.64C42.821 25.1093 42.821 25.5147 42.821 25.856V39.936C43.589 40.1067 44.3997 40.192 45.253 40.192C47.557 40.192 49.1997 39.6587 50.181 38.592C51.1623 37.5253 51.653 36.032 51.653 34.112C51.653 32.7467 51.6743 31.3173 51.717 29.824C51.7597 28.3307 51.781 26.9227 51.781 25.6C51.8237 24.2773 51.845 23.1893 51.845 22.336C51.845 21.7387 51.7597 21.2053 51.589 20.736C51.4183 20.224 50.9063 19.968 50.053 19.968ZM82.7205 45.632C81.6965 45.632 80.4378 45.376 78.9445 44.864C77.4512 44.3093 75.9578 43.6053 74.4645 42.752C73.0138 41.856 71.7978 40.896 70.8165 39.872C69.8352 38.8053 69.3445 37.76 69.3445 36.736C69.3445 35.712 69.4085 33.9413 69.5365 31.424C69.7072 28.9067 69.7925 25.8987 69.7925 22.4C69.7925 16.8533 72.8218 14.08 78.8805 14.08C79.8192 14.08 80.9072 14.3787 82.1445 14.976C83.3818 15.5307 84.5765 16.2773 85.7285 17.216C86.8805 18.112 87.8405 19.0507 88.6085 20.032C89.3765 21.0133 89.7605 21.9307 89.7605 22.784V28.032C89.7605 31.488 87.8405 33.216 84.0005 33.216C82.8058 33.216 81.4405 33.152 79.9045 33.024C78.3685 32.8533 77.0032 32.6613 75.8085 32.448C75.7658 33.856 75.7232 35.136 75.6805 36.288C75.6805 37.3973 75.6805 38.0373 75.6805 38.208C75.6805 38.8907 75.8512 39.3813 76.1925 39.68C76.5338 39.9787 77.1525 40.128 78.0485 40.128C79.3712 40.128 80.8005 39.936 82.3365 39.552C83.9152 39.1253 85.3232 38.5067 86.5605 37.696H87.5205L90.9765 42.944C90.1658 43.712 88.9498 44.352 87.3285 44.864C85.7498 45.376 84.2138 45.632 82.7205 45.632ZM76.0005 24.448C76.0005 24.7893 75.9792 25.3013 75.9365 25.984C75.9365 26.6667 75.9365 27.4347 75.9365 28.288C77.1738 28.416 78.6032 28.48 80.2245 28.48C81.4618 28.48 82.3152 28.1813 82.7845 27.584C83.2965 26.944 83.5525 25.984 83.5525 24.704V21.248C83.5525 20.7787 83.4245 20.3733 83.1685 20.032C82.9125 19.6907 82.3578 19.52 81.5045 19.52C79.7978 19.52 78.4538 19.8827 77.4725 20.608C76.4912 21.2907 76.0005 22.5707 76.0005 24.448ZM110.724 46.08C107.993 45.056 105.881 44.1387 104.388 43.328C102.937 42.4747 102.212 41.7067 102.212 41.024C102.212 40.4267 102.276 39.5093 102.404 38.272C102.575 36.992 102.66 35.7547 102.66 34.56V26.368C102.66 25.5147 102.681 24.448 102.724 23.168C102.809 21.888 102.959 20.8 103.172 19.904H100.804L97.476 15.488L97.924 14.464H103.94C104.111 14.464 104.473 14.7627 105.028 15.36C105.625 15.9147 106.223 16.5547 106.82 17.28C107.631 16.1707 108.633 15.36 109.828 14.848C111.065 14.2933 112.26 14.016 113.412 14.016H114.756C115.609 14.016 116.548 14.3573 117.572 15.04C118.639 15.7227 119.663 16.5547 120.644 17.536C121.668 18.5173 122.5 19.4987 123.14 20.48C123.78 21.4187 124.1 22.1867 124.1 22.784C124.1 23.8507 124.057 25.1733 123.972 26.752C123.887 28.3307 123.844 29.6107 123.844 30.592V35.264C123.844 36.8 123.78 38.1653 123.652 39.36C123.524 40.512 123.46 41.3867 123.46 41.984C123.46 42.4107 123.609 42.752 123.908 43.008C124.249 43.2213 125.06 43.6693 126.34 44.352L125.572 46.08C122.841 45.056 120.729 44.1387 119.236 43.328C117.785 42.4747 117.06 41.7067 117.06 41.024C117.06 40.4267 117.124 39.5093 117.252 38.272C117.423 36.992 117.508 35.7547 117.508 34.56V31.232C117.508 29.8667 117.551 28.3093 117.636 26.56C117.721 24.8107 117.764 23.2747 117.764 21.952C117.764 21.0987 117.657 20.5227 117.444 20.224C117.231 19.9253 116.761 19.776 116.036 19.776C113.647 19.776 111.876 20.3947 110.724 21.632C109.572 22.8267 108.996 24.4907 108.996 26.624V35.264C108.996 36.8 108.932 38.1653 108.804 39.36C108.676 40.512 108.612 41.3867 108.612 41.984C108.612 42.4107 108.761 42.752 109.06 43.008C109.401 43.2213 110.212 43.6693 111.492 44.352L110.724 46.08ZM146.193 46.208C143.377 45.2693 141.243 44.3947 139.793 43.584C138.342 42.7733 137.617 42.112 137.617 41.6C137.617 41.1307 137.659 40.64 137.745 40.128C137.83 39.616 137.915 38.8693 138.001 37.888C138.086 36.9067 138.129 35.4987 138.129 33.664V21.504C138.129 18.688 138.235 16.4053 138.449 14.656C138.705 12.864 138.961 11.4773 139.217 10.496H137.041L133.841 6.208L134.353 5.184H140.369C141.691 5.14133 143.014 5.09867 144.337 5.056C145.702 4.97067 146.769 4.928 147.537 4.928C148.689 4.928 149.947 5.26933 151.313 5.952C152.721 6.63467 154.043 7.50933 155.281 8.576C156.561 9.64267 157.606 10.752 158.417 11.904C159.227 13.0133 159.633 13.9947 159.633 14.848V20.544C159.633 24.2133 158.033 26.8373 154.833 28.416C158.203 30.2507 159.889 32.1707 159.889 34.176C159.889 35.1147 159.867 36.2667 159.825 37.632C159.782 38.9973 159.761 40.1707 159.761 41.152C159.761 41.8347 159.995 42.4107 160.465 42.88C160.934 43.3067 161.723 43.8187 162.833 44.416L161.873 46.336C159.014 45.0987 156.817 44.032 155.281 43.136C153.745 42.24 152.977 41.2587 152.977 40.192C152.977 39.1253 153.019 37.9947 153.105 36.8C153.19 35.5627 153.233 34.5387 153.233 33.728C153.233 32.2773 152.635 31.168 151.441 30.4C150.246 29.5893 148.347 29.184 145.745 29.184H144.593V35.072C144.593 36.9067 144.529 38.3787 144.401 39.488C144.315 40.5547 144.273 41.3867 144.273 41.984C144.273 42.7093 145.19 43.4987 147.025 44.352L146.193 46.208ZM150.737 10.496C149.926 10.496 149.094 10.5387 148.241 10.624C147.43 10.6667 146.598 10.752 145.745 10.88C145.446 12.032 145.169 13.4613 144.913 15.168C144.699 16.832 144.593 18.7947 144.593 21.056V23.808H148.561C150.054 23.808 151.206 23.296 152.017 22.272C152.87 21.2053 153.297 19.6907 153.297 17.728V14.208C153.297 12.8427 153.105 11.8827 152.721 11.328C152.337 10.7733 151.675 10.496 150.737 10.496ZM183.905 45.76C182.881 45.76 181.644 45.504 180.193 44.992C178.743 44.48 177.335 43.7973 175.969 42.944C174.604 42.0907 173.452 41.1093 172.513 40C171.617 38.8907 171.169 37.76 171.169 36.608C171.169 36.096 171.233 34.6027 171.361 32.128C171.532 29.6533 171.617 26.56 171.617 22.848C171.617 19.8613 172.492 17.664 174.241 16.256C175.991 14.848 178.615 14.144 182.113 14.144C183.137 14.144 184.268 14.464 185.505 15.104C186.785 15.744 188.001 16.576 189.153 17.6C190.306 18.624 191.244 19.712 191.969 20.864C192.737 21.9733 193.122 23.0187 193.122 24C193.122 25.6213 193.079 27.3707 192.993 29.248C192.951 31.1253 192.929 33.536 192.929 36.48C192.929 39.2107 192.183 41.4507 190.689 43.2C189.196 44.9067 186.935 45.76 183.905 45.76ZM179.809 40.32C182.156 40.32 183.863 39.8293 184.929 38.848C186.039 37.8667 186.594 36.416 186.594 34.496C186.594 33.1307 186.615 31.5947 186.657 29.888C186.7 28.1387 186.743 26.5387 186.785 25.088C186.828 23.5947 186.849 22.5493 186.849 21.952C186.849 21.2267 186.721 20.6933 186.465 20.352C186.209 19.968 185.697 19.776 184.929 19.776C182.625 19.776 180.855 20.1813 179.617 20.992C178.423 21.76 177.825 23.232 177.825 25.408C177.825 29.504 177.783 32.5973 177.697 34.688C177.612 36.736 177.569 38.1227 177.569 38.848C177.569 39.8293 178.316 40.32 179.809 40.32ZM220.577 36.16L225.953 39.616C225.1 41.6213 223.862 43.1573 222.241 44.224C220.662 45.2907 218.87 45.824 216.865 45.824C215.585 45.824 214.22 45.5467 212.769 44.992C211.318 44.3947 209.953 43.648 208.673 42.752C207.393 41.856 206.326 40.9173 205.473 39.936C204.662 38.9547 204.257 38.0373 204.257 37.184C204.257 36.6293 204.257 35.776 204.257 34.624C204.3 33.472 204.321 32.2773 204.321 31.04C204.364 29.76 204.385 28.6933 204.385 27.84V22.592C204.385 19.776 205.238 17.6427 206.945 16.192C208.652 14.6987 210.934 13.952 213.793 13.952C214.689 13.952 215.734 14.2293 216.929 14.784C218.124 15.296 219.297 16 220.449 16.896C221.601 17.7493 222.561 18.7093 223.329 19.776C224.097 20.8 224.481 21.824 224.481 22.848C224.481 23.9573 224.438 24.9387 224.353 25.792C224.268 26.6027 224.161 27.3493 224.033 28.032L217.441 26.752C217.782 24.704 217.953 22.912 217.953 21.376C217.953 20.6507 217.804 20.16 217.505 19.904C217.249 19.648 216.822 19.52 216.225 19.52C212.556 19.52 210.721 21.3547 210.721 25.024V30.144C210.721 32.8747 210.678 34.88 210.593 36.16C210.55 37.3973 210.529 38.3787 210.529 39.104C210.529 39.5733 210.742 39.936 211.169 40.192C211.596 40.448 212.129 40.576 212.769 40.576C214.348 40.576 215.692 40.256 216.801 39.616C217.91 38.9333 218.913 37.8453 219.809 36.352L220.577 36.16ZM244.75 46.208C242.019 45.184 239.907 44.2667 238.414 43.456C236.963 42.6027 236.238 41.8347 236.238 41.152C236.238 40.5547 236.302 39.6373 236.43 38.4C236.6 37.12 236.686 35.8827 236.686 34.688V17.472C236.686 14.912 236.771 12.5653 236.942 10.432C237.155 8.256 237.411 6.50667 237.71 5.184H234.958L231.438 1.024L231.886 0H240.206L243.982 4.864C243.683 6.528 243.448 8.42667 243.278 10.56C243.107 12.6507 243.022 14.784 243.022 16.96V25.664C243.406 25.792 243.939 25.856 244.622 25.856C245.987 25.856 247.054 25.6213 247.822 25.152C248.59 24.6827 249.4 23.9573 250.254 22.976C250.766 22.3787 251.192 21.824 251.534 21.312C251.918 20.7573 252.216 20.288 252.43 19.904H250.062L247.054 15.488L247.502 14.464H254.67L258.254 19.904C257.912 20.7147 257.486 21.6107 256.974 22.592C256.504 23.5307 255.992 24.3627 255.438 25.088C254.03 27.008 252.728 28.3947 251.534 29.248C253.07 29.9307 254.456 30.7413 255.694 31.68C256.931 32.6187 257.55 33.6213 257.55 34.688C257.55 35.2427 257.528 35.9467 257.486 36.8C257.486 37.6533 257.464 38.5067 257.422 39.36C257.379 40.1707 257.358 40.832 257.358 41.344C257.358 42.0693 257.592 42.6667 258.062 43.136C258.574 43.6053 259.342 44.1813 260.366 44.864L259.342 46.528C256.611 45.248 254.52 44.2453 253.07 43.52C251.619 42.752 250.894 42.048 250.894 41.408C250.894 40.8533 250.915 40.128 250.958 39.232C251 38.336 251.043 37.3973 251.086 36.416C251.128 35.4347 251.15 34.5813 251.15 33.856C251.15 33.216 250.659 32.576 249.678 31.936C248.739 31.2533 247.203 30.7627 245.07 30.464L243.022 30.208V35.392C243.022 36.928 242.958 38.2933 242.83 39.488C242.702 40.64 242.638 41.5147 242.638 42.112C242.638 42.5387 242.787 42.88 243.086 43.136C243.427 43.3493 244.238 43.7973 245.518 44.48L244.75 46.208ZM252.814 19.072L252.558 19.648C252.643 19.4347 252.728 19.2427 252.814 19.072ZM282.433 45.632C281.409 45.632 280.15 45.376 278.657 44.864C277.164 44.3093 275.67 43.6053 274.177 42.752C272.726 41.856 271.51 40.896 270.529 39.872C269.548 38.8053 269.057 37.76 269.057 36.736C269.057 35.712 269.121 33.9413 269.249 31.424C269.42 28.9067 269.505 25.8987 269.505 22.4C269.505 16.8533 272.534 14.08 278.593 14.08C279.532 14.08 280.62 14.3787 281.857 14.976C283.094 15.5307 284.289 16.2773 285.441 17.216C286.593 18.112 287.553 19.0507 288.321 20.032C289.089 21.0133 289.473 21.9307 289.473 22.784V28.032C289.473 31.488 287.553 33.216 283.713 33.216C282.518 33.216 281.153 33.152 279.617 33.024C278.081 32.8533 276.716 32.6613 275.521 32.448C275.478 33.856 275.436 35.136 275.393 36.288C275.393 37.3973 275.393 38.0373 275.393 38.208C275.393 38.8907 275.564 39.3813 275.905 39.68C276.246 39.9787 276.865 40.128 277.761 40.128C279.084 40.128 280.513 39.936 282.049 39.552C283.628 39.1253 285.036 38.5067 286.273 37.696H287.233L290.689 42.944C289.878 43.712 288.662 44.352 287.041 44.864C285.462 45.376 283.926 45.632 282.433 45.632ZM275.713 24.448C275.713 24.7893 275.692 25.3013 275.649 25.984C275.649 26.6667 275.649 27.4347 275.649 28.288C276.886 28.416 278.316 28.48 279.937 28.48C281.174 28.48 282.028 28.1813 282.497 27.584C283.009 26.944 283.265 25.984 283.265 24.704V21.248C283.265 20.7787 283.137 20.3733 282.881 20.032C282.625 19.6907 282.07 19.52 281.217 19.52C279.51 19.52 278.166 19.8827 277.185 20.608C276.204 21.2907 275.713 22.5707 275.713 24.448ZM311.973 45.568C311.333 45.568 310.458 45.3333 309.349 44.864C308.239 44.352 307.109 43.712 305.957 42.944C304.805 42.1333 303.823 41.3013 303.013 40.448C302.202 39.552 301.797 38.6987 301.797 37.888C301.797 37.4187 301.818 36.928 301.861 36.416C301.903 35.904 301.967 35.2427 302.053 34.432C302.138 33.5787 302.202 32.448 302.245 31.04C302.287 29.632 302.309 27.7973 302.309 25.536C302.309 24.6827 302.309 23.7867 302.309 22.848C302.309 21.9093 302.287 20.928 302.245 19.904H301.093L297.829 15.616L298.277 14.592C300.538 14.336 301.967 13.6533 302.565 12.544C303.162 11.4347 303.461 9.74933 303.461 7.488L304.549 7.104L308.453 10.048C308.453 10.816 308.453 11.5627 308.453 12.288C308.453 13.0133 308.453 13.7387 308.453 14.464H313.893L317.093 18.944L316.645 19.904H308.517C308.517 21.44 308.517 22.912 308.517 24.32C308.517 25.728 308.517 27.072 308.517 28.352C308.517 30.8267 308.474 32.7253 308.389 34.048C308.346 35.3707 308.282 36.352 308.197 36.992C308.111 37.632 308.069 38.2293 308.069 38.784C308.069 39.6373 308.517 40.064 309.413 40.064C310.181 40.064 311.013 39.872 311.909 39.488C312.805 39.0613 313.637 38.5493 314.405 37.952H315.301L318.309 42.944C317.711 43.6693 316.773 44.288 315.493 44.8C314.213 45.312 313.039 45.568 311.973 45.568Z"/>
</svg>
