<svg width="190" height="59" viewBox="0 0 190 59" fill="none" xmlns="http://www.w3.org/2000/svg">
<path d="M12.352 46.784C9.53601 45.8453 7.40267 44.9707 5.952 44.16C4.50134 43.3493 3.776 42.688 3.776 42.176C3.776 41.7067 3.81867 41.216 3.904 40.704C3.98934 40.192 4.07467 39.4453 4.16 38.464C4.24534 37.4827 4.288 36.0747 4.288 34.24V21.44C4.288 18.624 4.39467 16.3413 4.60801 14.592C4.864 12.8 5.12 11.4133 5.376 10.432H3.2L4.64171e-06 6.144L0.512005 5.12H6.27201C7.93601 5.12 9.47201 5.09867 10.88 5.056C12.288 4.97067 13.3333 4.928 14.016 4.928C14.9973 4.928 16.1493 5.29067 17.472 6.016C18.7947 6.69867 20.0747 7.57333 21.312 8.64C22.592 9.70667 23.6587 10.816 24.512 11.968C25.3653 13.0773 25.792 14.08 25.792 14.976V21.76C25.792 25.088 25.1947 27.584 24 29.248C22.8053 30.8693 20.8427 31.68 18.112 31.68C16.96 31.68 15.744 31.5733 14.464 31.36C13.184 31.1467 11.9467 30.848 10.752 30.464V35.648C10.752 37.4827 10.688 38.9547 10.56 40.064C10.4747 41.1307 10.432 41.9627 10.432 42.56C10.432 43.2853 11.3493 44.0747 13.184 44.928L12.352 46.784ZM16.192 10.432C15.552 10.432 14.8693 10.4533 14.144 10.496C13.4613 10.5387 12.736 10.624 11.968 10.752C11.6267 11.904 11.328 13.3333 11.072 15.04C10.8587 16.7467 10.752 18.7307 10.752 20.992V26.24C11.5627 26.4107 12.5013 26.496 13.568 26.496C15.7867 26.496 17.3013 25.92 18.112 24.768C18.9227 23.616 19.328 21.8027 19.328 19.328V13.632C19.328 12.48 19.1147 11.6693 18.688 11.2C18.2613 10.688 17.4293 10.432 16.192 10.432ZM42.3135 38.912C40.8628 34.3893 39.7322 30.6773 38.9215 27.776C38.1108 24.832 37.7055 22.8053 37.7055 21.696C37.7055 20.928 37.7695 20.3307 37.8975 19.904H36.3615L33.2895 15.488L33.8015 14.464H41.9935L44.9375 18.752L44.6175 19.584C43.2948 19.84 42.6335 20.8427 42.6335 22.592C42.6335 23.616 42.9748 25.4933 43.6575 28.224C44.3828 30.912 45.5775 34.5173 47.2415 39.04C48.5215 35.328 49.7375 31.8293 50.8895 28.544C52.0842 25.216 53.1082 22.336 53.9615 19.904H50.4415L47.5615 15.488L48.0735 14.464H56.7135L60.2335 19.776C57.4602 27.7973 55.0922 34.6667 53.1295 40.384C51.1668 46.1013 49.5882 50.4747 48.3935 53.504C47.2415 56.576 46.4095 58.112 45.8975 58.112C45.3855 58.112 44.5535 57.856 43.4015 57.344C42.2922 56.8747 41.1402 56.32 39.9455 55.68C38.7935 55.04 37.8975 54.5067 37.2575 54.08L38.2175 52.352C38.6442 52.608 39.0922 52.8427 39.5615 53.056C40.0308 53.312 40.4788 53.44 40.9055 53.44C41.2468 53.44 41.6095 53.1627 41.9935 52.608C42.3775 52.096 42.8468 51.136 43.4015 49.728C43.9988 48.3627 44.7455 46.4 45.6415 43.84C45.7268 43.6267 45.7908 43.4133 45.8335 43.2C45.0655 42.6027 44.3402 41.92 43.6575 41.152C43.0175 40.384 42.5695 39.6373 42.3135 38.912ZM81.7445 45.568C81.1045 45.568 80.2298 45.3333 79.1205 44.864C78.0112 44.352 76.8805 43.712 75.7285 42.944C74.5765 42.1333 73.5952 41.3013 72.7845 40.448C71.9738 39.552 71.5685 38.6987 71.5685 37.888C71.5685 37.4187 71.5898 36.928 71.6325 36.416C71.6752 35.904 71.7392 35.2427 71.8245 34.432C71.9098 33.5787 71.9738 32.448 72.0165 31.04C72.0592 29.632 72.0805 27.7973 72.0805 25.536C72.0805 24.6827 72.0805 23.7867 72.0805 22.848C72.0805 21.9093 72.0592 20.928 72.0165 19.904H70.8645L67.6005 15.616L68.0485 14.592C70.3098 14.336 71.7392 13.6533 72.3365 12.544C72.9338 11.4347 73.2325 9.74933 73.2325 7.488L74.3205 7.104L78.2245 10.048C78.2245 10.816 78.2245 11.5627 78.2245 12.288C78.2245 13.0133 78.2245 13.7387 78.2245 14.464H83.6645L86.8645 18.944L86.4165 19.904H78.2885C78.2885 21.44 78.2885 22.912 78.2885 24.32C78.2885 25.728 78.2885 27.072 78.2885 28.352C78.2885 30.8267 78.2458 32.7253 78.1605 34.048C78.1178 35.3707 78.0538 36.352 77.9685 36.992C77.8832 37.632 77.8405 38.2293 77.8405 38.784C77.8405 39.6373 78.2885 40.064 79.1845 40.064C79.9525 40.064 80.7845 39.872 81.6805 39.488C82.5765 39.0613 83.4085 38.5493 84.1765 37.952H85.0725L88.0805 42.944C87.4832 43.6693 86.5445 44.288 85.2645 44.8C83.9845 45.312 82.8112 45.568 81.7445 45.568ZM105.909 46.08C103.178 45.056 101.066 44.1387 99.573 43.328C98.1223 42.4747 97.397 41.7067 97.397 41.024C97.397 40.4267 97.461 39.5093 97.589 38.272C97.7597 36.992 97.845 35.7547 97.845 34.56V17.408C97.845 14.848 97.9303 12.5013 98.101 10.368C98.3143 8.192 98.5703 6.464 98.869 5.184H96.117L92.597 1.024L93.045 0H101.365L105.141 4.864C104.842 6.44267 104.608 8.21333 104.437 10.176C104.266 12.096 104.181 14.1013 104.181 16.192C104.864 15.5093 105.696 14.976 106.677 14.592C107.701 14.208 108.768 14.016 109.877 14.016C110.816 14.016 111.818 14.3573 112.885 15.04C113.952 15.7227 114.954 16.5547 115.893 17.536C116.874 18.5173 117.664 19.4987 118.261 20.48C118.901 21.4187 119.221 22.1867 119.221 22.784C119.221 23.8507 119.178 25.1733 119.093 26.752C119.008 28.3307 118.965 29.6107 118.965 30.592V35.264C118.965 36.8 118.901 38.1653 118.773 39.36C118.645 40.512 118.581 41.3867 118.581 41.984C118.581 42.4107 118.73 42.752 119.029 43.008C119.37 43.2213 120.181 43.6693 121.461 44.352L120.693 46.08C117.962 45.056 115.85 44.1387 114.357 43.328C112.906 42.4747 112.181 41.7067 112.181 41.024C112.181 40.4267 112.245 39.5093 112.373 38.272C112.544 36.992 112.629 35.7547 112.629 34.56V31.232C112.629 29.8667 112.672 28.3093 112.757 26.56C112.842 24.8107 112.885 23.2747 112.885 21.952C112.885 21.0987 112.778 20.5227 112.565 20.224C112.352 19.9253 111.882 19.776 111.157 19.776C108.768 19.776 106.997 20.3947 105.845 21.632C104.736 22.8267 104.181 24.4907 104.181 26.624V35.264C104.181 36.8 104.117 38.1653 103.989 39.36C103.861 40.512 103.797 41.3867 103.797 41.984C103.797 42.4107 103.946 42.752 104.245 43.008C104.586 43.2213 105.397 43.6693 106.677 44.352L105.909 46.08ZM144.015 45.76C142.991 45.76 141.754 45.504 140.303 44.992C138.852 44.48 137.444 43.7973 136.079 42.944C134.714 42.0907 133.562 41.1093 132.623 40C131.727 38.8907 131.279 37.76 131.279 36.608C131.279 36.096 131.343 34.6027 131.471 32.128C131.642 29.6533 131.727 26.56 131.727 22.848C131.727 19.8613 132.602 17.664 134.351 16.256C136.1 14.848 138.724 14.144 142.223 14.144C143.247 14.144 144.378 14.464 145.615 15.104C146.895 15.744 148.111 16.576 149.263 17.6C150.415 18.624 151.354 19.712 152.079 20.864C152.847 21.9733 153.231 23.0187 153.231 24C153.231 25.6213 153.188 27.3707 153.103 29.248C153.06 31.1253 153.039 33.536 153.039 36.48C153.039 39.2107 152.292 41.4507 150.799 43.2C149.306 44.9067 147.044 45.76 144.015 45.76ZM139.919 40.32C142.266 40.32 143.972 39.8293 145.039 38.848C146.148 37.8667 146.703 36.416 146.703 34.496C146.703 33.1307 146.724 31.5947 146.767 29.888C146.81 28.1387 146.852 26.5387 146.895 25.088C146.938 23.5947 146.959 22.5493 146.959 21.952C146.959 21.2267 146.831 20.6933 146.575 20.352C146.319 19.968 145.807 19.776 145.039 19.776C142.735 19.776 140.964 20.1813 139.727 20.992C138.532 21.76 137.935 23.232 137.935 25.408C137.935 29.504 137.892 32.5973 137.807 34.688C137.722 36.736 137.679 38.1227 137.679 38.848C137.679 39.8293 138.426 40.32 139.919 40.32ZM174.159 46.08C171.428 45.056 169.316 44.1387 167.823 43.328C166.372 42.4747 165.647 41.7067 165.647 41.024C165.647 40.4267 165.711 39.5093 165.839 38.272C166.009 36.992 166.095 35.7547 166.095 34.56V26.368C166.095 25.5147 166.116 24.448 166.159 23.168C166.244 21.888 166.393 20.8 166.607 19.904H164.239L160.911 15.488L161.359 14.464H167.375C167.545 14.464 167.908 14.7627 168.463 15.36C169.06 15.9147 169.657 16.5547 170.255 17.28C171.065 16.1707 172.068 15.36 173.263 14.848C174.5 14.2933 175.695 14.016 176.847 14.016H178.191C179.044 14.016 179.983 14.3573 181.007 15.04C182.073 15.7227 183.097 16.5547 184.079 17.536C185.103 18.5173 185.935 19.4987 186.575 20.48C187.215 21.4187 187.535 22.1867 187.535 22.784C187.535 23.8507 187.492 25.1733 187.407 26.752C187.321 28.3307 187.279 29.6107 187.279 30.592V35.264C187.279 36.8 187.215 38.1653 187.087 39.36C186.959 40.512 186.895 41.3867 186.895 41.984C186.895 42.4107 187.044 42.752 187.343 43.008C187.684 43.2213 188.495 43.6693 189.775 44.352L189.007 46.08C186.276 45.056 184.164 44.1387 182.671 43.328C181.22 42.4747 180.495 41.7067 180.495 41.024C180.495 40.4267 180.559 39.5093 180.687 38.272C180.857 36.992 180.943 35.7547 180.943 34.56V31.232C180.943 29.8667 180.985 28.3093 181.071 26.56C181.156 24.8107 181.199 23.2747 181.199 21.952C181.199 21.0987 181.092 20.5227 180.879 20.224C180.665 19.9253 180.196 19.776 179.471 19.776C177.081 19.776 175.311 20.3947 174.159 21.632C173.007 22.8267 172.431 24.4907 172.431 26.624V35.264C172.431 36.8 172.367 38.1653 172.239 39.36C172.111 40.512 172.047 41.3867 172.047 41.984C172.047 42.4107 172.196 42.752 172.495 43.008C172.836 43.2213 173.647 43.6693 174.927 44.352L174.159 46.08Z"/>
</svg>
