<svg width="134" height="47" viewBox="0 0 134 47" fill="none" xmlns="http://www.w3.org/2000/svg">
<path d="M13.12 45.568C9.664 45.568 6.86933 44.416 4.736 42.112C2.60267 39.808 1.024 36.3307 0 31.68L2.176 31.104C3.15733 33.4507 4.24533 35.2 5.44 36.352C6.67733 37.4613 8.27733 38.016 10.24 38.016C11.8613 38.016 13.312 37.6533 14.592 36.928C15.872 36.2027 16.8747 35.2213 17.6 33.984C18.368 32.704 18.752 31.296 18.752 29.76C18.752 28.1387 18.2827 27.328 17.344 27.328C16.6187 27.328 15.7227 27.456 14.656 27.712C13.632 27.968 12.608 28.224 11.584 28.48C10.56 28.736 9.728 28.864 9.088 28.864C8.23467 28.864 7.33867 28.4587 6.4 27.648C5.46133 26.7947 4.58667 25.6853 3.776 24.32C2.96533 22.912 2.304 21.4187 1.792 19.84C1.32267 18.2187 1.088 16.64 1.088 15.104C1.088 11.6907 2.00533 9.10933 3.84 7.36C5.71733 5.568 8.256 4.672 11.456 4.672C16.9173 4.672 20.5867 8.192 22.464 15.232L20.288 15.808C19.6053 14.3573 18.6667 13.312 17.472 12.672C16.2773 12.032 14.9333 11.712 13.44 11.712C11.0933 11.712 9.25867 12.352 7.936 13.632C6.656 14.912 6.016 16.768 6.016 19.2C6.016 20.0107 6.144 20.5867 6.4 20.928C6.69867 21.2693 7.01867 21.44 7.36 21.44C8.21333 21.44 9.19467 21.2693 10.304 20.928C11.456 20.5867 12.5653 20.2667 13.632 19.968C14.7413 19.6267 15.6373 19.456 16.32 19.456C17.216 19.456 18.176 20.0747 19.2 21.312C20.224 22.5067 21.0987 24.128 21.824 26.176C22.592 28.224 22.976 30.4853 22.976 32.96C22.976 36.928 22.1867 40.0213 20.608 42.24C19.0293 44.4587 16.5333 45.568 13.12 45.568ZM46.0945 45.76C45.0705 45.76 43.8332 45.504 42.3825 44.992C40.9318 44.48 39.5238 43.7973 38.1585 42.944C36.7932 42.0907 35.6412 41.1093 34.7025 40C33.8065 38.8907 33.3585 37.76 33.3585 36.608C33.3585 36.096 33.4225 34.6027 33.5505 32.128C33.7212 29.6533 33.8065 26.56 33.8065 22.848C33.8065 19.8613 34.6812 17.664 36.4305 16.256C38.1798 14.848 40.8038 14.144 44.3025 14.144C45.3265 14.144 46.4572 14.464 47.6945 15.104C48.9745 15.744 50.1905 16.576 51.3425 17.6C52.4945 18.624 53.4332 19.712 54.1585 20.864C54.9265 21.9733 55.3105 23.0187 55.3105 24C55.3105 25.6213 55.2678 27.3707 55.1825 29.248C55.1398 31.1253 55.1185 33.536 55.1185 36.48C55.1185 39.2107 54.3718 41.4507 52.8785 43.2C51.3852 44.9067 49.1238 45.76 46.0945 45.76ZM41.9985 40.32C44.3452 40.32 46.0518 39.8293 47.1185 38.848C48.2278 37.8667 48.7825 36.416 48.7825 34.496C48.7825 33.1307 48.8038 31.5947 48.8465 29.888C48.8892 28.1387 48.9318 26.5387 48.9745 25.088C49.0172 23.5947 49.0385 22.5493 49.0385 21.952C49.0385 21.2267 48.9105 20.6933 48.6545 20.352C48.3985 19.968 47.8865 19.776 47.1185 19.776C44.8145 19.776 43.0438 20.1813 41.8065 20.992C40.6118 21.76 40.0145 23.232 40.0145 25.408C40.0145 29.504 39.9718 32.5973 39.8865 34.688C39.8012 36.736 39.7585 38.1227 39.7585 38.848C39.7585 39.8293 40.5052 40.32 41.9985 40.32ZM75.726 46.208C72.9953 45.184 70.8833 44.2667 69.39 43.456C67.9393 42.6027 67.214 41.8347 67.214 41.152C67.214 40.5547 67.278 39.6373 67.406 38.4C67.5767 37.12 67.662 35.8827 67.662 34.688V17.472C67.662 14.912 67.7473 12.5653 67.918 10.432C68.1313 8.256 68.3873 6.50667 68.686 5.184H65.934L62.414 1.024L62.862 0H71.182L74.958 4.864C74.6593 6.528 74.4247 8.42667 74.254 10.56C74.0833 12.6507 73.998 14.784 73.998 16.96V35.392C73.998 36.928 73.934 38.2933 73.806 39.488C73.678 40.64 73.614 41.5147 73.614 42.112C73.614 42.5387 73.7633 42.88 74.062 43.136C74.4033 43.3493 75.214 43.7973 76.494 44.48L75.726 46.208ZM91.457 10.176L87.233 5.632V4.992C88.385 3.456 89.9423 2.112 91.905 0.959999L96.129 5.376L96.065 6.144C95.2117 6.74133 94.401 7.40267 93.633 8.128C92.9077 8.85333 92.1823 9.536 91.457 10.176ZM97.153 46.208C94.4223 45.184 92.3103 44.2667 90.817 43.456C89.3663 42.6027 88.641 41.8347 88.641 41.152C88.641 40.5547 88.705 39.6373 88.833 38.4C89.0037 37.12 89.089 35.8827 89.089 34.688V25.536C89.089 24.4267 89.1317 23.4027 89.217 22.464C89.345 21.4827 89.537 20.6293 89.793 19.904H87.681L84.289 15.552L84.737 14.464H92.929L96.641 19.456C96.129 20.1387 95.7877 20.992 95.617 22.016C95.489 23.04 95.425 24.3413 95.425 25.92V35.392C95.425 36.928 95.361 38.2933 95.233 39.488C95.105 40.64 95.041 41.5147 95.041 42.112C95.041 42.5387 95.1903 42.88 95.489 43.136C95.8303 43.3493 96.641 43.7973 97.921 44.48L97.153 46.208ZM132.241 45.952C131.26 45.6533 130.385 45.3333 129.618 44.992C128.892 44.6507 128.081 44.224 127.185 43.712C126.332 44.4373 125.457 44.9707 124.561 45.312C123.708 45.6107 122.62 45.76 121.297 45.76C120.273 45.76 119.036 45.504 117.585 44.992C116.177 44.48 114.769 43.7973 113.361 42.944C111.996 42.0907 110.844 41.1093 109.905 40C109.009 38.8907 108.561 37.76 108.561 36.608C108.561 36.1387 108.625 34.7947 108.753 32.576C108.881 30.3147 108.945 27.0507 108.945 22.784C108.945 19.7547 109.777 17.5787 111.441 16.256C113.105 14.9333 115.431 14.272 118.417 14.272C119.313 14.272 120.252 14.4427 121.233 14.784C122.257 15.1253 123.175 15.5307 123.985 16C124.028 13.7387 124.135 11.6693 124.306 9.792C124.476 7.91467 124.711 6.37867 125.009 5.184H122.257L118.737 1.024L119.185 0H127.505L131.281 4.864C130.983 6.528 130.748 8.42667 130.577 10.56C130.407 12.6507 130.321 14.784 130.321 16.96V26.624C130.321 28.7147 130.279 30.8693 130.193 33.088C130.108 35.264 130.087 37.5893 130.129 40.064C130.172 41.344 130.385 42.2187 130.769 42.688C131.153 43.1573 131.964 43.648 133.201 44.16L132.241 45.952ZM114.961 38.336C114.961 39.0613 115.132 39.5733 115.473 39.872C115.857 40.1707 116.433 40.32 117.201 40.32C119.505 40.32 121.212 39.7867 122.321 38.72C123.431 37.6533 123.985 36.16 123.985 34.24V20.16C123.175 19.9893 122.3 19.904 121.361 19.904C119.569 19.904 118.097 20.288 116.945 21.056C115.836 21.824 115.26 23.2747 115.217 25.408L114.961 38.336Z" />
</svg>
