<svg width="108" height="46" viewBox="0 0 108 46" fill="none" xmlns="http://www.w3.org/2000/svg">
<path d="M18.496 44.672C18.0267 44.672 17.3013 44.3947 16.32 43.84C15.3813 43.2427 14.3787 42.5387 13.312 41.728C12.288 40.8747 11.392 40.064 10.624 39.296C9.89867 38.528 9.49334 37.9733 9.40801 37.632C8.38401 32.768 7.53067 28.8213 6.84801 25.792C6.20801 22.72 5.69601 20.3093 5.31201 18.56C4.97067 16.768 4.73601 15.4027 4.60801 14.464C4.48001 13.4827 4.41601 12.6507 4.41601 11.968C4.41601 11.0293 4.52267 10.2187 4.73601 9.536H2.94401L6.67572e-06 5.248L0.448007 4.224H9.15201L12.16 8.704V9.536C11.2213 10.0053 10.56 10.56 10.176 11.2C9.83467 11.84 9.66401 12.736 9.66401 13.888C9.66401 14.272 9.70667 14.8267 9.79201 15.552C9.92001 16.2347 10.1333 17.344 10.432 18.88C10.7307 20.416 11.1787 22.6347 11.776 25.536C12.3733 28.4373 13.1627 32.2987 14.144 37.12C15.168 33.664 16.2987 29.504 17.536 24.64C18.7733 19.776 20.0533 14.7413 21.376 9.536H18.688L15.808 5.248L16.256 4.224H24.832L28.416 9.536C27.9893 10.9867 27.4773 12.8427 26.88 15.104C26.2827 17.3653 25.6427 19.8187 24.96 22.464C24.32 25.1093 23.6587 27.7333 22.976 30.336C22.336 32.9387 21.7173 35.328 21.12 37.504C20.5227 39.68 19.9893 41.4293 19.52 42.752C19.0507 44.032 18.7093 44.672 18.496 44.672ZM42.9015 9.216L38.6775 4.672V4.032C39.8295 2.496 41.3868 1.152 43.3495 0L47.5735 4.416L47.5095 5.184C46.6562 5.78134 45.8455 6.44267 45.0775 7.168C44.3522 7.89333 43.6268 8.576 42.9015 9.216ZM48.5975 45.248C45.8668 44.224 43.7548 43.3067 42.2615 42.496C40.8108 41.6427 40.0855 40.8747 40.0855 40.192C40.0855 39.5947 40.1495 38.6773 40.2775 37.44C40.4482 36.16 40.5335 34.9227 40.5335 33.728V24.576C40.5335 23.4667 40.5762 22.4427 40.6615 21.504C40.7895 20.5227 40.9815 19.6693 41.2375 18.944H39.1255L35.7335 14.592L36.1815 13.504H44.3735L48.0855 18.496C47.5735 19.1787 47.2322 20.032 47.0615 21.056C46.9335 22.08 46.8695 23.3813 46.8695 24.96V34.432C46.8695 35.968 46.8055 37.3333 46.6775 38.528C46.5495 39.68 46.4855 40.5547 46.4855 41.152C46.4855 41.5787 46.6348 41.92 46.9335 42.176C47.2748 42.3893 48.0855 42.8373 49.3655 43.52L48.5975 45.248ZM71.206 44.608C70.566 44.608 69.6913 44.3733 68.582 43.904C67.4727 43.392 66.342 42.752 65.19 41.984C64.038 41.1733 63.0567 40.3413 62.246 39.488C61.4353 38.592 61.03 37.7387 61.03 36.928C61.03 36.4587 61.0513 35.968 61.094 35.456C61.1367 34.944 61.2007 34.2827 61.286 33.472C61.3713 32.6187 61.4353 31.488 61.478 30.08C61.5207 28.672 61.542 26.8373 61.542 24.576C61.542 23.7227 61.542 22.8267 61.542 21.888C61.542 20.9493 61.5207 19.968 61.478 18.944H60.326L57.062 14.656L57.51 13.632C59.7713 13.376 61.2007 12.6933 61.798 11.584C62.3953 10.4747 62.694 8.78933 62.694 6.528L63.782 6.144L67.686 9.088C67.686 9.856 67.686 10.6027 67.686 11.328C67.686 12.0533 67.686 12.7787 67.686 13.504H73.126L76.326 17.984L75.878 18.944H67.75C67.75 20.48 67.75 21.952 67.75 23.36C67.75 24.768 67.75 26.112 67.75 27.392C67.75 29.8667 67.7073 31.7653 67.622 33.088C67.5793 34.4107 67.5153 35.392 67.43 36.032C67.3447 36.672 67.302 37.2693 67.302 37.824C67.302 38.6773 67.75 39.104 68.646 39.104C69.414 39.104 70.246 38.912 71.142 38.528C72.038 38.1013 72.87 37.5893 73.638 36.992H74.534L77.542 41.984C76.9447 42.7093 76.006 43.328 74.726 43.84C73.446 44.352 72.2727 44.608 71.206 44.608ZM99.4665 44.672C98.4425 44.672 97.1838 44.416 95.6905 43.904C94.1972 43.3493 92.7038 42.6453 91.2105 41.792C89.7598 40.896 88.5438 39.936 87.5625 38.912C86.5812 37.8453 86.0905 36.8 86.0905 35.776C86.0905 34.752 86.1545 32.9813 86.2825 30.464C86.4532 27.9467 86.5385 24.9387 86.5385 21.44C86.5385 15.8933 89.5678 13.12 95.6265 13.12C96.5652 13.12 97.6532 13.4187 98.8905 14.016C100.128 14.5707 101.323 15.3173 102.475 16.256C103.627 17.152 104.587 18.0907 105.355 19.072C106.123 20.0533 106.507 20.9707 106.507 21.824V27.072C106.507 30.528 104.587 32.256 100.747 32.256C99.5518 32.256 98.1865 32.192 96.6505 32.064C95.1145 31.8933 93.7492 31.7013 92.5545 31.488C92.5118 32.896 92.4692 34.176 92.4265 35.328C92.4265 36.4373 92.4265 37.0773 92.4265 37.248C92.4265 37.9307 92.5972 38.4213 92.9385 38.72C93.2798 39.0187 93.8985 39.168 94.7945 39.168C96.1172 39.168 97.5465 38.976 99.0825 38.592C100.661 38.1653 102.069 37.5467 103.307 36.736H104.267L107.723 41.984C106.912 42.752 105.696 43.392 104.075 43.904C102.496 44.416 100.96 44.672 99.4665 44.672ZM92.7465 23.488C92.7465 23.8293 92.7252 24.3413 92.6825 25.024C92.6825 25.7067 92.6825 26.4747 92.6825 27.328C93.9198 27.456 95.3492 27.52 96.9705 27.52C98.2078 27.52 99.0612 27.2213 99.5305 26.624C100.043 25.984 100.299 25.024 100.299 23.744V20.288C100.299 19.8187 100.171 19.4133 99.9145 19.072C99.6585 18.7307 99.1038 18.56 98.2505 18.56C96.5438 18.56 95.1998 18.9227 94.2185 19.648C93.2372 20.3307 92.7465 21.6107 92.7465 23.488Z"/>
</svg>
